<?xml version="1.0" encoding="utf-8"?>
<!-- Generator: Adobe Illustrator 22.0.1, SVG Export Plug-In . SVG Version: 6.00 Build 0)  -->
<svg version="1.1" id="Capa_1" xmlns="http://www.w3.org/2000/svg" xmlns:xlink="http://www.w3.org/1999/xlink" x="0px" y="0px"
	 viewBox="0 0 3354 1513.7" style="enable-background:new 0 0 3354 1513.7;" xml:space="preserve">
<style type="text/css">
	.st0{fill:#E5E4E3;}
	.st1{fill:#D1D3D4;}
</style>
<g>
	<g>
		<g>
			<path class="st0" d="M1860.8,1006c-66,0.7-132.4,2.1-198.5,2.5c-54.3,0.4-108.5,0.4-162.8-0.7c-51.4-1.1-102.8-2.9-153.9-5.4
				c-43.2-2.1-86.4-5.7-129.6-8.9c-31.1-2.5-61.8-5-92.8-8.2c-35-3.6-70.3-7.5-105.3-11.8c-27.5-3.6-55.3-7.5-82.8-12.1
				c-32.5-5.4-65-10.7-97.5-17.1c-28.2-5.4-56-12.1-84.3-18.6c-24.3-5.7-48.6-11.4-72.5-18.9c-39.6-12.1-79.3-25-118.2-39.3
				c-47.8-17.5-91.4-43.2-133.5-70.7c-41.1-26.8-78.5-57.8-110.3-95c-26.8-31.4-47.8-66.4-56.8-107.5c-6.8-30.7-5.7-61,2.5-91.4
				c11.4-40.7,34.3-75,60.7-107.5c40.3-49.3,93.5-80.7,149.2-108.9c54.6-27.8,111.4-50.3,169.9-67.8c45-13.6,90.7-26.1,136.4-37.8
				c26.4-6.8,53.2-12.1,80-17.1c38.6-7.5,77.1-14.6,115.7-20.3c43.2-6.8,86.7-12.5,130.3-17.5c40.7-4.6,81.8-8.6,122.4-11.4
				c47.1-3.6,94.2-6.8,141.7-8.9c85.7-3.6,171.7-6.1,257.4-8.9c26.8-0.7,53.5-2.1,80.3-1.8c70,1.4,139.9,3.2,209.6,5.7
				c32.5,1.1,65,3.6,97.5,5.7c23.2,1.4,46.8,2.9,70,5.4c48.2,5,96,10.7,144.2,16.4c30.7,3.6,61.4,7.9,92.1,12.5
				c35.3,5.7,70.7,12.5,105.7,19.3c29.6,5.7,59.3,11.4,88.5,18.2c27.8,6.4,55.3,13.6,82.8,21.1c30.3,8.6,60.7,17.5,90.3,27.8
				c37.1,12.9,74.6,25.7,111,41.4c39.3,16.8,78.2,34.6,115.7,55c32.5,17.5,64.6,37.5,94.2,59.3c42.5,31.1,78.5,68.5,100,117.5
				c18.2,41.8,17.5,83.5-2.9,124.6c-10,20-22.8,37.8-40,55c1.8-9.6,2.9-17.8,5-25.3c7.1-28.2,3.2-55.3-7.5-81.8
				c-17.5-42.1-48.6-73.2-83.9-100c-46.4-35.3-98.2-62.1-152.4-82.5c-47.5-17.8-95.7-34.3-144.2-48.9c-37.5-11.1-76-18.9-114.6-27.1
				c-36.4-7.9-72.8-14.6-109.6-20.7c-40.3-6.8-81-12.5-121.7-17.5c-39.3-4.6-78.5-8.6-118.2-11.8c-45.7-3.6-91.4-6.1-137.4-8.9
				c-88.5-5.4-176.7-6.4-265.2-4.3c-19.3,0.4-38.9,0.7-58.2,1.4c-50.3,1.8-100.3,3.2-150.7,6.4c-47.8,2.9-95.3,6.8-143.2,11.4
				c-28.6,2.9-57.1,7.1-85.3,10.7c-23.9,3.2-48.2,5.7-71.8,9.6c-34.6,5.7-68.9,12.1-103.2,18.9c-28.6,5.7-56.8,11.4-84.6,18.9
				c-37.5,10.4-75,21.4-111.7,34.3c-58.9,20.3-115,47.1-167.8,81c-38.2,24.6-72.5,53.2-95,93.5c-21.4,38.6-28.2,79.6-18.6,122.1
				c8.6,38.2,30,70.3,57.1,98.2c45.7,46.8,102.1,77.8,161,103.5c52.8,22.8,107.1,41.4,162.8,55.3c40,10,80,19.6,120.3,28.2
				c28.9,6.1,58.2,10.4,87.5,15c28.6,4.3,56.8,8.6,85.3,12.1c34.3,4.3,68.9,8.6,103.5,11.8c36.4,3.6,73.2,6.4,110,8.9
				c32.8,2.5,66,4.6,98.9,6.1c28.9,1.4,57.5,1.4,86.4,2.5c20,0.7,40,2.9,60.3,4.3C1860.8,1005.3,1860.8,1005.6,1860.8,1006z"/>
		</g>
		<g>
			<path class="st0" d="M1458.5,855c17.1,3.9,33.9,7.9,51,11.4c18.2,3.6,36.4,7.1,54.6,10.4c21.4,3.6,42.5,7.1,63.9,10.4
				c27.5,3.9,55.3,7.9,82.8,11.1c19.6,2.5,39.3,3.9,58.5,6.1c27.1,2.9,54.3,5.4,81.4,7.9c13.2,1.4,26.1,2.9,39.3,3.6
				c37.1,2.5,74.6,4.3,111.7,6.8c15.7,1.1,31.4,2.1,47.1,3.9c-11.1,1.1-21.8,2.5-32.8,3.6c-121,8.9-242,7.1-363.1,5.4
				c-52.5-0.7-105-5-157.1-8.9c-37.5-2.9-75-6.8-112.1-11.8c-40.3-5.4-80.3-12.5-120.3-19.6c-29.6-5.4-59.3-10.4-88.5-18.2
				c-45-12.1-89.6-26.1-133.9-40c-40-12.9-77.8-30.3-114.2-51c-39.3-22.5-75.7-48.9-102.5-86c-21.1-28.9-30.3-61.4-23.6-96.7
				c3.6-18.9,12.9-35.7,24.6-51c27.5-36.4,63.9-61,102.8-82.8c48.2-27.1,99.2-47.8,152.1-64.3c36.1-11.1,72.1-22.1,108.9-31.4
				c33.2-8.6,67.1-15,100.7-21.4c30.3-6.1,61-11.8,91.4-16.4c25.3-3.9,50.7-6.4,76-9.3c31.8-3.6,63.2-7.9,95-10.7
				c29.6-2.9,58.9-5,88.5-6.1c76-2.5,152.4-5.7,228.5-5.7c71.4,0,142.8,3.2,213.8,5.4c24.6,0.7,49.3,1.1,73.5,2.9
				c34.3,2.9,68.5,7.1,102.8,10.7c28.2,3.2,56.8,5.7,85,9.6c28.6,3.9,56.8,8.9,85,13.6c21.4,3.6,42.8,7.1,63.9,11.4
				c30.7,6.1,61.4,12.5,91.7,19.6c60.7,14.6,120.7,31.8,179.6,53.2c43.2,15.7,85.3,33.2,125.3,55.7c35.7,20.3,69.6,43.2,95.3,76.4
				c21.1,27.1,29.6,57.1,21.1,90.7c-6.1,23.2-19.6,42.5-36.8,57.1c1.1-13.6,3.2-27.8,3.2-41.8c-0.4-21.8-11.4-39.6-25.3-55.3
				c-27.8-31.8-64.3-51-101.7-68.2c-39.3-17.8-79.6-31.8-121.4-42.1c-22.8-5.7-45.7-11.1-68.5-16.8c-3.2-0.7-6.8-3.2-8.2-6.1
				c-16.4-26.8-32.5-53.5-48.6-80.3c-6.8-11.4-15.7-18.6-30.3-18.2c-17.8,0.7-36.1,0.7-53.9,0c-16.1-0.7-26.1,6.8-33.9,19.6
				c-9.3,15.4-18.9,30.3-28.9,45.3c-1.4,2.5-6.1,4.6-8.9,4.3c-31.8-3.2-63.5-6.8-95-10c-19.3-1.8-38.6-2.9-57.8-4.6
				c-5.7-0.4-11.1-1.4-17.5-2.5c0-10.7,0-20.3,0-30c-0.4-12.1-5-18.2-16.8-19.6c-41.1-5-82.5-6.4-123.2,3.2
				c-26.8,6.4-52.1,16.4-75,32.1c-5,3.6-12.1,5.4-18.2,5.4c-31.8,0.7-63.5,0.4-95,0.4c-4.3,0-8.6,0-14.3,0c0-6.1-0.4-11.4,0-16.8
				c0.7-15.4-8.6-28.2-25.3-27.5c-20.7,0.7-41.8,0.7-62.5,0c-16.4-0.4-24.6,11.4-26.1,27.8c-0.4,6.4,0.7,13.2-0.4,19.6
				c-0.4,2.9-3.9,7.1-6.8,7.5c-23.6,3.2-47.5,5.7-71.4,7.9c-2.5,0.4-6.1-1.8-7.9-3.6c-25-25.7-56.4-40-90-50
				c-26.8-8.2-54.3-9.6-82.1-9.6c-50,0.4-100,0-149.9,0c-3.9,0-7.9,0.4-12.1,0.4c-20.3,0-29.6,11.4-30,32.5
				c-0.4,32.1-0.4,64.6,0,96.7c0,8.2-3.2,11.4-10,13.9c-44.3,15.7-87.1,34.6-126.7,60.3c-20.7,13.2-39.6,28.6-52.5,50.3
				c-17.5,29.3-16.1,60,4.3,87.8c18.6,25.7,44.3,42.8,71,58.5c33.2,19.3,68.9,33.9,105.7,45.7c5.4,1.8,9.3,4.3,11.8,9.6
				c6.1,13.9,24.3,17.1,35.7,16.4c1.8,0,4.3-3.2,5-5.4L1458.5,855z"/>
		</g>
		<g>
			<path class="st0" d="M2362.8,851.8c3.6-16.8,6.1-32.5,10.4-47.8c13.6-47.1,26.1-94.6,42.1-140.7c22.5-65,51.4-127.1,86.7-186
				c8.6-13.9,17.5-27.8,26.1-41.8c3.2-5.4,7.1-7.9,13.9-7.5c15,0.4,30.3,0.4,45.3,0c5.7,0,9.3,2.1,11.8,6.8
				c24.6,42.8,51,84.6,73.2,128.5c20.7,42.1,38.6,85.7,54.3,129.9c12.5,35.7,20.7,72.8,30,109.6c3.6,14.6,4.6,30,7.1,46.1
				c-18.9,0-36.4,0.4-53.5-0.4c-2.5,0-5.7-5.7-6.8-9.3c-7.1-27.1-14.3-54.3-20.7-81.4c-1.8-7.9-6.1-10.4-13.9-10.4
				c-60,0.4-119.9,0-179.9,0c-3.6,0-7.1-0.4-11.8-0.7c-2.5-16.8,1.8-31.4,12.5-43.6c2.1-2.5,7.1-2.9,11.1-2.9
				c50.3,0,100.7,0,150.7,0c11.4,0,11.8-0.4,8.2-11.1c-18.2-57.8-40-113.9-70.3-166.4c-6.4-11.1-13.9-21.8-21.4-32.5
				c-5-6.8-7.5-6.8-11.4,0.4c-15.4,27.8-31.8,55.7-45.3,84.6c-22.8,48.6-40.7,99.2-55.7,150.7c-10.4,35-19.6,70.3-29.3,105.7
				c-1.1,4.3-1.8,8.9-3.6,13.2c-1.1,2.5-4.3,6.4-6.4,6.4C2399.2,852.1,2382.1,851.8,2362.8,851.8z"/>
		</g>
		<g>
			<path class="st0" d="M2262.5,477.3c-23.2-1.1-44.6-3.6-65.7-2.9c-29.3,1.1-57.5,8.9-81.8,26.4c-25,17.8-41.4,42.1-51.8,71
				c-8.9,25-13.6,50.3-11.4,76.8c2.9,37.1,10,73.2,33.2,103.9c17.1,22.5,39.6,37.8,66.8,46.8c33.9,11.4,68.9,11.4,103.9,7.1
				c5-0.7,7.9,0,7.9,5.7c0,11.8,0,23.2,0,35.7c-8.2,1.4-16.4,3.2-24.3,3.6c-17.8,0.7-35.3,1.4-53.2,0c-50.3-4.3-96.7-18.9-134.2-55
				c-17.5-16.8-30.3-37.1-40.7-59.3c-15-32.5-23.6-67.1-22.1-102.5c3.2-61.8,21.4-118.9,71-161c18.6-15.7,40.3-26.4,63.5-33.9
				c28.6-9.3,57.8-12.1,87.5-11.8c15.4,0.4,30.7,2.9,45.7,4.6c2.1,0.4,5.4,2.5,5.4,3.9C2262.8,450.5,2262.5,464.1,2262.5,477.3z"/>
		</g>
		<g>
			<path class="st0" d="M1858.3,427.3c16.8,0,32.8-0.4,48.9,0.4c1.8,0,4.3,3.2,5.4,5.7c0.7,1.4,0.4,3.9,0.4,6.1
				c0,133.5,0,267.4,0,400.9c0,11.8,0,11.8-12.1,11.8c-13.9,0-27.8,0-42.1,0C1858.3,710,1858.3,569.4,1858.3,427.3z"/>
		</g>
		<g>
			<path class="st0" d="M2214.3,1366.2c15.4,16.4,30.7,33.6,46.4,50.3c2.5,2.9,5.4,5.4,0.7,7.9c-3.2,1.8-6.1,8.9-11.1,2.9
				c-18.9-21.4-37.8-42.8-56.8-64.3c7.5-5,15-8.9,21.4-14.6c13.2-11.4,13.6-35,0.4-44.3c-12.1-8.6-26.1-8.6-40-7.5
				c-1.4,0-3.6,5.4-3.6,8.2c-0.4,35.3,0,70.7,0,106c0,3.2-0.4,6.4,0,9.3c0.7,6.8-2.1,8.6-8.9,8.9c-7.5,0-8.2-3.2-8.2-9.3
				c0.4-42.5,0.4-85,0-127.4c0-6.4,2.1-8.6,8.2-8.2c12.1,0.4,24.6-1.1,36.8,0.7c10.4,1.8,21.1,5.4,29.6,11.1
				c13.9,8.9,17.1,33.2,6.8,46.8C2230,1350.8,2222.5,1357.6,2214.3,1366.2z"/>
		</g>
		<g>
			<path class="st0" d="M2614.8,1423.3c-1.4,1.1-2.5,1.8-3.6,2.5c-11.1,6.4-11.1,6.1-16.1-5.4c-5-12.1-11.1-24.3-16.1-36.4
				c-1.8-4.6-4.6-5.7-8.9-5.7c-18.6,0-37.1,0.4-55.7,0c-5,0-6.8,2.1-8.6,6.4c-5.7,13.9-12.5,27.5-18.2,41.1
				c-1.8,4.3-4.3,5.7-8.6,3.2c-3.9-2.1-7.1-3.6-4.3-9.6c18.9-40.3,37.8-81,56.4-121.7c1.1-2.5,2.9-5,3.6-7.9
				c1.4-4.6,3.6-7.1,8.9-7.1c5,0,7.9,1.4,9.6,6.1c10,22.8,20.3,45.3,30.7,68.2C2594.5,1378.7,2604.5,1400.8,2614.8,1423.3z
				 M2569.5,1363.7c-1.1-2.9-1.4-4.6-1.8-6.1c-6.4-14.6-12.5-28.9-19.3-43.6c-1.1-2.5-3.2-4.3-5-6.4c-2.1,2.1-5,3.6-6.1,6.1
				c-5,10.7-9.6,21.8-14.3,32.5c-2.1,5.4-4.3,10.7-7.1,17.1C2534.5,1363.7,2551.3,1363.7,2569.5,1363.7z"/>
		</g>
		<g>
			<path class="st0" d="M1180.4,1479c-5,0-9.3,0-15,0c-0.4-4.3-0.7-8.6-0.7-12.5c0-45,0-90,0-135.3c0-11.4,0-12.1,11.8-11.4
				c13.6,0.7,27.1,1.4,40.7,3.6c20.3,3.6,38.6,21.1,40,42.8c1.8,28.2-11.8,46.4-34.3,54.6c-11.1,4.3-23.2,5.4-35,7.1
				c-5.7,0.7-7.9,2.5-7.9,8.2C1180.8,1450.1,1180.4,1464.4,1180.4,1479z M1180.4,1373.7c0,12.1,0,23.9,0,36.1c0,5,1.8,7.9,6.8,6.8
				c11.1-2.5,23.2-3.6,33.6-8.2c26.4-11.8,28.2-51.8,6.1-66.8c-11.4-7.9-25-10-38.9-10c-5.7,0-7.5,2.1-7.5,7.5
				C1180.8,1350.5,1180.4,1361.9,1180.4,1373.7z"/>
		</g>
		<g>
			<path class="st0" d="M1015.5,1427.2c-32.5,15-67.1-5-72.8-40c-3.9-23.6,1.1-44.3,20.7-59.6c15.4-11.8,32.8-14.3,50.3-6.8
				c15.7,6.8,26.4,19.3,30.3,36.8C1045.1,1363.3,1047.3,1411.5,1015.5,1427.2z M1026.9,1353.3c-8.2-25.3-40-32.8-57.8-12.9
				c-13.2,15-15.4,32.8-9.6,51.8c3.9,12.5,10.7,23.2,24.3,26.1c15,2.9,29.6,1.4,38.2-13.6
				C1030.8,1394.4,1029.1,1360.5,1026.9,1353.3z"/>
		</g>
		<g>
			<path class="st0" d="M1769.1,1374.4c-0.4-26.1,15-49.3,42.8-56c18.6-4.6,41.4,1.8,54.6,24.3s11.4,50.7-4.6,70.7
				c-25,30.7-72.8,22.5-87.1-14.3C1771.6,1391.2,1770.9,1382.6,1769.1,1374.4z M1860.1,1372.3c-2.1-8.2-3.2-14.3-5.4-20
				c-5.7-14.6-16.4-23.2-32.5-23.2c-15.4,0-25.7,7.9-31.8,21.8c-5.7,12.5-7.1,25-3.6,38.9c3.9,15,15,27.5,27.8,28.9
				c20.7,2.1,33.2-4.3,39.6-21.4C1857.6,1389,1858.3,1379.8,1860.1,1372.3z"/>
		</g>
		<g>
			<path class="st0" d="M1384.3,1374.4c-0.4,22.5-8.2,41.4-28.9,52.1c-32.8,16.8-70-3.9-75-41.8c-3.2-23.6,2.5-44.6,23.2-58.5
				c16.1-11.1,33.6-12.9,51.4-3.6c18.9,9.6,27.5,26.1,29.3,46.8C1384.3,1370.8,1384.3,1372.6,1384.3,1374.4z M1333.6,1419
				c12.1,1.1,22.1-5.7,28.9-18.2c8.6-16.1,8.6-32.8,1.8-49.3c-6.1-14.6-18.6-23.2-32.8-22.5c-15.7,0.7-25.7,9.3-31.8,23.2
				c-6.1,14.6-6.4,29.3-0.4,43.9C1305,1411.5,1315,1418.7,1333.6,1419z"/>
		</g>
		<g>
			<path class="st0" d="M1507.4,1331.6c-2.1-8.2-0.7-12.5,7.9-11.8c12.5,1.4,25.7,1.1,37.8,3.9c13.6,3.6,21.4,14.3,22.1,28.2
				c1.1,23.6,1.1,47.1,1.1,71c0,2.5-3.2,6.8-5,6.8c-18.2-0.4-36.4-0.4-54.3-3.2c-16.4-2.5-26.8-17.5-25.7-31.4
				c1.1-11.8,13.2-24.6,27.5-28.2c11.4-2.9,23.2-4.6,35-6.4c7.5-1.1,8.9-3.9,6.4-11.1c-5.4-13.9-17.8-16.4-30.3-17.8
				C1522.4,1330.8,1514.9,1331.6,1507.4,1331.6z M1561.3,1369c-14.6,3.6-27.8,6.1-40.7,10c-9.3,2.9-12.5,9.6-12.5,18.9
				c0,9.6,6.1,15.7,13.6,17.5c12.9,2.9,26.1,3.2,39.6,4.3C1561.3,1402.6,1561.3,1387.6,1561.3,1369z"/>
		</g>
		<g>
			<path class="st0" d="M1996.1,1429c-5.7,0-10.4,0-16.1,0c0-6.4,0-12.9,0-18.9c0-18.9-0.4-37.8,0-56.4
				c0.7-20.7-12.5-24.3-28.9-21.4c-2.1,0.4-4.3,1.4-6.4,2.1c-23.2,8.6-23.2,8.6-23.2,33.2c0,17.8,0,36.1,0.4,53.9
				c0,5.4-0.7,8.2-7.5,8.2c-6.4,0-7.5-2.5-7.5-8.2c0-29.6,0-59.3,0-88.9c0-13.2,0-13.2,13.9-11.4c0.4,1.4,0.7,2.9,0.7,4.6
				c-0.4,6.1,2.5,6.4,7.5,4.3c7.9-3.6,16.4-6.4,24.3-10c18.6-8.6,41.4,2.1,42.5,28.6C1996.9,1375.1,1996.1,1401.5,1996.1,1429z"/>
		</g>
		<g>
			<path class="st0" d="M2457.7,1283.7c0.4,3.9,0.4,7.5,0.7,11.4c-10,1.4-19.3,2.9-28.6,4.3c-23.2,4.3-42.8,13.9-52.5,36.8
				c-11.8,27.8,1.1,57.8,29.3,70.7c15.7,7.1,31.8,9.6,48.9,10.4c4.3,0,7.1,1.8,5.7,6.1c-0.7,2.5-3.6,6.4-5.7,6.4
				c-27.5,1.1-53.9-3.9-75.7-22.5c-33.9-28.9-29.6-83.9,8.2-107.1C2406.7,1288.7,2437.4,1281.2,2457.7,1283.7z"/>
		</g>
		<g>
			<path class="st0" d="M918,1281.2c0.7,4.3,0.7,5.7,0.7,7.1c0,2.1,0,4.6,0,6.4c-13.2,2.5-26.1,3.9-38.6,7.1
				c-19.6,5.4-36.1,16.1-42.8,36.4c-8.9,27.1,0.7,52.8,25,66c15.7,8.6,32.5,12.1,50,12.5c2.9,0,5.7,0.4,8.2,0.7
				c2.5,11.8,1.8,12.1-8.9,12.1c-20.7,0.4-40-3.6-58.2-13.6c-28.6-15.4-42.5-46.1-32.8-79.6c8.2-28.6,30-41.4,56-48.9
				C889.8,1284.8,903.7,1283.7,918,1281.2z"/>
		</g>
		<g>
			<path class="st0" d="M1685.6,1320.1c3.2,10-0.7,12.1-8.6,13.2c-11.4,1.4-23.2,3.2-33.6,7.9c-14.3,6.4-22.1,23.2-20,37.5
				c2.9,18.2,13.2,30.3,31.1,34.3c11.1,2.5,22.1,3.6,33.9,5c0,3.2,0,6.8,0,11.4c-18.6,0.4-36.1-1.8-52.5-11.1
				c-20-10.7-29.3-26.8-27.8-49.3c0.7-12.1,6.8-21.8,15-29.6C1640.6,1323.4,1662.4,1319.8,1685.6,1320.1z"/>
		</g>
		<g>
			<path class="st0" d="M2313.2,1285.5c0,6.8,0,13.9,0,21.1c0,37.8,0,76,0.4,113.9c0,6.4-1.1,9.3-8.6,9.3c-7.5,0-8.2-3.6-8.2-9.3
				c0-42.5,0-85,0-127.4C2297.1,1283.7,2299.2,1282.7,2313.2,1285.5z"/>
		</g>
		<g>
			<path class="st0" d="M1416.7,1428.7c0-36.1,0-71.4,0-108.5c5,0.7,10.7-0.4,13.6,2.1c2.5,2.1,1.8,8.2,2.5,13.9
				c14.6-6.4,28.6-12.1,42.5-18.2c4.3,12.5,3.9,12.5-6.8,16.8c-9.3,3.6-18.2,7.9-27.5,11.1c-7.5,2.5-10,7.1-9.6,14.6
				c0.4,18.6,0.4,37.1,0.7,55.7C1432.5,1430.4,1432.8,1430.8,1416.7,1428.7z"/>
		</g>
		<g>
			<path class="st0" d="M1080.5,1320.5c4.3,0,7.9,0,12.5,0c0.4,5,1.1,9.6,1.4,15.7c11.4-5,22.1-10.4,33.2-14.6c2.9-1.1,7.9-1.8,10,0
				c5,3.2,2.5,9.6-3.6,12.1c-11.1,4.3-22.1,8.6-33.2,12.9c-5.4,2.1-7.1,5.7-7.1,11.8c0.4,21.4,0,42.8,0.4,64.3c0,5-1.4,7.5-6.8,7.1
				c-4.3-0.4-7.9,0-7.9-6.1c0-32.8,0-65.7,0-98.5C1079.4,1323.7,1079.7,1322.3,1080.5,1320.5z"/>
		</g>
		<g>
			<path class="st0" d="M1736.3,1374.8c0,15.4-0.4,30.7,0,46.1c0,6.1-1.4,8.6-8.2,8.6s-7.1-3.6-7.1-8.6c0-31.1,0.4-62.1,0-93.2
				c0-5.7,1.8-7.9,7.9-7.9c6.1,0,7.9,2.1,7.9,7.9C1736.3,1343.7,1736.3,1359.1,1736.3,1374.8L1736.3,1374.8z"/>
		</g>
		<g>
			<path class="st0" d="M1812.6,1304.4c-6.4-5.7-5-9.6,1.4-12.9c9.6-5.4,18.9-11.1,28.6-16.4c9.3-5.7,9.3-5.7,15,5.4
				C1842.6,1288.4,1827.6,1296.2,1812.6,1304.4z"/>
		</g>
		<g>
			<path class="st0" d="M1737.3,1280.2c0,5.4,0,10,0,15.4c-5.4,0-10.4,0-15.7,0C1718.8,1279.8,1719.8,1278.4,1737.3,1280.2z"/>
		</g>
	</g>
	<g>
		<path class="st0" d="M1411.4,846.1c0-132.8,0-274.2,0-407c0-12.1,0-12.1,12.1-12.1c57.8,0,116-0.7,173.9,0.4
			c45,0.7,87.1,13.2,123.2,40.7c23.9,17.8,40,41.4,46.8,71c5.7,23.9,5.7,48.6,1.8,72.1c-5.7,36.4-28.6,63.2-59.3,82.5
			c-23.9,15.4-50.3,24.6-78.2,30.3c-8.6,1.8-16.8,3.6-25.3,5c-0.4,0.7-0.7,1.4-1.1,2.5c7.1,5.4,13.9,11.1,21.4,15.4
			c28.2,16.8,58.2,29.6,88.9,40.3c16.1,5.4,32.5,10.4,48.6,16.1c2.1,0.7,5.4,3.9,5.4,6.4c0.4,13.2,0.4,26.8,0.4,42.5
			c-23.9-6.4-47.1-11.4-69.3-18.6c-53.2-17.5-103.5-41.4-148.9-74.6c-20-14.6-39.3-30.7-58.2-46.8c-2.9-2.5-5-7.5-5-11.8
			c-0.7-10-0.4-20-0.4-30c13.6,3.9,25.7,8.9,38.2,11.4c31.1,6.4,62.1,6.1,93.5,2.1c18.6-2.1,35.3-8.2,49.6-20
			c20.3-16.8,31.1-39.3,36.8-64.3c12.5-53.9-15-94.6-60.3-117.5c-19.3-9.6-39.3-15-61.4-14.3c-35.7,1.1-71.4,0.4-107.1,0.4
			c-11.8,0-11.8,0-11.8,11.4c0,120.7,0,256.3,0,377L1411.4,846.1z"/>
	</g>
</g>
<g>
	<rect x="66.6" y="1150.2" class="st1" width="3247.9" height="14.3"/>
</g>
</svg>
