<?xml version="1.0" encoding="utf-8"?>
<!-- Generator: Adobe Illustrator 22.0.1, SVG Export Plug-In . SVG Version: 6.00 Build 0)  -->
<svg version="1.1" id="Capa_1" xmlns="http://www.w3.org/2000/svg" xmlns:xlink="http://www.w3.org/1999/xlink" x="0px" y="0px"
	 viewBox="0 0 1000 1000" style="enable-background:new 0 0 1000 1000;" xml:space="preserve">
<style type="text/css">
	.st0{fill:#F15223;}
</style>
<g>
	<path class="st0" d="M993.2,226.1l-176-189.3L641.1,226.1c-8.8,9.5-8.3,24.4,1.2,33.2c9.5,8.9,24.4,8.3,33.2-1.2L793.7,131v428.9
		c0,28.8-6.4,232.6-181.2,319.4c48.3-48.8,78.2-115.9,78.2-189.9c0-149-121.2-270.2-270.2-270.2c-149,0-270.2,121.2-270.2,270.2
		c0,75.1,30.9,143.1,80.5,192.1C58.4,799.9,47.5,606.7,47.5,559.9V58.3c0-13-10.5-23.5-23.5-23.5S0.5,45.3,0.5,58.3v501.6
		c0,30.5,4.6,137.3,63.6,233.2c48.3,78.5,148.4,172.1,350.7,172.1h11.5c327,0,414.3-254.8,414.3-405.3v-429l118.2,127.2
		c8.8,9.5,23.7,10.1,33.2,1.2C1001.5,250.4,1002,235.6,993.2,226.1z M420.6,912.6c-123.1,0-223.2-100.1-223.2-223.2
		s100.1-223.2,223.2-223.2s223.2,100.1,223.2,223.2S543.6,912.6,420.6,912.6z"/>
	<path class="st0" d="M450.3,669.9c-24.7,0-42.2-5.3-50.7-15.2c-8.5-10-6.5-23-6.5-23.2c0.5-2.7,0.6-5.4,0.2-8.1
		c0-0.1-1.4-13.6,5.7-21.9c5.3-6.1,15.1-9.3,29.3-9.3c26,0,35.3,12,35.3,45.7c0,4.1,0,7,0.9,10.5c3.2,12.6,16,20.2,28.5,17.1
		c11.6-2.9,19-14,17.6-25.5l0-2c0-62.6-32.2-83.4-58.7-89.9v-25.5c0-13-10.5-23.5-23.5-23.5s-23.5,10.5-23.5,23.5v25.2
		c-17.2,3.6-31.2,11.2-41.5,23.1c-17.6,20.5-17.7,45.7-17,55.7c-1.1,10-1.7,35.5,16.6,57.7c17.9,21.7,47.2,32.7,87.2,32.7
		c16.7,0,17.2,18.9,17.2,21.1c0,4.2-0.9,12.3-7.2,18.8c-5.8,6-14.7,9.1-26.5,9.1c-12.1,0-28-1.8-35.3-10.6c-6.7-8-4.7-20.1-4.7-20.1
		s0,0,0,0c2.7-12.7-5.5-25.1-18.2-27.8c-12.6-2.6-25.1,5.5-27.8,18.2c-0.7,3.4-6.4,34,14,59.1c10.2,12.6,24.8,20.6,43,24.7v21
		c0,13,10.5,23.5,23.5,23.5s23.5-10.5,23.5-23.5v-19.3c20.6-3.7,34.1-13.4,42.3-21.8c13.1-13.6,20.3-31.9,20.3-51.4
		C514.5,699.2,486.9,669.9,450.3,669.9z"/>
</g>
</svg>
