<?xml version="1.0" encoding="utf-8"?>
<!-- Generator: Adobe Illustrator 22.0.1, SVG Export Plug-In . SVG Version: 6.00 Build 0)  -->
<svg version="1.1" id="Capa_1" xmlns="http://www.w3.org/2000/svg" xmlns:xlink="http://www.w3.org/1999/xlink" x="0px" y="0px"
	 viewBox="0 0 1000 1000" style="enable-background:new 0 0 1000 1000;" xml:space="preserve">
<style type="text/css">
	.st0{fill:#F15223;}
</style>
<g>
	<path class="st0" d="M974.3,98.4h-842c-13.9,0-25.2,11.2-25.2,25.2v136.3c0,0.5-0.1,1-0.1,1.5c0,0.5,0.1,1,0.1,1.5v83.9H25.7
		c-13.9,0-25.2,11.2-25.2,25.2v504.5c0,13.9,11.2,25.2,25.2,25.2h846c13.9,0,25.2-11.2,25.2-25.2v-50.5h77.5
		c13.9,0,25.2-11.2,25.2-25.2V123.6C999.5,109.6,988.3,98.4,974.3,98.4z M949.2,148.7v87.4H157.5v-87.4H949.2z M846.5,851.3H50.8
		V397.1h56.4v403.7c0,13.9,11.2,25.2,25.2,25.2h714.1V851.3z M896.8,775.6h-50.3H157.5V397.1v-50.3v-60.2h791.6v489.1H896.8z"/>
	<path class="st0" d="M184.8,216.8c9.3,0,16.8-7.5,16.8-16.8c0-9.3-7.5-16.8-16.8-16.8S168,190.7,168,200
		C168,209.3,175.6,216.8,184.8,216.8z"/>
	<path class="st0" d="M248.2,216.8c9.3,0,16.8-7.5,16.8-16.8c0-9.3-7.5-16.8-16.8-16.8c-9.3,0-16.8,7.5-16.8,16.8
		C231.4,209.3,239,216.8,248.2,216.8z"/>
	<path class="st0" d="M311.9,216.8c9.3,0,16.8-7.5,16.8-16.8c0-9.3-7.5-16.8-16.8-16.8c-9.3,0-16.8,7.5-16.8,16.8
		C295,209.3,302.6,216.8,311.9,216.8z"/>
	<path class="st0" d="M896.8,654.8c-3.7-2.3-8.2-3.7-12.9-3.7h-37.4H230.4c-13.9,0-25.2,11.2-25.2,25.2c0,13.9,11.2,25.2,25.2,25.2
		h616.1h37.4c4.7,0,9.2-1.3,12.9-3.7c7.4-4.4,12.2-12.2,12.2-21.5S904.2,659.1,896.8,654.8z"/>
	<path class="st0" d="M266.7,624.4c13.9,0,25.2-11.3,25.2-25.2v-64.4c0-13.9-11.3-25.2-25.2-25.2c-13.9,0-25.2,11.3-25.2,25.2v64.4
		C241.6,613.1,252.8,624.4,266.7,624.4z"/>
	<path class="st0" d="M364,624.4c13.9,0,25.2-11.3,25.2-25.2V472.4c0-13.9-11.3-25.2-25.2-25.2s-25.2,11.3-25.2,25.2v126.8
		C338.9,613.1,350.1,624.4,364,624.4z"/>
	<path class="st0" d="M461.4,624.4c13.9,0,25.2-11.3,25.2-25.2v-96.8c0-13.9-11.3-25.2-25.2-25.2c-13.9,0-25.2,11.3-25.2,25.2v96.8
		C436.2,613.1,447.5,624.4,461.4,624.4z"/>
	<path class="st0" d="M558.7,624.4c13.9,0,25.2-11.2,25.2-25.2V397.1V357c0-3.7-0.8-7-2.4-10.2c-3.7-8.7-12.6-14.9-22.8-14.9
		c-10.2,0-19.1,6.2-22.8,14.9c-1.5,3.2-2.3,6.5-2.3,10.2v40.1v202.2C533.6,613.2,544.8,624.4,558.7,624.4z"/>
	<path class="st0" d="M656,624.4c13.9,0,25.2-11.3,25.2-25.2V429.6c0-13.9-11.3-25.2-25.2-25.2c-13.9,0-25.2,11.3-25.2,25.2v169.6
		C630.8,613.1,642.1,624.4,656,624.4z"/>
	<path class="st0" d="M753.3,624.4c13.9,0,25.2-11.3,25.2-25.2v-64.4c0-13.9-11.3-25.2-25.2-25.2c-13.9,0-25.2,11.3-25.2,25.2v64.4
		C728.2,613.1,739.4,624.4,753.3,624.4z"/>
	<path class="st0" d="M846.5,624.1c1.3,0.2,2.7,0.3,4.2,0.3c13.9,0,25.2-11.2,25.2-25.2V418c0-13.9-11.2-25.2-25.2-25.2
		c-5,0-9.9,1.5-13.8,4.2c-6.9,4.4-11.4,12.1-11.4,21v181.2C825.5,611.7,834.6,622.1,846.5,624.1z"/>
</g>
</svg>
