<?xml version="1.0" encoding="utf-8"?>
<!-- Generator: Adobe Illustrator 22.0.1, SVG Export Plug-In . SVG Version: 6.00 Build 0)  -->
<svg version="1.1" id="Capa_1" xmlns="http://www.w3.org/2000/svg" xmlns:xlink="http://www.w3.org/1999/xlink" x="0px" y="0px"
	 viewBox="0 0 1000 1000" style="enable-background:new 0 0 1000 1000;" xml:space="preserve">
<style type="text/css">
	.st0{fill:#FFFFFF;}
</style>
<path class="st0" d="M996.8,696.2v-69.4l-38.6-10.2c-18-5.2-30.9-18-36.1-33.6c-5-10.4-10.2-23.2-15.3-36.1
	c-7.7-15.3-7.7-33.4,0-48.9l20.5-33.4l-46.2-46.4l-33.6,20.7c-15.3,10.2-33.4,10.2-48.9,2.5c-10.2-5.2-23-10.2-35.9-15.3
	c-18-5.2-28.4-18-33.6-33.6L718.8,354H710v-168c0-0.8-0.2-1.5-0.2-2.3c1.3-5.3,2-10.8,2-16.5c0-91.2-178.9-138.9-355.6-138.9
	S0.5,76,0.5,167.2c0,3.9,0.5,7.8,1.1,11.5c-0.6,2.3-1.1,4.7-1.1,7.2v543.4c0,0,0,0.1,0,0.1c0,91.2,178.9,138.9,355.6,138.9
	c33.9,0,67.3-2,99.5-5.4l42.1,41.9l33.4-20.5c15.5-7.7,33.4-7.7,48.9,0c10.4,5.2,23.2,10.2,36.1,15.3c18,5.2,28.2,18,33.4,33.6
	l10.4,38.6H724l12.9-33.4c5.2-18,18-30.9,33.6-36.1c12.9-5.2,25.7-10.4,36.1-15.5c15.3-10.2,33.4-7.7,48.9,0l33.4,20.7L935,861
	l-20.5-33.4c-10.4-15.5-10.4-33.6-2.5-48.9c7.7-12.9,12.9-25.7,15.3-38.8c5.2-17.8,18-28.2,33.6-33.4l38.6-10.4H996.8z M356.2,81.9
	c181.6,0,302.1,51.3,302.1,85.3s-120.5,85.3-302.1,85.3S54.1,201.1,54.1,167.2S174.6,81.9,356.2,81.9z M525.8,444.1l-33.4-20.7
	L446,469.8l20.7,33.4c7.7,15.5,10.2,30.9,2.5,46.4v2.5c-7.7,10.4-12.9,23.2-15.3,36.1c-4.6,16-15.3,25.9-28.6,31.5
	c-1.4,0.6-3.3,1.2-5,1.9l-36.1,10.4v2.5c0,2.7,0,7.9-2.5,10.4v51.4l38.6,10.4c18,5.2,30.9,18,36.1,33.4
	c5.2,10.4,10.4,23.2,15.3,36.1c4.9,9.6,6.4,20.2,5.2,30.5c-4.6,0.7-9.4,1.4-14.6,2c-34.2,4.1-69.9,6.2-106.2,6.2
	c-181.5,0-301.9-51.3-302-85.3c0,0,0,0,0,0v-99.3c40.3,24.5,112.8,49.2,240.9,49.2c14.8,0,26.8-12,26.8-26.8
	c0-14.8-12-26.8-26.8-26.8c-198.8,0-238.5-62.2-240.2-65c-0.2-0.4-0.5-0.8-0.8-1.2v-88.2c47.6,25.9,140.7,54.9,319.1,54.9
	c14.8,0,26.8-12,26.8-26.8c0-14.8-12-26.8-26.8-26.8c-251.5,0-312-58.8-319.1-66.8V244c66.2,40.9,184.6,62,302.1,62
	c116.4,0,233.7-20.7,300.2-60.9V354h-1.8l-10.4,38.6c-5,18-18,30.9-33.4,36.1c-12.9,5.2-23.2,10.4-36.1,15.5
	C559.4,451.8,541.4,451.8,525.8,444.1z M690.6,808.8c-34,0-65.5-11.8-90.5-31.4c-33.7-26.5-55.5-67.7-55.5-114.6
	c0-8.8,0.8-17.4,2.4-25.9c12.1-67.7,70.9-120.1,143.6-120.1c81.7,0,148,66.2,146,146C836.6,742.6,772.3,808.8,690.6,808.8z"/>
</svg>
