<?xml version="1.0" encoding="utf-8"?>
<!-- Generator: Adobe Illustrator 22.0.1, SVG Export Plug-In . SVG Version: 6.00 Build 0)  -->
<svg version="1.1" id="Capa_1" xmlns="http://www.w3.org/2000/svg" xmlns:xlink="http://www.w3.org/1999/xlink" x="0px" y="0px"
	 viewBox="0 0 1000 1000" style="enable-background:new 0 0 1000 1000;" xml:space="preserve">
<style type="text/css">
	.st0{fill:#F15223;}
</style>
<path class="st0" d="M897.3,392.9c-39.2-136.1-146.7-243.5-283-282.7C610.5,49,559.5,0.5,497.5,0.5c-62.8,0-113.9,49.3-116.8,111.3
	c-132.4,39.8-237.1,144.5-276.9,277.1C49.7,399,8.3,446.6,8.3,503.9c0,56.5,40.3,103.6,93.3,114.7
	C139.6,755.5,246.5,864,382.5,904.4h0.2c10.1,54.2,57.8,95.1,114.9,95.1c56.5,0,103.8-40.3,114.7-93.7
	c137.2-38.6,245.5-146.4,285-283.2c53.9-10.6,94.4-58.1,94.4-114.9C991.7,451,951.1,403.5,897.3,392.9z M497.5,47.3
	c32.5,0,59.8,22.2,67.7,52.1c1.7,5.8,2.5,11.9,2.5,18.1c0,10.3-2.2,20-6.2,28.7c-10.9,24.5-35.6,41.5-64,41.5
	c-28.3,0-52.6-16.7-63.7-40.7c-4.2-8.9-6.6-18.9-6.6-29.5c0-5.9,0.8-11.7,2.2-17.2C437.1,70,464.6,47.3,497.5,47.3z M90.4,564.6
	c-21.1-12-35.3-34.8-35.3-60.7c0-26.5,14.8-49.6,36.5-61.5c10-5.6,21.5-8.7,33.7-8.7c5.2,0,10.1,0.6,15,1.6
	c31.5,6.9,55.3,35.1,55.3,68.7c0,34-24.4,62.6-56.5,68.8v0.2c-4.5,0.8-9.1,1.2-13.7,1.2C112.6,574.1,100.7,570.7,90.4,564.6z
	 M497.5,952.7c-26.5,0-49.5-14.7-61.3-36.2H436c-5.6-10.1-8.7-21.7-8.7-34c0-5.2,0.5-10,1.6-14.8c6.9-31.7,35-55.4,68.7-55.4
	c33.9,0,62.3,24.2,68.8,56.3c0.9,4.4,1.4,9.1,1.4,13.9c0,12.6-3.4,24.5-9.4,34.8C546.4,938.5,523.6,952.7,497.5,952.7z M380.4,621
	V386.8h60.5l55.6,55.6c4.4,4.4,10.3,6.9,16.6,6.9h101.5V621H380.4z M611.8,857.1c-9.8-44.8-45.4-79.9-90.2-89.3V667.8h116.3
	c12.9,0,23.4-10.5,23.4-23.4V425.9c0-12.9-10.5-23.4-23.4-23.4H522.8l-55.6-55.6c-4.4-4.4-10.3-6.9-16.6-6.9H357
	c-12.9,0-23.4,10.5-23.4,23.4v281c0,12.9,10.5,23.4,23.4,23.4h117.8v99.7c0,0,0,0-0.1,0c-45,8.9-80.7,43.6-91,88
	c-110.8-37-198.2-125.7-233.5-237.3c52.8-11.4,92.3-58.4,92.3-114.4c0-55.3-38.2-101.5-89.8-113.8c37-109.6,124.7-196.1,235.2-231.5
	c16.5,44.5,59.5,76,109.6,76c50.6,0,94-32.3,110-77.6c113.8,35,204.2,123.8,241,236.6c-52,11.9-91,58.5-91,114.1s39,102.2,91,114.1
	C812.2,733.4,723.5,821.4,611.8,857.1z M909,569c-10.1,5.8-21.9,9.1-34.3,9.1c-4.8,0-9.7-0.5-14.4-1.4c-31.8-6.7-55.9-35-55.9-68.8
	c0-33.9,24-62.1,55.9-68.8c4.7-0.9,9.5-1.4,14.4-1.4c12.5,0,24.2,3.3,34.3,9.1c21.4,12,35.9,35,35.9,61.2S930.4,557,909,569z"/>
</svg>
