<?xml version="1.0" encoding="utf-8"?>
<!-- Generator: Adobe Illustrator 22.0.1, SVG Export Plug-In . SVG Version: 6.00 Build 0)  -->
<svg version="1.1" id="Capa_1" xmlns="http://www.w3.org/2000/svg" xmlns:xlink="http://www.w3.org/1999/xlink" x="0px" y="0px"
	 viewBox="0 0 1000 1000" style="enable-background:new 0 0 1000 1000;" xml:space="preserve">
<style type="text/css">
	.st0{fill:#FFFFFF;}
</style>
<g>
	<path class="st0" d="M967.1,0.5H137.8c-15.3,0-27.6,12.3-27.6,27.6v135.5c0,0,0,0.1,0,0.1s0,0.1,0,0.1V245H33
		c-15.3,0-27.6,12.5-27.6,27.6v496.8c0,0.6,0,1.2,0.2,1.7c-0.1,0.7-0.2,1.4-0.2,2.1v106.1c0,15.2,12.3,27.6,27.6,27.6h256.8v37.4
		H177.2c-15.2,0-27.6,12.3-27.6,27.6s12.3,27.6,27.6,27.6h544.5c15.2,0,27.6-12.3,27.6-27.6s-12.3-27.6-27.6-27.6H609.1v-37.4h256.8
		c15.2,0,27.6-12.3,27.6-27.6V773.2c0-0.7-0.2-1.4-0.2-2.1c0.1-0.5,0.2-1.1,0.2-1.7v-46.9h73.6c15.3,0,27.6-12.3,27.6-27.6V28.1
		C994.7,12.8,982.3,0.5,967.1,0.5z M939.5,55.7v80.5h-774V55.7H939.5z M553.9,942h-209v-35.2h209V942z M838.4,851.7H588.5
		c-2.2-0.6-4.5-1-6.9-1H317.3c-2.4,0-4.7,0.4-6.9,1H60.5v-50.9h777.8V851.7z M838.3,741.8H60.6V300.1h49.7v394.7
		c0,15.3,12.3,27.6,27.6,27.6h700.5V741.8z M893.5,667.3h-55.2H165.4V300.1V245v-53.6h774v476H893.5z"/>
	<circle class="st0" cx="189.6" cy="103.3" r="16.6"/>
	<circle class="st0" cx="252" cy="103.3" r="16.6"/>
	<circle class="st0" cx="314.7" cy="103.3" r="16.6"/>
	<path class="st0" d="M877.9,544.7H234.4c-15.2,0-27.6,12.3-27.6,27.6c0,15.2,12.3,27.6,27.6,27.6h643.5c15.2,0,27.6-12.3,27.6-27.6
		C905.5,557,893.2,544.7,877.9,544.7z"/>
	<path class="st0" d="M270.2,524c15.2,0,27.6-12.3,27.6-27.6v-63.4c0-15.2-12.3-27.6-27.6-27.6c-15.2,0-27.6,12.3-27.6,27.6v63.4
		C242.6,511.7,255,524,270.2,524z"/>
	<path class="st0" d="M366.1,524c15.2,0,27.6-12.3,27.6-27.6V371.6c0-15.2-12.3-27.6-27.6-27.6c-15.2,0-27.6,12.3-27.6,27.6v124.9
		C338.5,511.7,350.8,524,366.1,524z"/>
	<path class="st0" d="M461.9,524c15.2,0,27.6-12.3,27.6-27.6v-95.3c0-15.2-12.3-27.6-27.6-27.6c-15.2,0-27.6,12.3-27.6,27.6v95.3
		C434.3,511.7,446.6,524,461.9,524z"/>
	<path class="st0" d="M557.7,524c15.2,0,27.6-12.3,27.6-27.6V257.9c0-15.2-12.3-27.6-27.6-27.6s-27.6,12.3-27.6,27.6v238.6
		C530.1,511.7,542.5,524,557.7,524z"/>
	<path class="st0" d="M653.5,524c15.2,0,27.6-12.3,27.6-27.6v-167c0-15.2-12.3-27.6-27.6-27.6c-15.2,0-27.6,12.3-27.6,27.6v167
		C625.9,511.7,638.3,524,653.5,524z"/>
	<path class="st0" d="M749.4,524c15.2,0,27.6-12.3,27.6-27.6v-63.4c0-15.2-12.3-27.6-27.6-27.6s-27.6,12.3-27.6,27.6v63.4
		C721.8,511.7,734.1,524,749.4,524z"/>
	<path class="st0" d="M845.2,524c15.2,0,27.6-12.3,27.6-27.6V318c0-15.2-12.3-27.6-27.6-27.6s-27.6,12.3-27.6,27.6v178.5
		C817.6,511.7,829.9,524,845.2,524z"/>
</g>
</svg>
