<?xml version="1.0" encoding="utf-8"?>
<!-- Generator: Adobe Illustrator 22.0.1, SVG Export Plug-In . SVG Version: 6.00 Build 0)  -->
<svg version="1.1" id="Capa_1" xmlns="http://www.w3.org/2000/svg" xmlns:xlink="http://www.w3.org/1999/xlink" x="0px" y="0px"
	 viewBox="0 0 1000 1000" style="enable-background:new 0 0 1000 1000;" xml:space="preserve">
<style type="text/css">
	.st0{fill:#F15223;}
</style>
<path class="st0" d="M993.9,400.4L887.7,279.1l-0.9-1.1l-0.5-0.6c-0.2-0.2-0.2-0.2-0.3-0.3c-0.9-0.9-1.8-1.8-2.9-2.8
	c-1.2-0.9-2.5-1.7-3.7-2.2c-0.8-0.5-1.5-0.9-2.3-1.1c-0.5-0.3-0.8-0.5-1.1-0.5c-0.8-0.3-1.4-0.5-2.2-0.8L507.3,147.7
	c-4.8-1.5-9.8-1.5-14.6,0L126.1,269.9l-2.3,0.8v0.2c-0.8,0.2-1.5,0.5-2.3,0.9c-0.8,0.2-1.2,0.5-1.8,0.8c-0.8,0.5-1.4,0.9-2.2,1.5
	c-0.2,0-0.5,0.2-0.6,0.3c-1.2,0.9-2.2,1.8-3.1,3.1l-1.1,1.2l-0.6,0.6L6.3,400.4c-5.4,6-7.1,14.3-4.8,22c2.5,7.7,8.8,13.5,16.4,15.5
	l90.2,22.6v247c0,10,6.3,18.8,15.7,22l368.8,122.9c0.2,0,0.2,0,0.3,0c2.3,0.8,4.8,1.1,7.1,1.1c2.3,0,4.8-0.3,6.9-1.1
	c0.2,0,0.2,0,0.3,0l368.8-122.9c9.4-3.2,15.8-12,15.8-22V465.2l91.1-27.7c7.5-2.3,13.4-8.3,15.5-15.7
	C1000.8,414.4,998.9,406.2,993.9,400.4z M500.1,193.8l286.5,95.6L500.1,361l-286.5-71.6L500.1,193.8z M65.7,402.2l42.4-48.4l31-35.5
	l15.1,3.8l303.5,75.8L384.3,482l-230.1-57.6l-46.1-11.5L65.7,402.2z M154.3,472l232.5,58.1c1.8,0.5,3.8,0.6,5.7,0.6
	c6.5,0,12.9-2.8,17.4-7.8l67.2-76.7v352.2L154.3,690.8V472z M845.9,690.8L523.1,798.4v-353l82.7,93c4.3,5.1,10.8,7.7,17.2,7.7
	c2.2,0,4.5-0.3,6.6-0.9l216.2-65.8V690.8z M892,417.1l-46.1,14l-215.5,65.6l-87.9-98.8l303.4-75.8V322l14.9-3.7L892,354l43.6,49.8
	L892,417.1z"/>
</svg>
