<?xml version="1.0" encoding="utf-8"?>
<!-- Generator: Adobe Illustrator 22.0.1, SVG Export Plug-In . SVG Version: 6.00 Build 0)  -->
<svg version="1.1" id="Capa_1" xmlns="http://www.w3.org/2000/svg" xmlns:xlink="http://www.w3.org/1999/xlink" x="0px" y="0px"
	 viewBox="0 0 1000 1000" style="enable-background:new 0 0 1000 1000;" xml:space="preserve">
<style type="text/css">
	.st0{fill:#F15223;}
</style>
<g>
	<path class="st0" d="M972.9,255.9H509.4l2-159.4c0.1-7.1-2.7-14-7.7-19c-5-5.1-11.8-7.9-18.9-7.9H165.3
		c-14.7,0-26.6,11.9-26.6,26.6v113.2l-7.9,7.9C113.2,228.9,23.9,292.4,4.3,399c-13.5,73.7,9.2,149.8,67.5,226.4
		c4.7,8.5,12.8,19,23.7,28.1l-13,58.4l169.9-42.5L125,520.7l-14.8,66.7C64.6,525.5,46.4,465.5,56.6,409
		c11.3-62.4,54.7-107.8,82-130.9v137.5c0,14.7,11.9,26.6,26.6,26.6H325v461.5c0,14.7,11.9,26.6,26.6,26.6h621.2
		c14.7,0,26.6-11.9,26.6-26.6V282.6C999.5,267.9,987.6,255.9,972.9,255.9z M191.9,389.1V122.8h265.9l-1.6,131.5l-98.1,1.6h-6.4
		c-14.7,0-26.6,11.9-26.6,26.6v106.5H191.9z M946.3,877.2h-568v-456c0.3-1.5,0.6-3.1,0.6-4.7l3.3-107.3h564.1V877.2z"/>
	<path class="st0" d="M519.2,594.3l88.7,88.7c5.2,5.2,12,7.8,18.8,7.8c6.8,0,13.6-2.6,18.8-7.8l168.6-168.6
		c10.4-10.4,10.4-27.2,0-37.6c-10.4-10.4-27.2-10.4-37.6,0L626.8,626.5l-69.9-69.9c-10.4-10.4-27.2-10.4-37.6,0
		C508.8,567,508.8,583.9,519.2,594.3z"/>
</g>
</svg>
