<?xml version="1.0" encoding="utf-8"?>
<!-- Generator: Adobe Illustrator 22.0.1, SVG Export Plug-In . SVG Version: 6.00 Build 0)  -->
<svg version="1.1" id="Capa_1" xmlns="http://www.w3.org/2000/svg" xmlns:xlink="http://www.w3.org/1999/xlink" x="0px" y="0px"
	 viewBox="0 0 1000 1000" style="enable-background:new 0 0 1000 1000;" xml:space="preserve">
<style type="text/css">
	.st0{fill:#FFFFFF;}
</style>
<g>
	<path class="st0" d="M940.5,0.5H265.7c-15.3,0-27.6,12.3-27.6,27.6v418.5H59.5c-15.3,0-27.6,12.5-27.6,27.6v211.4
		c0,15.1,12.3,27.6,27.6,27.6h178.6v20.1H59.5c-15.3,0-27.6,12.3-27.6,27.6v211.2c0,15.3,12.3,27.6,27.6,27.6h555
		c15.3,0,27.6-12.3,27.6-27.6v-82.6h298.5c15.3,0,27.6-12.3,27.6-27.6V28.1C968.1,12.8,955.8,0.5,940.5,0.5z M87,657.9V501.7h151
		h55.2h293.6v156.2H293.2h-55.2H87z M586.8,944.3H87v-156h151h55.2h293.6v45.8v55.2V944.3z M913,834.1H642v-73.4
		c0-15.3-12.3-27.6-27.6-27.6H293.2v-20.1h321.2c15.3,0,27.6-12.5,27.6-27.6V474.2c0-15.1-12.3-27.6-27.6-27.6H293.2V55.7H913V834.1
		z"/>
	<path class="st0" d="M374,388.7h472.6c15.2,0,27.6-12.3,27.6-27.6s-12.3-27.6-27.6-27.6H374c-15.2,0-27.6,12.3-27.6,27.6
		S358.8,388.7,374,388.7z"/>
	<path class="st0" d="M427.3,316.4c15.2,0,27.6-12.3,27.6-27.6v-37c0-15.2-12.3-27.6-27.6-27.6s-27.6,12.3-27.6,27.6v37
		C399.7,304.1,412,316.4,427.3,316.4z"/>
	<path class="st0" d="M522.2,316.4c15.2,0,27.6-12.3,27.6-27.6v-91.5c0-15.2-12.3-27.6-27.6-27.6c-15.2,0-27.6,12.3-27.6,27.6v91.5
		C494.6,304.1,506.9,316.4,522.2,316.4z"/>
	<path class="st0" d="M617.1,316.4c15.2,0,27.6-12.3,27.6-27.6V142.4c0-15.2-12.3-27.6-27.6-27.6c-15.2,0-27.6,12.3-27.6,27.6v146.5
		C589.5,304.1,601.8,316.4,617.1,316.4z"/>
	<path class="st0" d="M712,316.4c15.2,0,27.6-12.3,27.6-27.6V178.4c0-15.2-12.3-27.6-27.6-27.6c-15.2,0-27.6,12.3-27.6,27.6v110.5
		C684.4,304.1,696.7,316.4,712,316.4z"/>
	<path class="st0" d="M806.8,316.4c15.2,0,27.6-12.3,27.6-27.6v-56.2c0-15.2-12.3-27.6-27.6-27.6c-15.2,0-27.6,12.3-27.6,27.6v56.2
		C779.3,304.1,791.6,316.4,806.8,316.4z"/>
	<path class="st0" d="M841.4,469.4H715.2c-15.2,0-27.6,12.3-27.6,27.6c0,15.2,12.3,27.6,27.6,27.6h126.2c15.2,0,27.6-12.3,27.6-27.6
		C868.9,481.8,856.6,469.4,841.4,469.4z"/>
	<path class="st0" d="M715.2,606.9h101.6c15.2,0,27.6-12.3,27.6-27.6c0-15.2-12.3-27.6-27.6-27.6H715.2c-15.2,0-27.6,12.3-27.6,27.6
		C687.6,594.6,700,606.9,715.2,606.9z"/>
	<path class="st0" d="M841.4,634.1H715.2c-15.2,0-27.6,12.3-27.6,27.6c0,15.2,12.3,27.6,27.6,27.6h126.2c15.2,0,27.6-12.3,27.6-27.6
		C868.9,646.4,856.6,634.1,841.4,634.1z"/>
	<path class="st0" d="M816.7,716.4H715.2c-15.2,0-27.6,12.3-27.6,27.6c0,15.2,12.3,27.6,27.6,27.6h101.6c15.2,0,27.6-12.3,27.6-27.6
		C844.3,728.7,832,716.4,816.7,716.4z"/>
	<path class="st0" d="M482.3,595.3c5.7,3.3,12.9,1.3,16.1-4.3c3.3-5.6,1.3-12.9-4.3-16.1c-5.6-3.3-12.9-1.3-16.1,4.3
		C474.8,584.8,476.7,592.1,482.3,595.3z"/>
	<path class="st0" d="M426,595.3c5.7,3.3,12.9,1.3,16.1-4.3c3.3-5.6,1.3-12.9-4.3-16.1c-5.6-3.3-12.9-1.3-16.1,4.3
		C418.4,584.8,420.4,592.1,426,595.3z"/>
	<path class="st0" d="M533.9,595.3c5.7,3.3,12.9,1.3,16.1-4.3c3.3-5.6,1.3-12.9-4.3-16.1c-5.7-3.3-12.9-1.3-16.1,4.3
		C526.3,584.8,528.3,592.1,533.9,595.3z"/>
	<path class="st0" d="M175.6,517.1c-15.2,0-27.6,12.3-27.6,27.6V609c0,15.2,12.3,27.6,27.6,27.6c15.2,0,27.6-12.3,27.6-27.6v-64.3
		C203.2,529.4,190.8,517.1,175.6,517.1z"/>
	<path class="st0" d="M175.6,806.8c-15.2,0-27.6,12.3-27.6,27.6v64.3c0,15.2,12.3,27.6,27.6,27.6c15.2,0,27.6-12.3,27.6-27.6v-64.3
		C203.2,819.2,190.8,806.8,175.6,806.8z"/>
</g>
</svg>
