<?xml version="1.0" encoding="utf-8"?>
<!-- Generator: Adobe Illustrator 22.0.1, SVG Export Plug-In . SVG Version: 6.00 Build 0)  -->
<svg version="1.1" id="Capa_1" xmlns="http://www.w3.org/2000/svg" xmlns:xlink="http://www.w3.org/1999/xlink" x="0px" y="0px"
	 viewBox="0 0 1000 1000" style="enable-background:new 0 0 1000 1000;" xml:space="preserve">
<style type="text/css">
	.st0{fill:#F15223;}
</style>
<g>
	<path class="st0" d="M905.8,274.5c0-0.2-0.1-0.4-0.2-0.6c-0.5-2-1.2-3.8-2.2-5.6c-0.3-0.5-0.5-1-0.9-1.5c-1.2-1.9-2.5-3.8-4.2-5.3
		L627.4,7.4c-2.2-2-4.7-3.5-7.3-4.6c-0.8-0.3-1.6-0.5-2.4-0.8c-2-0.6-4-1-6-1.2c-0.6,0-1.1-0.3-1.6-0.3H119
		c-14,0-25.4,11.4-25.4,25.4v948.2c0,14,11.4,25.4,25.4,25.4H881c14,0,25.4-11.4,25.4-25.4V279.9C906.4,278,906.2,276.2,905.8,274.5
		z M816.8,254.5H634.5l0.7-170.2L816.8,254.5z M144.4,948.7V51.3h440.1l-1,228.5c0,6.7,2.6,13.2,7.4,18c4.8,4.8,11.2,7.5,18,7.5
		h246.6v643.4H144.4z"/>
	<path class="st0" d="M210.7,207.9h297.7c14,0,25.4-11.4,25.4-25.4c0-14-11.4-25.4-25.4-25.4H210.7c-14,0-25.4,11.4-25.4,25.4
		C185.3,196.5,196.7,207.9,210.7,207.9z"/>
	<path class="st0" d="M210.7,318h297.7c14,0,25.4-11.4,25.4-25.4s-11.4-25.4-25.4-25.4H210.7c-14,0-25.4,11.4-25.4,25.4
		S196.7,318,210.7,318z"/>
	<path class="st0" d="M768.1,797.7H210.7c-14,0-25.4,11.4-25.4,25.4s11.4,25.4,25.4,25.4h557.4c14,0,25.4-11.4,25.4-25.4
		S782.1,797.7,768.1,797.7z"/>
	<path class="st0" d="M253.1,629.6v119.7c0,14,11.4,25.4,25.4,25.4c14,0,25.4-11.4,25.4-25.4V629.6c0-14-11.4-25.4-25.4-25.4
		C264.5,604.2,253.1,615.6,253.1,629.6z"/>
	<path class="st0" d="M363,513.4v235.9c0,14,11.4,25.4,25.4,25.4c14,0,25.4-11.4,25.4-25.4V513.4c0-14-11.4-25.4-25.4-25.4
		C374.4,488,363,499.4,363,513.4z"/>
	<path class="st0" d="M470.4,569.3v180c0,14,11.4,25.4,25.4,25.4c14,0,25.4-11.4,25.4-25.4v-180c0-14-11.4-25.4-25.4-25.4
		C481.7,543.9,470.4,555.3,470.4,569.3z"/>
	<path class="st0" d="M603,774.7c14,0,25.4-11.4,25.4-25.4V424.7c0-14-11.4-25.4-25.4-25.4s-25.4,11.4-25.4,25.4v324.6
		C577.7,763.3,589,774.7,603,774.7z"/>
	<path class="st0" d="M712.1,774.7c14,0,25.4-11.4,25.4-25.4V504.6c0-14-11.4-25.4-25.4-25.4s-25.4,11.4-25.4,25.4v244.8
		C686.7,763.3,698.1,774.7,712.1,774.7z"/>
</g>
</svg>
