<?xml version="1.0" encoding="utf-8"?>
<!-- Generator: Adobe Illustrator 22.0.1, SVG Export Plug-In . SVG Version: 6.00 Build 0)  -->
<svg version="1.1" id="Capa_1" xmlns="http://www.w3.org/2000/svg" xmlns:xlink="http://www.w3.org/1999/xlink" x="0px" y="0px"
	 viewBox="0 0 1000 1000" style="enable-background:new 0 0 1000 1000;" xml:space="preserve">
<style type="text/css">
	.st0{fill:#F15223;}
</style>
<path class="st0" d="M716.8,226.7h169.6c15.6,0,28.3-12.7,28.3-28.3V28.8c0-15.6-12.7-28.3-28.3-28.3H716.8
	c-15.6,0-28.3,12.7-28.3,28.3v56.5H255c-15.6,0-28.3,12.7-28.3,28.3v226.2H113.6c-15.6,0-28.3,12.7-28.3,28.3v282.7
	c0,15.6,12.7,28.3,28.3,28.3h113.1v207.3c0,15.6,12.7,28.3,28.3,28.3h433.5v56.5c0,15.6,12.7,28.3,28.3,28.3h169.6
	c15.6,0,28.3-12.7,28.3-28.3V801.6c0-15.6-12.7-28.3-28.3-28.3H716.8c-15.6,0-28.3,12.7-28.3,28.3v56.5H283.2V679.1h113.1
	c15.6,0,28.3-12.7,28.3-28.3V545h263.9v49.3c0,15.6,12.7,28.3,28.3,28.3h169.6c15.6,0,28.3-12.7,28.3-28.3V424.6
	c0-15.6-12.7-28.3-28.3-28.3H716.8c-15.6,0-28.3,12.7-28.3,28.3v63.8H424.6V368.1c0-15.6-12.7-28.3-28.3-28.3H283.2V141.9h405.3
	v56.5C688.5,214,701.1,226.7,716.8,226.7z M745,57h113.1v113.1H745V57z M745,829.9h113.1V943H745V829.9z M745,452.9h113.1V566H745
	V452.9z M368.1,622.5H141.9V396.3h226.2V622.5z"/>
</svg>
