<?xml version="1.0" encoding="utf-8"?>
<!-- Generator: Adobe Illustrator 22.0.1, SVG Export Plug-In . SVG Version: 6.00 Build 0)  -->
<svg version="1.1" id="Capa_1" xmlns="http://www.w3.org/2000/svg" xmlns:xlink="http://www.w3.org/1999/xlink" x="0px" y="0px"
	 viewBox="0 0 2944.1 409.1" style="enable-background:new 0 0 2944.1 409.1;" xml:space="preserve">
<style type="text/css">
	.st0{fill:#040414;}
	.st1{fill:#F05222;}
</style>
<g>
	<g id="Grupo_3" transform="translate(75.766 -10.852)">
		<path id="Trazado_3" class="st0" d="M772.1,49.9h-93.3l0,0h-39.2v348h39.2V89.1h93.3V49.9z"/>
	</g>
	<g id="Grupo_4" transform="translate(137.555 -10.791)">
		<path id="Trazado_4" class="st0" d="M1472.7,358.7H1324V50.5h-39.3v347.4h46.6v-0.1h141.3V358.7z"/>
	</g>
	<g id="Grupo_5" transform="translate(41.113 -10.854)">
		<path id="Trazado_5" class="st0" d="M595.6,397.2l-135-347.4l-31.7,0.6l-16-0.6l-135,347.4l44.7,0.7l114.6-289.1l114.2,288.3
			L595.6,397.2z"/>
	</g>
	<g id="Grupo_6" transform="translate(89.252 -10.854)">
		<path id="Trazado_6" class="st0" d="M1098.2,397.2l-135-347.4l-31.7,0.6l-16-0.6l-135,347.4l44.7,0.7l114.6-289.1l114.2,288.3
			L1098.2,397.2z"/>
	</g>
	<g id="Grupo_7" transform="translate(157.058 -10.854)">
		<path id="Trazado_7" class="st0" d="M1806,397.2L1671,49.8l-31.7,0.6l-16-0.6l-135,347.4l44.8,0.7l114.6-289.1l114.2,288.3
			L1806,397.2z"/>
	</g>
	<g id="Grupo_10" transform="translate(0 -26.079)">
		<g id="Grupo_8" transform="translate(17.174 15.287)">
			<path id="Trazado_8" class="st0" d="M108.4,359.3H66.9V92.1c0,0,42,0.1,47.7,0.1c72.7,0,121,61.1,121,133.8
				S181.1,359.3,108.4,359.3 M114.2,50.7l-85-0.2L28,397.9l81.9,0c95.8,0,173.5-77.7,173.5-173.5c0,0,0,0,0,0
				c2-93.9-72.5-171.6-166.4-173.6C116.1,50.7,115.1,50.7,114.2,50.7"/>
		</g>
		<g id="Grupo_9" transform="translate(188.85 15.226)">
			<path id="Trazado_9" class="st0" d="M1950.9,353h-91.5l0.1-114.1l87.6-0.5c32.9,0,59.5,26.6,59.5,59.5c0,0,0,0,0,0
				c0,30.5-24.7,55.1-55.1,55.1C1951.2,353,1951.1,353,1950.9,353 M1962.3,142.4c0,26.3-27.6,49.3-54.9,54.6
				c-11.6,0.1-27.1,0.3-48,0.6v-110l47.6,0.2C1937.4,87.7,1962.1,112.1,1962.3,142.4 M1978.2,202.2c14.4-16.6,22.3-37.8,22.3-59.8
				c1.1-48.8-36.8-89.7-85.5-92.4v-0.2h-57.5h-37l-0.2,348.1h39.1v-0.1h93c55.6,0,95.4-44.3,95.4-99.9
				C2047.7,254.3,2019.6,215.7,1978.2,202.2"/>
		</g>
	</g>
	<g id="Grupo_11" transform="translate(218.072 -10.83)">
		<path id="Trazado_11" class="st1" d="M2404.6,50.1v277h-53.1V186.9l-86.8,104.2l-86.4-104.2v140.2h-53.1v-277h3.4L2264.8,210
			l136.4-159.9H2404.6z"/>
	</g>
	<g id="Grupo_12" transform="translate(244.148 -10.831)">
		<path id="Trazado_12" class="st1" d="M2607.9,50.1l-72,99.7l-72-99.7h-66.4l105.4,139.9l-103.1,137.2h66.4l69.8-96.6l69.7,96.6
			h66.4l-103.2-137.2l105-139.9H2607.9z"/>
	</g>
</g>
</svg>
