<?xml version="1.0" encoding="utf-8"?>
<!-- Generator: Adobe Illustrator 22.0.1, SVG Export Plug-In . SVG Version: 6.00 Build 0)  -->
<svg version="1.1" id="Capa_1" xmlns="http://www.w3.org/2000/svg" xmlns:xlink="http://www.w3.org/1999/xlink" x="0px" y="0px"
	 viewBox="0 0 1000 1000" style="enable-background:new 0 0 1000 1000;" xml:space="preserve">
<style type="text/css">
	.st0{fill:#F2F2F2;}
	.st1{fill:none;}
	.st2{fill:#F15223;}
</style>
<g id="Light_Mini_Button" transform="translate(1022 327.207)">
	<g id="Light_Mini_Button-2">
		<path class="st0" d="M-522-327.2c276.1,0,500,223.9,500,500s-223.9,500-500,500s-500-223.9-500-500c0,0,0,0,0,0
			C-1022-103.3-798.1-327.2-522-327.2z"/>
	</g>
	<g id="Light_Social_Icons" transform="translate(7.754 7.754)">
		<g id="vuesax_linear_facebook">
			<g id="facebook">
				<g id="BG_1">
					<path class="st1" d="M-738.1-43.3h416.7v416.7h-416.7V-43.3z"/>
				</g>
				<g id="Vector-11">
					<path class="st2" d="M-484.6,349h-73v-125h-19.1c-2.7,0.5-6.5-0.6-9.7-3c-3.2-2.4-5.3-6-5.8-10l-0.2-1.5l0.3-2.9l-0.1-31.3
						c-1.1-6.6,4.6-14.3,12.8-15.5l1.6-0.2l2.9,0.3l17.4-0.1v-46.9c-0.6-33.8,26.5-61.9,60.5-62.5h48.9c2.7-0.5,6.5,0.6,9.7,3
						c3.2,2.4,5.3,6,5.8,10l0.2,1.5l-0.3,2.9l0.1,39.9c0.4,2.4-0.6,6.5-3,9.7c-2.4,3.2-6,5.3-10,5.8l-1.5,0.2l-2.8-0.3l-34.7,0.1
						v34.8h34.7c8.9,0,15.6,7.5,15.6,17.4l-7.2,35.1c0.2,6.5-8.9,11.8-15.4,11.8h-27.8V349z M-536.7,328.2h31.2V201.5h44.8l4.6-22.6
						h-49.4l0.1-63.9c1.2-7.9,8.3-13.8,16.8-12.5l35.2-0.1l-0.1-31.3l-41.7,0.1c-24.1,0.4-42.1,19-41.7,41.5v67.9h-34.8l0.1,22.7
						l34.7-0.1V328.2z M-461.4,205.1c-0.6,1.7-0.7,3.3-0.7,3.3L-461.4,205.1z M-577.3,203.3c-0.3,0-0.6,0-0.8,0h1.7
						C-576.8,203.3-577.1,203.3-577.3,203.3z M-571.5,173.9v1.7C-571.4,175-571.4,174.5-571.5,173.9z M-489.1,123.3h-0.8
						C-489.6,123.3-489.4,123.3-489.1,123.3z M-484.6,119v0.2v-1V119z M-453.3,107.6c-0.1,0.6-0.1,1.1,0,1.7V107.6z M-448.3,71.2
						c0.5,0,1.1,0,1.7,0H-448.3z"/>
				</g>
				<g id="Vector-12">
					<path class="st2" d="M-477.7,349h-104.1c-92.5,0-132-39.5-132-131.9V112.9c0-92.5,39.5-131.9,132-131.9h104.1
						c92.5,0,132,39.5,132,131.9v104.2C-345.7,309.6-385.2,349-477.7,349z M-581.8,1.8c-81,0-111.1,30.1-111.1,111.1v104.2
						c0,81,30.1,111.1,111.1,111.1h104.1c81,0,111.1-30.1,111.1-111.1V112.9c0-81-30.1-111.1-111.1-111.1H-581.8z"/>
				</g>
				<g id="Vector-13">
					<path class="st1" d="M-738.1-43.3h416.7v416.7h-416.7V-43.3z"/>
				</g>
			</g>
		</g>
	</g>
</g>
</svg>
