<?xml version="1.0" encoding="utf-8"?>
<!-- Generator: Adobe Illustrator 22.0.1, SVG Export Plug-In . SVG Version: 6.00 Build 0)  -->
<svg version="1.1" id="Capa_1" xmlns="http://www.w3.org/2000/svg" xmlns:xlink="http://www.w3.org/1999/xlink" x="0px" y="0px"
	 viewBox="0 0 1642 650" style="enable-background:new 0 0 1642 650;" xml:space="preserve">
<style type="text/css">
	.st0{opacity:0.2;}
</style>
<g id="Grupo_87" transform="translate(728 6569.607)">
	<g id="Grupo_76" transform="translate(0 -154.607)">
		<g id="Grupo_75" transform="translate(0 -0.175)" class="st0">
			<g id="Grupo_74">
				<g id="Grupo_73" transform="translate(0 0.175)">
					<g id="Grupo_72" transform="translate(0 -0.175)">
						<g>
							<path d="M837.6,581.4c0.1-0.9,0.1-1.7,0.1-2.6c-0.3-13.8-11.7-24.8-25.5-24.6c-0.9,0-1.8,0-2.8,0.1
								c-14.1,1.2-24.6,13.7-23.4,27.9c-0.1,0.8-0.1,1.6-0.1,2.4c0.1,13.9,11.5,25,25.4,24.8c1,0,2,0,3-0.1
								C828.4,608,838.8,595.6,837.6,581.4z M811.7,602.3c-9.4,0-16-8.8-16-20.3c0-10,5-20.5,16.3-20.5h0
								c11.3,0,15.8,11.4,15.8,20.3C827.7,593.6,820.9,602.3,811.7,602.3z"/>
							<path d="M811.3,609.4C811.3,609.4,811.3,609.4,811.3,609.4C811.3,609.4,811.3,609.4,811.3,609.4L811.3,609.4z"/>
						</g>
						<path d="M632.5,554.4c-0.7,0-1.4,0.1-2.1,0.1c-14.1,1.5-24.2,14.2-22.7,28.3c-0.1,1.2-0.1,2.5,0,3.7
							c0.9,13.5,12.5,23.7,26,22.8c6,0.1,12-1,17.5-3.3l-1.6-6.9c-4.6,1.9-9.6,2.8-14.6,2.6c-0.8,0.1-1.7,0.1-2.5,0
							c-9.3-0.7-16.2-8.9-15.5-18.2h37l0.1,0.1c0.2-1.5,0.4-3,0.4-4.4c0.1-0.7,0.1-1.4,0.1-2.2C654.7,564.8,644.8,554.6,632.5,554.4
							z M644.9,576.8h-28.1c0.1-8.3,6.5-15.1,14.7-15.7c0.6,0,1.2,0.1,1.8,0.1C640.8,562.3,646,569.3,644.9,576.8z"/>
						<path d="M466.4,554.5c-0.7,0-1.4,0.1-2.1,0.1c-14.1,1.5-24.2,14.2-22.7,28.3c-0.1,1.2-0.1,2.5,0,3.7
							c0.9,13.5,12.5,23.7,26,22.8c6,0.1,12-1,17.5-3.3l-1.6-6.9c-4.6,1.9-9.6,2.8-14.6,2.6c-0.8,0.1-1.7,0.1-2.5,0
							c-9.3-0.7-16.2-8.9-15.5-18.2h37.1l0.1,0.1c0.2-1.5,0.4-3,0.4-4.4c0.1-0.7,0.1-1.4,0.1-2.2
							C488.6,564.8,478.8,554.7,466.4,554.5z M479,576.8h-28.1c0.1-8.3,6.5-15.1,14.7-15.7c0.6,0,1.2,0.1,1.8,0.1
							C474.9,562.3,480,569.3,479,576.8z"/>
						<path d="M488.7,279.4c-18.6-14-40.2-23.5-63-27.8c7-2,12.2-3.4,17-5.3c22.4-6.3,41.7-20.6,54.2-40.1
							c8.3-16.3,12-34.5,10.7-52.7c0.5-36.7-20.4-70.2-53.6-85.9c-28.5-13.7-59.9-20.3-91.5-19.2c-52.5-0.5-105-0.1-157.4-0.1
							c-2.4,0-4.8,0.2-7.1,0.4c-1.4,14.7-1.4,14.7,11.9,15.4c1.4,0.1,2.8,0,4.2,0.1c0.8-0.1,1.7-0.1,2.5-0.1
							c8.9,0.2,15.9,7.6,15.7,16.5c0.7,4.5,1,9.1,1,13.7v340.4c0,1.9,0.1,3.7,0,5.6c0.1,1.3,0.1,2.5,0,3.8
							c-1.1,9.9-9.9,17-19.8,15.9c-3.7,0.1-7.4,0-11.1,0.2c-1.4,0.1-3.8,1-3.9,1.8c-0.7,4-0.7,8.2,0,12.2c0.3,1,4.8,1.6,7.4,1.6
							h164.4c23.5,0.3,46.9-3,69.4-9.9l-0.1,0c47.3-15,81.2-42.7,86.7-95.7C531,335.4,516.7,300.7,488.7,279.4z M299.2,82.5
							c6.6-1.8,13.5-2.9,20.3-3.2c24.3-1.6,48.8,0.3,72.5,5.7c27.6,7.6,49.4,22.5,56.5,51.7c10.7,43.8-6.8,85.6-61.4,96.3
							c-31.6,6-63.6,1.9-96.3,3.4c0-3.7,0-6-0.1-8.1l-0.1,0c0-44.7,0.2-89.3-0.1-133.9C289.7,88.8,293.6,83.4,299.2,82.5z
							 M401.6,437.7c-29.4,7.5-60,9.4-90.2,5.6c-4.9-0.8-9.7-2.5-14.1-5c-4.5-2.2-7.1-6.8-6.7-11.8c0.1-49.9,0.1-99.7,0.1-149.7
							c0-2,0.3-4.1,0.5-7c42.6,0.3,84.6-2.9,124.4,14.2l0-0.1c23.5,8.2,41.2,27.8,47.1,52C473.7,385.6,450.6,424.3,401.6,437.7z"/>
						<path d="M230.9,594.6v-63.8h-9.8v31.4h-0.2c-3.5-5.3-9.5-8.4-15.9-8c-0.6,0-1.2,0.1-1.7,0.2c-13.8,1.7-23.6,14.3-21.9,28.2
							c-0.1,0.5-0.1,0.9-0.1,1.4c-0.7,13.3,9.4,24.7,22.7,25.4c7.5,0.3,14.5-3.7,18-10.3h0.2l0.4,9.2h8.6
							C231.1,604.6,230.9,599.3,230.9,594.6z M221.2,590.4c-1.4,6.7-7.3,11.5-14.1,11.4c-10.5,0-15.7-8.9-15.7-19.6
							c0-11.6,5.8-20.3,15.8-20.3c6.7-0.1,12.4,4.6,13.8,11.1l0.1,0c0.2,1.3,0.4,2.7,0.4,4.1h0.1v9.2
							C221.7,587.6,221.6,589,221.2,590.4z"/>
						<path d="M284.1,595.5v-19.7c0-10.5-3.9-21.6-20.1-21.6c-6.1-0.1-12.1,1.6-17.3,4.7l2.2,6.4c4.1-2.6,8.9-3.9,13.7-3.9
							c0.9-0.1,1.8-0.1,2.6,0c5.9,0.8,10.1,6.2,9.3,12.2v1.1c-20.5-0.1-31.8,6.9-31.8,19.6c0,0.4,0,0.8,0,1.3
							c0.6,8.3,7.8,14.5,16.1,13.9c6.3,0.1,12.3-2.8,16.1-7.8h0.4l0.8,6.6l8.8-0.1C284.3,603.9,284,599.7,284.1,595.5z M274.5,581.3
							v9.2c0,1-0.2,2.1-0.5,3c-1.9,5.4-7,8.9-12.7,8.8c-0.4,0-0.8,0-1.2,0c-4.7-0.4-8.2-4.5-7.8-9.1v-0.1c0-10.1,11.9-12,22.4-11.8
							H274.5z"/>
						<path d="M429.5,594.6v-63.8h-9.7v31.4h-0.2c-3.5-5.3-9.5-8.4-15.9-8c-0.6,0-1.2,0.1-1.7,0.2c-13.8,1.7-23.6,14.3-21.9,28.2
							c-0.1,0.5-0.1,0.9-0.1,1.4c-0.7,13.3,9.4,24.7,22.7,25.4c7.5,0.3,14.5-3.7,18-10.3h0.1l0.4,9.2h8.6
							C429.7,604.6,429.5,599.3,429.5,594.6z M419.8,590.4c-1.4,6.7-7.3,11.5-14.1,11.4c-10.5,0-15.7-8.9-15.7-19.6
							c0-11.6,5.8-20.3,15.8-20.3c6.7-0.1,12.4,4.6,13.8,11.1l0.1,0c0.2,1.3,0.4,2.7,0.4,4.1h0.1v9.2
							C420.3,587.6,420.1,589,419.8,590.4z"/>
						<path d="M345,594.6v-63.8h-9.8v31.4H335c-3.5-5.3-9.5-8.4-15.9-8c-0.6,0-1.2,0.1-1.7,0.2c-13.8,1.7-23.6,14.3-21.9,28.2
							c-0.1,0.5-0.1,0.9-0.1,1.4c-0.7,13.3,9.4,24.7,22.7,25.4c7.5,0.3,14.5-3.7,18-10.3h0.2l0.4,9.2h8.6
							C345.2,604.6,345,599.3,345,594.6z M335.2,590.4c-1.4,6.7-7.3,11.5-14.1,11.4c-10.5,0-15.7-8.9-15.7-19.6
							c0-11.6,5.8-20.3,15.8-20.3c6.7-0.1,12.4,4.6,13.8,11.1H335c0.2,1.3,0.4,2.7,0.4,4.1h0.1v9.2
							C335.6,587.5,335.5,589,335.2,590.4z"/>
						<path d="M1224.7,462.5c-0.5-1.8-5.6-1.8-8.1-3.3c-4-2.2-7.7-4.9-10.9-8.1c-4-4.7-7.6-9.8-10.7-15.1
							c-9.3-15.6-17.7-31.8-27.2-47.1c-21.5-33.5-46.7-64.5-75.1-92.5c-10.9-11.1-23.1-20.8-34.6-31c10.1-2.5,20.2-4.7,30.1-7.8
							c18.7-5.3,35.9-14.7,50.4-27.6c21.4-20,32-48.9,28.6-78c-0.9-34.3-20-65.6-50.1-82.1c-26.7-14.7-56.9-22.1-87.4-21.3
							c-52.5-0.4-105-0.1-157.4-0.1c-8.6,0-8.4,0-8.5,8.9c0,4.9,2,6.7,6.5,6.5c3,0,5.9,0.2,8.9,0.5c0.4,0,0.8,0,1.2,0
							c7.9,0.3,14,7,13.7,14.9c0.4,5,0.6,10,0.6,15.1v336.2c0,4.8-0.3,9.7-0.6,14.5c0.1,7.8-5.9,14.3-13.7,14.6
							c-2.9,0.6-5.9,0.7-8.9,0.4c-7.2-0.9-7.5,3.3-7.8,8.8c-0.1,5.9,2,7.2,7.6,7.2c35.2-0.3,70.4-0.1,105.6-0.1
							c2.3,0,4.6-0.2,7.1-0.4c1.5-15.1,1.5-15.1-11.4-15.1c-15-0.3-19.8-4.1-19.9-19.2c-0.5-52.9-0.4-105.8-0.5-158.8
							c0-4.5,2.1-5.2,6-5.2c11.7,0.1,23.5-0.2,35.2,0c2.7,0,5.3,0.8,7.5,2.4c32.3,26.7,61.7,56.7,87.7,89.6
							c23.2,31.2,43.1,64.7,59.2,100.1l0,0c2,4.6,4.2,7.2,10,7c12.8-0.5,25.7-0.1,38.6-0.1h28.8
							C1225.6,471.5,1225.4,467,1224.7,462.5z M980.7,245c-7.1,0.1-14.2-0.2-21.3,0.1c-5.8,0.4-7.4-2-7.4-7.6
							c0.3-23.9,0.1-47.9,0.1-71.8c0-23.2,0.3-46.5-0.2-69.6c-0.7-5.4,2.5-10.6,7.8-12.2c4.6-2.1,9.5-3.4,14.5-4.1
							c26.6-2.4,53.4-0.6,79.4,5.3c26.3,7.1,47.1,21.7,52.6,49.8l0,0c9,45.9-8.1,82.2-55.5,99.9C1028,242.2,1004.4,245.6,980.7,245z
							"/>
						<path d="M1200,608.3h-9.5v-30.5c0-8.5-3.2-15.7-12.2-15.7c-6,0.1-11.2,4.1-12.8,9.8c-0.4,1.4-0.7,2.9-0.6,4.4v31.8h-9.5v-38.5
							h-0.2c0-5.5-0.1-9.9-0.4-14.2h8.5l0.5,8.8h0.2c3.5-6.2,10.2-10,17.4-9.9c7.2,0,18.7,4.3,18.7,22.5L1200,608.3z"/>
						<path d="M1078.5,608.2l-0.5-8.6h-0.3c-3.6,6.1-10.3,9.9-17.4,9.8c-8.3,0-18.2-4.6-18.2-23.1v-30.9h9.5v29.2
							c0,10,3,16.8,11.8,16.8c5.6,0,10.6-3.5,12.6-8.8c0.6-1.6,0.9-3.3,0.9-5v-32.4h9.5v38.6h0.1c0,5.5,0.1,10.3,0.4,14.4
							L1078.5,608.2z"/>
						<path d="M1021.9,546.5c-3.1,0.1-5.7-2.4-5.8-5.5c0-0.1,0-0.2,0-0.3c-0.1-3.2,2.5-5.9,5.7-6c0.1,0,0.3,0,0.4,0
							c3.1,0,5.7,2.5,5.7,5.6c0,0.1,0,0.2,0,0.3c0.2,3.1-2.2,5.7-5.3,5.9C1022.4,546.5,1022.1,546.5,1021.9,546.5"/>
						<path d="M1026.7,603.3c0.9,7.8-1.4,15.6-6.4,21.7c-4.5,3.9-10.4,6.1-16.4,6l-0.8-7.5c3.9,0,7.6-1.5,10.5-4.1
							c2.6-3,3.6-7.2,3.6-19.8v-44.1h9.5L1026.7,603.3z"/>
						<path d="M995.1,546.5c-3.1,0-5.7-2.5-5.7-5.6c0-0.1,0-0.2,0-0.3c-0.1-3.2,2.4-5.9,5.6-6c0.1,0,0.2,0,0.3,0
							c3.1-0.1,5.8,2.4,5.8,5.5c0,0.1,0,0.3,0,0.4c0.1,3.1-2.3,5.7-5.3,5.9C995.6,546.5,995.3,546.5,995.1,546.5"/>
						<rect x="990.5" y="555.5" width="9.5" height="52.7"/>
						<polygon points="983.8,542.8 961.4,542.8 961.4,608.2 951.8,608.2 951.8,542.8 929.5,542.8 929.5,534.8 983.8,534.8 						"/>
						<path d="M889.6,591c-7.9,0-14.4-6.4-14.4-14.4c0-7.9,6.4-14.4,14.4-14.4s14.4,6.4,14.4,14.4C903.9,584.5,897.5,591,889.6,591"
							/>
						<path d="M844.5,430.5c-2.8,13-5.7,26.1-8.4,39c-0.9,4.3-2.4,6.5-7.6,6.5c-95.5-0.2-191-0.1-286.5-0.1c-1.6,0-3.2-0.1-6-0.4
							c-0.3-4-0.2-8.1,0.2-12.1c0.2-1.4,3.6-3.2,5.5-3.3c21.3-1.4,24.7-4.2,24.7-25.8c0.1-116,0.1-232-0.1-347.9
							c0-2.7-0.3-5.5-0.9-8.1c-2.2-10-5.5-13.1-15.8-14c-4.3-0.4-8.6-0.8-13.2-1.2V49h291.6v65.2c-2.4,0-5-0.1-7.4,0
							c-3.6,0.2-5.8-0.8-5.7-4.8c-0.1-0.7-0.2-1.4-0.5-2c-1-15.7-14.6-27.5-30.3-26.5c-0.2,0-0.5,0-0.7,0.1
							c-13.1-0.9-26.1-1.3-39.2-1.3c-34.9-0.1-69.9-0.1-104.9,0c-2.5,0-5.1,0.2-7.6,0.4c-5.7,0.2-8,3.4-7.8,8.9
							c0,47.6,0,95.3-0.1,142.9c0,4.1,1.9,5.1,5.5,5.1c44.8-0.2,89.7-0.2,134.5-0.8c11.7,0.9,22-7.7,23.3-19.4
							c0.9-3.3,1.5-6.7,2.3-10.5h17v95.4h-16.9c-1-4.6-1.9-8.8-3-13c-1.6-10.8-11.2-18.7-22.1-18.3c-45.1-0.6-90.2-0.6-135.3-0.9
							c-3.8,0-5.2,1.4-5.2,5.3c0.1,52.7,0.1,105.4,0,158c-0.3,4.8,2.9,9.2,7.6,10.3c4,1.1,8.1,1.6,12.2,1.5
							c41.2-0.1,82.3-0.4,123.5-0.8c7.1,0,14.3-0.4,21.3-1.3c21.4-2.5,39.6-16.5,47.5-36.5c3.3-7.1,7.8-7.8,15.1-6
							C848.7,410.4,846.6,420.5,844.5,430.5"/>
						<path d="M765.9,601.6c4.1,0,8.1-0.9,11.8-2.6l1.5,7.4c-4.8,2.1-9.9,3.1-15.1,3c-13.9,0.7-25.6-10-26.3-23.8
							c-0.1-1,0-2.1,0-3.1c-0.7-14.7,10.6-27.3,25.4-28c1,0,2,0,2.9,0c4.6-0.1,9.1,0.8,13.3,2.6l-2.2,7.4c-3.4-1.8-7.2-2.7-11.1-2.5
							c-10.1-0.3-18.5,7.7-18.7,17.8c0,0.7,0,1.4,0.1,2.1c-0.9,9.9,6.4,18.7,16.4,19.6C764.6,601.6,765.2,601.7,765.9,601.6"/>
						<path d="M720.6,546.5c-3.1,0-5.7-2.5-5.7-5.6c0-0.1,0-0.2,0-0.3c-0.1-3.2,2.4-5.9,5.6-6c0.1,0,0.2,0,0.3,0
							c3.1-0.1,5.8,2.4,5.8,5.5c0,0.1,0,0.3,0,0.4c0.1,3.1-2.3,5.7-5.3,5.9C721.2,546.5,720.9,546.5,720.6,546.5"/>
						<polygon points="725.6,608.3 716.1,608.3 716.1,555.5 725.7,555.5 						"/>
						<path d="M695.7,608.3l-7.8-11.8c-2-3-3.8-6-5.7-9.2H682c-1.8,3.2-3.6,6-5.6,9.2l-7.6,11.8h-10.5l18.8-26.9l-17.9-25.8h10.9
							l7.5,11.3c1.9,2.9,3.6,5.7,5.3,8.6h0.4c1.8-3.2,3.4-5.8,5.2-8.8l7.4-11.2h10.3l-18,25.5l18.5,27.2L695.7,608.3z"/>
						<polygon points="626.9,548.4 636.4,532.7 647.1,532.7 633.7,548.4 						"/>
						<path d="M587.3,608.3l-1.8-32.3c-0.5-10.3-1.1-22.6-1.1-31.8H584c-2.5,8.6-5.6,17.8-9.3,27.9l-13,35.6h-7.2l-11.7-34.9
							c-3.4-10.3-6.5-19.8-8.5-28.6h-0.2c-0.2,9.2-0.8,21.5-1.4,32.5l-2,31.4h-9l5.1-73.4h12.1l12.6,35.6c3,9,5.6,17.1,7.4,24.8h0.4
							c1.9-7.4,4.4-15.5,7.8-24.8l13.1-35.6H592l4.6,73.4L587.3,608.3z"/>
						<path d="M161.4,608.2l-0.5-8.6h-0.2c-3.6,6.1-10.3,9.9-17.4,9.8c-8.3,0-18.2-4.6-18.2-23.1v-30.9h9.5v29.2
							c0,10,3,16.8,11.8,16.8c5.6,0,10.6-3.5,12.6-8.8c0.6-1.6,0.9-3.3,0.9-5v-32.4h9.5v38.6h0.1c0,5.5,0.1,10.3,0.4,14.4
							L161.4,608.2z"/>
						<path d="M104.5,546.4c-3.1,0-5.7-2.5-5.7-5.6c0-0.1,0-0.2,0-0.3c-0.1-3.2,2.4-5.9,5.6-6c0.1,0,0.2,0,0.3,0
							c3.1-0.1,5.8,2.4,5.8,5.5c0,0.1,0,0.3,0,0.4c0.1,3.1-2.3,5.7-5.3,5.9C105,546.5,104.8,546.5,104.5,546.4"/>
						<rect x="100" y="555.5" width="9.5" height="52.7"/>
						<path d="M71,601.2c5.3,0.1,10.6-0.9,15.5-3l2.2,7.6c-6.2,2.5-12.8,3.7-19.4,3.4C50.3,610.4,34,596,32.8,577
							c-0.1-1.6-0.1-3.3,0.1-4.9c-1.1-20.2,14.3-37.5,34.5-38.6c1.3-0.1,2.6-0.1,3.9,0c6-0.3,12,0.8,17.4,3.3l-2.3,7.8
							c-4.7-2.1-9.8-3.1-14.9-3c-15.1-0.9-28,10.6-28.9,25.7c-0.1,1.5-0.1,3,0.1,4.6c-1.6,14.6,8.9,27.7,23.5,29.4
							C67.8,601.3,69.4,601.3,71,601.2"/>
						<path d="M67.7,80c0.5-8.3-5.8-15.4-14.1-15.9c-0.7,0-1.4,0-2.1,0l-17.9-1.1V48.7h127.1v14.6c-5.5,0.2-10.8,0.6-16,0.9
							c-12.5,0.5-17.3,5.3-18.2,17.8c-0.2,4.3-0.2,8.8-0.2,13.1v341c0,19.2,4.4,23.8,23.4,24c12.7,0.1,12.7,0.1,10.8,15.5H33.3
							c0-3.4,0.1-6.9,0-10.2c-0.2-3.8,1.3-5.5,5.2-5.5c4.3,0.1,8.8,0,13.1-0.2c8.2,0.7,15.4-5.4,16.1-13.6c0-0.3,0-0.7,0-1
							c0.5-3.4,0.7-6.8,0.6-10.3V94.5C68.3,89.7,68.1,84.8,67.7,80"/>
						<path d="M1139.6,595.5v-19.7c0-10.5-3.9-21.6-20.1-21.6c-6.1-0.1-12.1,1.6-17.3,4.7l2.2,6.4c4.1-2.6,8.9-3.9,13.7-3.9
							c0.9-0.1,1.8-0.1,2.6,0c5.9,0.8,10.1,6.2,9.3,12.2v1.1c-20.5-0.1-31.8,6.9-31.8,19.6c0,0.4,0,0.8,0,1.3
							c0.6,8.3,7.8,14.5,16.1,13.9c6.3,0.1,12.3-2.8,16.1-7.8h0.4l0.8,6.6l8.8-0.1C1139.8,603.9,1139.5,599.7,1139.6,595.5z
							 M1130.2,581.3v9.2c0,1-0.2,2.1-0.5,3c-1.9,5.4-7,8.9-12.7,8.8c-0.4,0-0.8,0-1.2,0c-4.7-0.4-8.2-4.5-7.8-9.1v-0.1
							c0-10.1,11.9-12,22.4-11.8H1130.2z"/>
						<path d="M1252.6,595.5v-19.7c0-10.5-3.9-21.6-20.1-21.6c-6.1-0.1-12.1,1.6-17.3,4.7l2.2,6.4c4.1-2.6,8.9-3.9,13.7-3.9
							c0.9-0.1,1.8-0.1,2.6,0c5.9,0.8,10.1,6.2,9.3,12.2v1.1c-20.5-0.1-31.8,6.9-31.8,19.6c0,0.4,0,0.8,0,1.3
							c0.6,8.3,7.8,14.5,16.1,13.9c6.3,0.1,12.3-2.8,16.1-7.8h0.4l0.8,6.6l8.8-0.1C1252.8,603.9,1252.5,599.7,1252.6,595.5z
							 M1243.2,581.3v9.2c0,1-0.2,2.1-0.5,3c-1.9,5.4-7,8.9-12.7,8.8c-0.4,0-0.8,0-1.2,0c-4.7-0.4-8.2-4.5-7.8-9.1v-0.1
							c0-10.1,11.9-12,22.4-11.8H1243.2z"/>
						<path d="M1611.2,261.4c-1.3-13.7-1.9-27.6-3.8-41.2c-4.4-42.2-22.1-81.9-50.4-113.5c-46.5-52.9-117.2-77.6-186.5-65
							c-74.7,8.5-137.4,60.2-160,131.9c-23.2,63.9-20.6,134.3,7.4,196.3c20.2,47.8,59.8,84.7,108.9,101.5
							c35.1,12.2,72.6,15.7,109.4,10.2c52.4-5.7,100-33.3,130.9-76.1v0C1596.7,363.4,1612.2,312.9,1611.2,261.4z M1516.9,391.2
							c-19.2,32.4-51.9,54.4-89.2,60c-65.6,9.3-117.3-15.2-148.6-78.3c-11.9-25.4-19.1-52.8-21.1-80.8
							c-4.5-40.3-0.1-81.1,12.7-119.6c10.3-33,31.3-61.6,59.7-81.3c26.5-17.2,58.4-24.1,89.6-19.3l0,0
							c59.1,6.5,92.8,44.1,113.5,95.9c11.6,31,17.3,63.9,16.9,96.9C1551.1,309.2,1539.5,353,1516.9,391.2z"/>
					</g>
				</g>
			</g>
		</g>
	</g>
</g>
</svg>
