<?xml version="1.0" encoding="utf-8"?>
<!-- Generator: Adobe Illustrator 22.0.1, SVG Export Plug-In . SVG Version: 6.00 Build 0)  -->
<svg version="1.1" id="Capa_1" xmlns="http://www.w3.org/2000/svg" xmlns:xlink="http://www.w3.org/1999/xlink" x="0px" y="0px"
	 viewBox="0 0 1000 1000" style="enable-background:new 0 0 1000 1000;" xml:space="preserve">
<style type="text/css">
	.st0{fill:#F15223;}
</style>
<g>
	<path class="st0" d="M900.2,519.4L900.2,519.4l-63-176.3C776.8,173.7,685.1,0.5,463.1,0.5C262.2,0.5,98.8,163.9,98.8,364.8
		c0,110.6,49,213.4,134.8,282.9l53.6,298.3c0.9,5.2,4.2,9.7,8.9,12.2c3.1,1.7,78,41.2,162.7,41.2c84.7,0,159.5-39.5,162.7-41.2
		c4.7-2.5,8-7,8.9-12.2L683.2,652c0.4-2.1,0.4-4.1,0-6.1c31-27.9,58.1-62.5,80.7-103.4l119.9,0c5.6,0,10.9-2.7,14.2-7.4
		C901.3,530.6,902.1,524.7,900.2,519.4z M753.5,507.8c-6.5,0-12.4,3.6-15.4,9.3C681.4,625.8,590.4,688.1,480.5,694V462l71.1-123.2
		c3.1-5.4,3.1-12,0-17.4c-3.1-5.4-8.8-8.7-15-8.7H389.7c-6.2,0-11.9,3.3-15,8.7c-3.1,5.4-3.1,12,0,17.4L445.8,462v249.8
		c0,9.6,7.8,17.4,17.4,17.4c66.9,0,127.9-18.1,180.4-52.6l-28.6,159.3c-43.6,20.3-90.2,30.7-138.8,30.7c-30.3,0-60.4-4.1-89.4-12.3
		c-9.2-2.6-18.8,2.8-21.4,12c-2.6,9.2,2.8,18.8,12,21.4c32,9,65.3,13.6,98.8,13.6c45.6,0,89.7-8.3,131.5-24.6l-9.8,54.7
		c-19.9,9.4-77.3,33.5-139,33.5c-61.5,0-119.1-24.2-139-33.5L291,771c52.7,28.4,111.5,43.4,172.1,43.4c33.5,0,66.7-4.6,98.8-13.6
		c9.2-2.6,14.6-12.2,12-21.4c-2.6-9.2-12.1-14.6-21.4-12c-29,8.1-59,12.3-89.4,12.3c-64.5,0-126.6-18.7-180.2-53.8l-16.3-90.8
		c-0.8-4.2-3-8-6.4-10.6c-80.5-63-126.7-157.7-126.7-259.8c0-181.8,147.9-329.6,329.6-329.6c199.9,0,282.2,153.6,341.4,319.5
		l54.7,153.1L753.5,507.8z M463.1,422.6l-43.4-75.2h86.8L463.1,422.6z"/>
	<path class="st0" d="M339.9,436c-4.8-8.3-15.4-11.1-23.7-6.4l-79.6,45.9c-8.3,4.8-11.1,15.4-6.4,23.7c3.2,5.6,9.1,8.7,15,8.7
		c3,0,5.9-0.8,8.7-2.3l79.6-45.9C341.8,454.9,344.7,444.3,339.9,436z"/>
	<path class="st0" d="M689.6,475.6l-79.6-45.9c-8.3-4.8-18.9-1.9-23.7,6.4c-4.8,8.3-1.9,18.9,6.4,23.7l79.6,45.9
		c2.7,1.6,5.7,2.3,8.7,2.3c6,0,11.8-3.1,15-8.7C700.8,491,697.9,480.4,689.6,475.6z"/>
	<path class="st0" d="M697.3,347.5h-74.5c-9.6,0-17.4,7.8-17.4,17.4c0,9.6,7.8,17.4,17.4,17.4l74.5,0c9.6,0,17.4-7.8,17.4-17.4
		C714.7,355.2,706.9,347.5,697.3,347.5z"/>
	<path class="st0" d="M558,235.2L558,235.2l37.3-64.6c4.8-8.3,1.9-18.9-6.4-23.7c-8.3-4.8-18.9-1.9-23.7,6.4l-37.3,64.6
		c-4.8,8.3-1.9,18.9,6.4,23.7c2.7,1.6,5.7,2.3,8.7,2.3C548.9,243.9,554.8,240.8,558,235.2z"/>
	<path class="st0" d="M361,153.3c-4.8-8.3-15.4-11.2-23.7-6.4c-8.3,4.8-11.1,15.4-6.4,23.7l37.3,64.6c3.2,5.6,9,8.7,15,8.7
		c3,0,5.9-0.8,8.7-2.3c8.3-4.8,11.1-15.4,6.4-23.7L361,153.3z"/>
	<path class="st0" d="M303.5,382.2c9.6,0,17.4-7.8,17.4-17.4c0-9.6-7.8-17.4-17.4-17.4l-74.5,0c-9.6,0-17.4,7.8-17.4,17.4
		c0,9.6,7.8,17.4,17.4,17.4L303.5,382.2z"/>
	<path class="st0" d="M331,559c-4.8,8.3-1.9,18.9,6.4,23.7c2.7,1.6,5.7,2.3,8.7,2.3c6,0,11.8-3.1,15-8.7l37.3-64.6
		c4.8-8.3,1.9-18.9-6.4-23.7c-8.3-4.8-18.9-1.9-23.7,6.4L331,559z"/>
	<path class="st0" d="M558,494.4c-4.8-8.3-15.4-11.1-23.7-6.4c-8.3,4.8-11.1,15.4-6.4,23.7l37.3,64.6c3.2,5.6,9.1,8.7,15,8.7
		c3,0,5.9-0.7,8.7-2.3c8.3-4.8,11.1-15.4,6.4-23.7L558,494.4z"/>
	<path class="st0" d="M586.4,293.6c3.2,5.6,9.1,8.7,15,8.7c3,0,5.9-0.8,8.7-2.3l79.6-45.9c8.3-4.8,11.1-15.4,6.4-23.7
		c-4.8-8.3-15.4-11.2-23.7-6.4l-79.6,45.9C584.4,274.7,581.6,285.3,586.4,293.6z"/>
	<path class="st0" d="M463.1,95.9c-9.6,0-17.4,7.8-17.4,17.4v91.9c0,9.6,7.8,17.4,17.4,17.4c9.6,0,17.4-7.8,17.4-17.4v-91.9
		C480.5,103.7,472.7,95.9,463.1,95.9z"/>
	<path class="st0" d="M236.6,254.1l79.6,45.9c2.7,1.6,5.7,2.3,8.7,2.3c6,0,11.8-3.1,15-8.7c4.8-8.3,1.9-18.9-6.4-23.7L253.9,224
		c-8.3-4.8-18.9-1.9-23.7,6.4C225.4,238.7,228.3,249.3,236.6,254.1z"/>
</g>
</svg>
