<?xml version="1.0" encoding="utf-8"?>
<!-- Generator: Adobe Illustrator 22.0.1, SVG Export Plug-In . SVG Version: 6.00 Build 0)  -->
<svg version="1.1" id="Capa_1" xmlns="http://www.w3.org/2000/svg" xmlns:xlink="http://www.w3.org/1999/xlink" x="0px" y="0px"
	 viewBox="0 0 1642 1000" style="enable-background:new 0 0 1642 1000;" xml:space="preserve">
<style type="text/css">
	.st0{opacity:0.2;}
</style>
<g id="Grupo_86" transform="translate(504 6566.607)">
	<g id="Grupo_70" transform="translate(0 -154.607)">
		<g id="Grupo_69" transform="translate(0 -0.19)" class="st0">
			<g id="Grupo_68">
				<g id="Grupo_67" transform="translate(0 0.19)">
					<g id="Grupo_66" transform="translate(0 -0.19)">
						<path id="Trazado_770" d="M245.7,6.8c2,112.7,0.6,225.5,6.8,338c7.2,128.7-5.3,252.2-74.5,373
							c113.8-29.3,199.7,25.3,289.1,68.1c57,29.5,115.8,55.3,176.2,77.3c88.7,29.1,178.9,18.5,273.7-11.9
							c-4.5,7.8-9.5,15.3-15.1,22.4c-112.5,117.2-266,153.1-416.6,91.9c-64.6-26.2-125.3-62.3-188-93.4
							c-26.7-13.2-53.7-25.9-81.1-37.7c-50.8-23-108.2-26.6-161.4-10.2c-14.5,3-29.2,4.6-44,4.8v-13.8c5.8-6.4,10.9-13.3,15.4-20.7
							C75.4,693.1,98,580.9,91.9,468.3c-5.3-113.4-8.5-227-13.5-340.4c-2.1-17.2,7-33.9,22.5-41.5c42-25.5,82.8-52.9,124-79.5
							L245.7,6.8"/>
						<path id="Trazado_771" d="M476.4,525.2c3.2,26.1,2.3,53.5,10.6,77.8c11.4,26.8,25.1,52.5,40.9,77
							c24.9-16.7,56.8-28.2,73.5-50.9c70.4-95.6,64.7-201.3,28.4-307.7c-9-19.1-20.1-37.1-33.2-53.7c-17.8,13.5-39.5,24.2-52.8,41.2
							C494.1,371.9,478.5,446.3,476.4,525.2 M777.4,484c-1,74.3-15.9,144-63.3,203.3c-41.1,51.5-84.3,63.2-146.5,42.2
							c-23.1-10-47.1-17.8-71.7-23.3c-78.6-10.4-113.4-63.2-131.7-131.5c-30-100.6-11-209.5,51.3-293.9
							c35.5-49.9,84.8-63.1,141-62.5c19.5,0.2,39,2.3,58.1,6.4c97.7,20.9,139,65.5,153.8,166.9C773,422.1,774.5,453.1,777.4,484"/>
						<path id="Trazado_772" d="M1404.3,263.2c-58.3,81.4-69.2,246.7-22.3,330.8c18.8,33.7,43.2,61.5,83.6,68.6
							C1544,563.3,1505.7,311.4,1404.3,263.2 M1626.3,485.1c0,16.1,0.8,32.2-0.1,48.2c-3.7,65.8-26.2,116.6-97,137
							c-49,14.1-94.5,40.9-143.8,52.5c-53.7,12.6-85.7-7.3-111.3-58c-35.7-72.7-47.9-154.7-34.8-234.6
							c7.4-46.1,20.5-91.2,38.9-134.1c16.8-40.8,53.5-60.5,97.4-66.9c24.8-3.5,49.4-8.8,73.5-15.9c57.6-17.1,90.3-6.8,122.8,44.7
							C1615.5,327.3,1627.6,404.8,1626.3,485.1"/>
						<path id="Trazado_773" d="M1186.8,613.8c-35.9,74-85.1,133.5-168.7,150.4c-89,18-180.7-51.4-197.5-146.3
							c-14.5-88,0.5-178.2,42.7-256.7c39.2-77.1,114.1-116.9,191.9-142.3c75.5-24.6,169.9,70.3,155.4,148.6
							c-0.5,3.4-1.5,6.7-2.9,9.8c-10.6,22.3-89.6,67.5-119.3,67.8c-3.4-16.5-7.9-32.8-13.4-48.8c-12.7-31.3-38.3-55.6-70.2-66.8
							c-24.5-9.4-38.8-4.8-47,20.9c-23.1,66.6-25.3,138.7-6.2,206.6c26.3,89.3,106.2,118.8,199.3,75.8
							C1163.1,627.1,1174.8,620.1,1186.8,613.8"/>
						<path id="Trazado_774" d="M1085.6,854.3h-30.4v-11h73.9v11h-30.5v88.9h-13L1085.6,854.3z"/>
						<path id="Trazado_775" d="M1191.9,896.4h-38.8v36h43.2v10.8h-56.1v-99.8h53.9v10.8h-41.1v31.5h38.8L1191.9,896.4z"/>
						<path id="Trazado_776" d="M1284.8,892.8c0-20-10.4-40.6-31.5-40.6c-21.8,0-32.4,20.1-32.3,41.8c-0.1,21.2,11.5,40.3,31.7,40.3
							C1273.3,934.3,1284.8,915.6,1284.8,892.8 M1295.4,957.8c-13.5-3.5-26.7-7.5-38.2-11.5c-1.9-0.8-4-1.3-6.1-1.5
							c-25.3-0.9-45.1-22.2-44.2-47.6c0-1,0.1-1.9,0.2-2.9c0-32,19.5-52.6,46.5-52.6s44.7,21,44.7,50.5c0,25.6-11.9,42.1-28.4,47.8
							v0.6c9.9,2.5,20.7,4.9,29.1,6.4L1295.4,957.8z"/>
						<path id="Trazado_777" d="M1328,843.3v59.1c0,22.4,9.9,31.8,23.2,31.8c14.8,0,24.3-9.8,24.3-31.8v-59.1h13v58.2
							c0,30.6-16.1,43.2-37.8,43.2c-20.4,0-35.8-11.7-35.8-42.6v-58.8H1328L1328,843.3z"/>
						<path id="Trazado_778" d="M1423.9,943.1H1411v-99.8h12.9V943.1z"/>
						<path id="Trazado_779" d="M1446.4,843.3h12.9v89h42.6v10.8h-55.5L1446.4,843.3L1446.4,843.3z"/>
						<path id="Trazado_780" d="M1565.1,901.7l-9.8-28.7c-2.2-6.5-3.7-12.4-5.2-18.2h-0.3c-1.5,5.9-3.1,12-5,18.1l-9.8,28.9H1565.1
							L1565.1,901.7z M1532.4,911.8l-10.4,31.4h-13.3l33.9-99.8h15.6l34.1,99.8h-13.8l-10.6-31.4H1532.4z"/>
					</g>
				</g>
			</g>
		</g>
	</g>
</g>
</svg>
