<?xml version="1.0" encoding="utf-8"?>
<!-- Generator: Adobe Illustrator 22.0.1, SVG Export Plug-In . SVG Version: 6.00 Build 0)  -->
<svg version="1.1" id="Capa_1" xmlns="http://www.w3.org/2000/svg" xmlns:xlink="http://www.w3.org/1999/xlink" x="0px" y="0px"
	 viewBox="0 0 1000 1000" style="enable-background:new 0 0 1000 1000;" xml:space="preserve">
<style type="text/css">
	.st0{fill:#F15223;}
</style>
<g>
	<path class="st0" d="M336,645.8h164v36.4H336V645.8z"/>
	<path class="st0" d="M336,591.1h164v36.4H336V591.1z"/>
	<path class="st0" d="M336,536.4h164v36.4H336V536.4z"/>
	<path class="st0" d="M244.9,244.9v510.2h510.2V244.9H244.9z M463.6,281.4h72.9v114.8L500,375.8l-36.4,20.3V281.4z M281.4,281.4
		h145.8v36.4H281.4V281.4z M718.6,718.6H281.4V354.2h145.8v103.9l72.9-40.6l72.9,40.6V354.2h145.8V718.6z M718.6,281.4v36.4H572.9
		v-36.4H718.6z"/>
	<path class="st0" d="M481.8,70.3V172h36.4V70.3l23.6,23.6L567.5,68L500,0.5L432.4,68l25.8,25.8L481.8,70.3z"/>
	<path class="st0" d="M932,432.4l-25.8,25.8l23.6,23.6H828v36.4h101.8l-23.6,23.6l25.8,25.8l67.5-67.5L932,432.4z"/>
	<path class="st0" d="M518.2,929.7V828h-36.4v101.8l-23.6-23.6L432.5,932l67.5,67.5l67.5-67.5l-25.8-25.8L518.2,929.7z"/>
	<path class="st0" d="M93.8,458.2L68,432.5L0.5,500L68,567.5l25.8-25.8l-23.6-23.6H172v-36.4H70.3L93.8,458.2z"/>
</g>
</svg>
