<?xml version="1.0" encoding="utf-8"?>
<!-- Generator: Adobe Illustrator 22.0.1, SVG Export Plug-In . SVG Version: 6.00 Build 0)  -->
<svg version="1.1" id="Capa_1" xmlns="http://www.w3.org/2000/svg" xmlns:xlink="http://www.w3.org/1999/xlink" x="0px" y="0px"
	 viewBox="0 0 1000 1000" style="enable-background:new 0 0 1000 1000;" xml:space="preserve">
<style type="text/css">
	.st0{fill:#F2F2F2;}
	.st1{fill:#F15223;}
	.st2{fill:none;}
</style>
<g>
	<g id="Button-2">
		<path class="st0" d="M500,0L500,0c276.1,0,500,223.9,500,500l0,0c0,276.1-223.9,500-500,500l0,0C223.9,1000,0,776.1,0,500l0,0
			C0,223.9,223.9,0,500,0z"/>
	</g>
	<g id="Light_Icon-2" transform="translate(247.333 267.334)">
		<g id="vuesax_linear_sms">
			<g id="sms">
				<g id="Vector-5">
					<path class="st1" d="M155.6,391.3c-18.9,0-37.9-6.5-53.6-18.8c-18.6-14.5-30.4-35.4-33.3-58.8c-0.9-7.1-0.9-14.4,0-21.6
						l-0.1-120.2c-5.9-47,28.5-91.2,76.8-97.1c7.2-0.9,14.4-0.9,21.6,0l172.4-0.1c21.9-3,45.2,3.6,63.8,18.1
						c18.6,14.5,30.4,35.4,33.3,58.8c0.9,7.2,0.9,14.4,0,21.6l0.1,120.2c5.9,47-28.6,91.2-76.9,97.1c-6.8,0.8-13.8,0.9-20.9,0.1
						h-173C162.5,391.1,159,391.3,155.6,391.3z M156.3,94.9c-2.8,0-5.6,0.2-8.2,0.5c-36.9,4.6-63.3,38.3-58.7,75.2l0.1,122.8
						c-0.8,6.7-0.8,12.3-0.1,17.7c2.2,17.9,11.2,33.9,25.5,45c14.2,11.1,32,16,49.7,13.8l174.9-0.1c0.4,0,0.8,0,1.3,0.1
						c5.6,0.7,11.1,0.7,16.4,0c37-4.5,63.4-38.3,58.8-75.2l-0.1-122.8c0.8-6.7,0.8-12.3,0.1-17.8c-2.2-17.9-11.2-33.9-25.5-45
						c-14.2-11.1-32-15.9-49.7-13.8l-174.9,0.1C162.4,95.1,159.3,94.9,156.3,94.9z"/>
				</g>
				<g id="Vector-6">
					<path class="st1" d="M252.5,245.1c-13.5,0-27.1-4.2-38.6-12.7l-54.6-43.6c-4.5-3.6-5.2-10.1-1.6-14.6
						c3.6-4.5,10.2-5.2,14.6-1.6l54.2,43.4c15.4,11.4,36.6,11.3,52.5-0.3l54-43.1c4.4-3.6,11-2.9,14.6,1.6c3.6,4.5,2.8,11-1.6,14.6
						l-54.4,43.4C279.8,240.8,266.1,245.1,252.5,245.1z"/>
				</g>
				<g id="Vector-7">
					<path class="st2" d="M44.3,24.4H461V441H44.3V24.4z"/>
				</g>
			</g>
		</g>
	</g>
</g>
</svg>
