<?xml version="1.0" encoding="utf-8"?>
<!-- Generator: Adobe Illustrator 22.0.1, SVG Export Plug-In . SVG Version: 6.00 Build 0)  -->
<svg version="1.1" id="Capa_1" xmlns="http://www.w3.org/2000/svg" xmlns:xlink="http://www.w3.org/1999/xlink" x="0px" y="0px"
	 viewBox="0 0 1000 1000" style="enable-background:new 0 0 1000 1000;" xml:space="preserve">
<style type="text/css">
	.st0{fill:#F15223;}
</style>
<path class="st0" d="M759.5,412.4l6.2-3.6c25-14.5,43-37.9,50.5-66c7.5-28.1,3.7-57.3-10.8-82.4c-14.5-25-37.9-43-66-50.5
	c-28.1-7.5-57.3-3.7-82.4,10.8l-6.2,3.6l-102.2-177c-4.3-7.5-12.4-12.1-21-11.9c-8.6,0.2-16.5,5-20.6,12.6
	c-74.1,139.8-178.7,252.9-319.8,345.6L76.6,457.5c-35.1,20.3-60.2,53.1-70.8,92.5c-10.6,39.4-5.2,80.4,15.1,115.5l41.6,72
	c28.2,48.8,79.4,76.1,132.1,76.1c22.8,0,45.9-5.1,67.4-15.8L424,959.7c4.5,4.5,10.5,7,16.8,7c6.3,0,12.4-2.5,16.8-7l81.8-81.8
	c9.3-9.3,9.3-24.3,0-33.6L410.1,715.1c141.1-65.9,282.1-95.4,430.1-90c8.6,0.3,16.8-4.1,21.2-11.5c4.5-7.4,4.5-16.7,0.2-24.2
	L759.5,412.4z M680.9,261.8c14-8.1,30.5-10.2,46.3-6c15.8,4.2,29,14.3,37.1,28.3c8.1,14,10.2,30.5,6,46.3
	c-4.2,15.8-14.3,29-28.3,37.1l-6.2,3.6l-61-105.7L680.9,261.8z M167.2,762.2c-27.1-7.3-49.7-24.5-63.6-48.6l-41.6-72
	c-13.9-24.1-17.6-52.3-10.3-79.4c7.3-27.1,24.5-49.7,48.6-63.6l90.7-52.3l146.2,253.3l-90.6,52.3
	C222.5,765.8,194.3,769.5,167.2,762.2L167.2,762.2z M440.8,909.3l-136-136l61-35.2l123.1,123.1L440.8,909.3z M609.8,597.7
	c-77.3,16.4-154.7,43.2-230.6,79.5l-147.8-256c69.4-47.5,131.3-101.3,184.2-159.9c42.5-47.2,80.4-98.9,112.8-154L799.6,577
	C735.6,577.5,672,584.4,609.8,597.7L609.8,597.7z M852.6,243c-6.6-11.4-2.7-25.9,8.7-32.5l78.1-45.1c11.4-6.6,25.9-2.7,32.5,8.7
	c6.6,11.4,2.7,25.9-8.7,32.5l-78.1,45.1c-3.7,2.2-7.8,3.2-11.9,3.2C865,254.9,857,250.6,852.6,243L852.6,243z M734.7,141.1
	l18.9-88.9c2.7-12.9,15.3-21.1,28.2-18.3c12.9,2.7,21.1,15.4,18.3,28.2L781.2,151c-2.4,11.2-12.3,18.8-23.2,18.8
	c-1.6,0-3.3-0.2-5-0.5C740.2,166.6,732,154,734.7,141.1L734.7,141.1z M998.3,408.9c-3.3,10-12.6,16.4-22.6,16.4
	c-2.4,0-4.9-0.4-7.4-1.2L881.9,396c-12.5-4.1-19.3-17.5-15.3-30c4.1-12.5,17.5-19.3,30-15.3l86.5,28.1
	C995.5,382.9,1002.4,396.4,998.3,408.9L998.3,408.9z"/>
</svg>
