<?xml version="1.0" encoding="utf-8"?>
<!-- Generator: Adobe Illustrator 22.0.1, SVG Export Plug-In . SVG Version: 6.00 Build 0)  -->
<svg version="1.1" id="Capa_1" xmlns="http://www.w3.org/2000/svg" xmlns:xlink="http://www.w3.org/1999/xlink" x="0px" y="0px"
	 viewBox="0 0 1000 1000" style="enable-background:new 0 0 1000 1000;" xml:space="preserve">
<style type="text/css">
	.st0{fill:#F15223;}
</style>
<g>
	<path class="st0" d="M981.5,79.2c-4.7-4.8-11-7.8-18-7.8H696.1c-14,0-25.3,11.3-25.3,25.3s11.3,25.3,25.3,25.3h206.4L726.3,298.2
		c-9.9,9.9-9.9,25.9,0,35.7c4.9,4.9,11.4,7.4,17.9,7.4c6.5,0,12.9-2.5,17.9-7.4L949,147v223.7c0,14,11.3,25.3,25.3,25.3
		c14,0,25.3-11.3,25.3-25.3V103.3C999.5,91.9,991.9,82.4,981.5,79.2z"/>
	<path class="st0" d="M628.1,683.2c51.4-53.7,83.1-126.3,83.1-206.3c0-164.9-134.1-299-299-299c-120.4,0-228.6,71.7-275.5,182.6
		c-15.6,36.9-23.5,76-23.5,116.4c0,14,11.3,25.3,25.3,25.3s25.3-11.3,25.3-25.3c0-33.6,6.6-66.1,19.5-96.7
		c39-92.2,128.9-151.8,229-151.8c137,0,248.5,111.5,248.5,248.5S549.2,725.3,412.2,725.3c-66.4,0-128.8-25.8-175.7-72.8
		c-9.9-9.9-25.9-9.9-35.7,0c-9.9,9.9-9.9,25.9,0,35.7c56.5,56.5,131.5,87.6,211.4,87.6c66.7,0,128.1-22.2,177.9-59.3l181.1,203.5
		c5,5.6,11.9,8.5,18.9,8.5c6,0,12-2.1,16.8-6.4c10.4-9.3,11.4-25.2,2.1-35.7L628.1,683.2z"/>
	<path class="st0" d="M454.2,603.7c4.7,4.8,11.2,7.5,17.9,7.6c6.8,0.5,13.2-2.6,18-7.4l129.7-129.7c9.9-9.9,9.9-25.9,0-35.7
		c-9.9-9.9-25.9-9.9-35.7,0L472.5,550.1L327,401.7c-9.7-9.9-25.6-10.1-35.6-0.5L8.2,674.8c-10,9.7-10.3,25.7-0.6,35.7
		c5,5.1,11.6,7.7,18.2,7.7c6.3,0,12.7-2.4,17.6-7.1L308.5,455L454.2,603.7z"/>
</g>
</svg>
