<?xml version="1.0" encoding="utf-8"?>
<!-- Generator: Adobe Illustrator 22.0.1, SVG Export Plug-In . SVG Version: 6.00 Build 0)  -->
<svg version="1.1" id="Capa_1" xmlns="http://www.w3.org/2000/svg" xmlns:xlink="http://www.w3.org/1999/xlink" x="0px" y="0px"
	 viewBox="0 0 1918 1000" style="enable-background:new 0 0 1918 1000;" xml:space="preserve">
<style type="text/css">
	.st0{opacity:0.2;}
</style>
<g id="Grupo_85" transform="translate(248 6583.973)">
	<g id="Grupo_64" transform="translate(0 -173.973)">
		<g id="Grupo_63" transform="translate(-0.449 -0.012)" class="st0">
			<g id="Grupo_59" transform="translate(0.449)">
				<path id="Trazado_732" d="M181.8,602.9l-62.3,105h-0.5l-62.3-105H33.1v166.8h21.2V643.2h1.3l60.3,101.4h4.6l60.3-101.4h1.3
					v126.5h22.2V602.9H181.8z"/>
			</g>
			<g id="Grupo_62">
				<g id="Grupo_61" transform="translate(0.449 0.012)">
					<g id="Grupo_60" transform="translate(0 -0.012)">
						<path id="Trazado_734" d="M340.2,754.6c32,1.1,58.9-23.9,60-56c-1.2-31.9-28-56.9-59.9-55.7c0,0-0.1,0-0.1,0
							c-31.6-1.1-58.2,23.7-59.3,55.3c0,0.1,0,0.2,0,0.4c0.9,31.8,27.3,56.8,59.1,56C340,754.6,340.1,754.6,340.2,754.6
							 M340.2,623.6c46.2,0,83,33.7,83,75.1c0,41.9-36.8,75.4-83,75.4c-46,0-82.3-33.5-82.3-75.4
							C257.9,657.3,294.2,623.6,340.2,623.6"/>
						<path id="Trazado_735" d="M612,627.9v141.8h-19.7l-93.5-106.5h-0.3v106.5h-22V627.9h20l93.2,106.5h0.3V627.9H612z"/>
						<path id="Trazado_736" d="M657.7,627.9h140v19.7h-59v122.1h-21.7V647.6h-59.4V627.9z"/>
						<path id="Trazado_737" d="M926.2,705.1h-60.8v45.2h105.5v19.4H843.4V627.9h122.1v19.7H865.4v38.1h60.8L926.2,705.1z"/>
						<path id="Trazado_738" d="M1224.4,602.9l-65.7,79.4l70,87.4h-28.4l-56-71.8l-57.5,71.8h-26.8l71-86.4l-64.1-80.5h28.1
							l50.5,64.9l51.9-64.9L1224.4,602.9z"/>
						<path id="Trazado_739" d="M1302,712h57.8l-28.1-58h-1.3L1302,712z M1321.4,627.9h20.5l70.3,141.8h-24.1l-19.9-40.4h-74.6
							l-19.7,40.4h-22.7L1321.4,627.9z"/>
						<path id="Trazado_740" d="M1593,627.9v141.8h-19.7l-93.5-106.5h-0.3v106.5h-22V627.9h19.9l93.2,106.5h0.3V627.9H1593z"/>
						<path id="Trazado_741" d="M1659.9,627.9h22v141.8h-22V627.9z"/>
						<path id="Trazado_742" d="M1891.9,745.1c-19.9,18.4-46,28.7-73.1,28.9c-49.3,0-83.3-34-83.3-75.1c0-41.1,34.2-75.4,82.3-75.4
							c25.4-0.1,50.1,8.7,69.8,24.8l-14.8,14.8c-15.4-12.8-34.7-19.9-54.7-20.2c-31.1-1.6-57.6,22.4-59.2,53.5
							c0,0.8-0.1,1.6-0.1,2.4c0.5,31.3,26.2,56.3,57.5,55.8c0.9,0,1.8-0.1,2.7-0.1c21.7-0.2,42.5-8.8,58-24.1L1891.9,745.1z"/>
						<path id="Trazado_743" d="M425.1,934.2v16.2H453c3.3,0.3,6.6-0.7,9.2-2.8c1.3-1.4,2.1-3.2,2-5.2c0-1.9-0.8-3.7-2.3-5
							c-2.5-2.3-5.8-3.5-9.2-3.2L425.1,934.2z M425.1,910.7v14.1h26.3c2.5,0.2,5-0.5,6.9-2.2c1.5-1.4,2.4-3.4,2.4-5.5
							c0-1.5-0.6-2.9-1.6-3.9c-1.8-1.9-3.9-2.6-8.4-2.6L425.1,910.7z M413.2,961v-61H452c6.4-0.5,12.8,1.7,17.5,6
							c2.3,2.4,3.6,5.6,3.6,8.9c0.1,5.3-3.1,10.1-8,12.1c7.1,1.7,12,8.1,11.7,15.3c0.1,5-2,9.7-5.7,13.1c-4.7,4.2-11.1,6.2-17.4,5.5
							L413.2,961z"/>
						<path id="Trazado_744" d="M528.5,952.6c12.6,0.3,23-9.6,23.4-22.1c-0.4-12.5-10.9-22.3-23.4-21.9c0,0,0,0,0,0
							c-12.4-0.4-22.8,9.4-23.2,21.8c0,0,0,0.1,0,0.1C505.6,943,516,952.9,528.5,952.6 M528.5,898c18.9-0.9,35,13.6,35.9,32.5
							c-0.9,18.9-16.9,33.6-35.9,32.7c0,0,0,0-0.1,0c-18.8,0.9-34.8-13.6-35.7-32.4c0-0.1,0-0.2,0-0.4c0.8-18.8,16.8-33.3,35.5-32.5
							C528.4,898,528.4,898,528.5,898"/>
						<path id="Trazado_745" d="M616.3,950.4c5.5,0.6,11-1.3,15.1-5c3.8-4,5.8-9.3,5.6-14.8c0.2-5.4-1.8-10.7-5.5-14.7
							c-4.1-3.8-9.7-5.7-15.2-5.2H597v39.7L616.3,950.4z M585,961v-61h31.8c9-0.8,17.8,2.3,24.4,8.4c5.6,5.9,8.6,13.8,8.4,22
							c0.3,8.3-2.8,16.3-8.6,22.2c-6.5,6-15.3,9-24.1,8.3L585,961z"/>
						<path id="Trazado_746" d="M707.5,934.5h-24.9v15.9h43.6V961h-55.5v-61h53v10.6h-41.1V924h24.9L707.5,934.5z"/>
						<path id="Trazado_747" d="M796.9,916.8c-6.2-5.3-14.1-8.2-22.2-8.3c-12.3-0.5-22.6,9-23.2,21.2c0,0.3,0,0.6,0,0.9
							c0.1,12.3,10.1,22.1,22.4,22c0.7,0,1.3,0,2-0.1c6.4,0.1,12.8-1.4,18.6-4.3v-11h-20.3v-10.6h31.1v27.5c-9,5.8-19.5,9-30.2,9.1
							c-18.8,1.2-34.9-13.1-36.1-31.9c0-0.3,0-0.5,0-0.8c0.7-18.7,16.5-33.3,35.2-32.6c0.1,0,0.2,0,0.3,0c11.2,0.2,22,4.3,30.6,11.5
							L796.9,916.8z"/>
						<path id="Trazado_748" d="M843.6,936.3h21.8l-10.5-21.9h-0.6L843.6,936.3z M849.5,900.1h10.7l30.3,61h-13.1l-7.4-15.4h-30.9
							l-7.4,15.3h-12.4L849.5,900.1z"/>
						<path id="Trazado_749" d="M995.8,900.1l-30.3,61h-10.7l-30.3-61h13.6l22,46.8h0.6l22-46.8H995.8z"/>
						<path id="Trazado_750" d="M1012.8,900.1h11.9v61h-11.9V900.1z"/>
						<path id="Trazado_751" d="M1110.2,900.1v61h-10.5l-36.5-41.5h-0.1V961h-11.9v-61h10.5l36.5,41.5h0.1v-41.5H1110.2z"/>
						<path id="Trazado_752" d="M1136.5,900.1h11.9v61h-11.9V900.1z M1136.5,961l7.8-82.5h14.6l-14.7,13.9h-10.6L1136.5,961z"/>
						<path id="Trazado_753" d="M1237.2,950.2c-8.8,8.3-20.3,13-32.4,13c-18.3,1.4-34.2-12.3-35.5-30.6c-0.1-0.7-0.1-1.4-0.1-2.1
							c0.3-18.3,15.3-32.9,33.7-32.7c0.5,0,1,0,1.4,0.1c11.2-0.1,22.1,3.8,30.7,10.9l-8.1,7.9c-6.3-5.2-14.2-8.1-22.4-8.3
							c-11.9-0.6-22.1,8.6-22.7,20.5c0,0.5,0,1,0,1.6c-0.1,12.1,9.6,21.9,21.7,22c0.5,0,1.1,0,1.6-0.1c9.1-0.1,17.7-3.8,24.1-10.2
							L1237.2,950.2z"/>
						<path id="Trazado_754" d="M1284.8,952.6c12.6,0.3,23-9.6,23.4-22.1c-0.4-12.5-10.8-22.3-23.3-21.9c0,0,0,0-0.1,0
							c-12.4-0.4-22.8,9.4-23.2,21.8c0,0,0,0.1,0,0.1C1262,943,1272.3,952.8,1284.8,952.6 M1284.8,897.9c18.9-0.9,35,13.6,35.9,32.5
							c-0.9,18.9-16.9,33.6-35.9,32.7c0,0,0,0-0.1,0c-18.8,0.9-34.8-13.6-35.7-32.4c0-0.1,0-0.2,0-0.4c0.8-18.8,16.8-33.3,35.5-32.5
							C1284.7,897.9,1284.8,897.9,1284.8,897.9"/>
						<path id="Trazado_755" d="M1353.2,900.1v50.3h39.7V961h-51.6v-61H1353.2z"/>
						<path id="Trazado_756" d="M1425.6,936.3h21.8l-10.5-21.9h-0.6L1425.6,936.3z M1431.5,900.1h10.7l30.3,61h-13.1l-7.4-15.4
							h-30.9l-7.4,15.3h-12.5L1431.5,900.1z"/>
						<path id="Trazado_757" d="M954.6,367.9c-4.7-33.2-44.5-61.5-78.9-57.2C887.3,344.5,918.9,367.4,954.6,367.9 M1024.5,181
							c-28.2-0.8-52.3,20.4-55,48.5c-1.2,19-1.3,38.1-0.4,57.2c20.9,3.3,40.5-10.9,43.9-31.8c0.1-0.4,0.1-0.9,0.2-1.3
							C1018.1,229.6,1020.8,205.2,1024.5,181 M968.8,301.9v30.3c14.2-9.7,28.8-18.7,43.9-26.9c16-7.4,33.9-10.2,51.4-8
							c0.3,37.5-38.9,76.1-81.8,81.2c-3.1-6.4-1.1-9.4,5.6-12c11.3-4.2,22.2-9.5,32.4-15.9c14.5-9.2,24.9-23.6,29.1-40.2
							c-41.2-2.4-77.1,27.7-82.1,68.6c-45,10.6-98.2-28.7-107.8-81.4c36.4-3.6,72.4,10.6,96.4,38.2c1.2-11.2,1.4-22.5,0.7-33.7
							c-5.1-1.3-9.3-2.6-13.6-3.4c-20.8-3.2-37.5-19-41.6-39.7c-3-12.3-5.1-24.8-6.2-37.4c-0.6-17.4-5.7-34.3-14.9-49
							c8.8-4.8,19.2-6.1,28.9-3.5c15.5,2,29.7,9.3,40.3,20.7c4.7,3.2,5.9,9.7,2.7,14.4c-0.8,1.2-1.9,2.2-3.1,3
							c-11.1-16.2-29.2-26.2-48.8-27.1c1.5,7.8,3.1,15.1,4.2,22.3c2.5,16.8,3.8,34,7.4,50.6c5.1,23.7,19.9,34.6,45.2,34
							c0-16.8-0.1-33.7,0-50.7c-0.2-22.5,11.1-43.6,29.9-56c17.3-11.6,38.7-15.2,58.9-9.9c-16.7,23.7-14.6,50.8-19,76.4
							c-5.6,32.1-18.3,45.6-50.3,53C974.5,300.4,972.4,301,968.8,301.9"/>
						<path id="Trazado_758" d="M1042.5,89.7l20.5,10.5l-15.1,18.6c8.5,10.4,22.3,14.9,35.3,11.6c8.6-1.9,8.6-1.7,14.4,4.4
							c-20.2,15.4-49,8.4-64.9-16.2l10.4-14.5l-23.7-12.3c4.2-8.6,14.3-13.1,10.1-24.2c-2.6-8.2-4.7-16.6-6.4-25.1
							c6.5,0.3,11.3,0.3,16.1,0.9c19.3,2.3,19.3,2.3,34-10.1l14.7,22.3l13.5-12.2c30.7,17.6,36,43.5,15.9,77.9
							c18,22.3,30.6,48.6,36.7,76.6c2.9,14.6,4.6,29.4,5,44.2c1.1,25.2-8.6,49.6-26.6,67.3c-18.7,18.8-37.8,37.2-46.6,63.3
							c-1.5,4.5-2.3,4.2-12.7,3.1c4.2-17.2,12.5-33,24.2-46.3c7.8-9.2,16.4-17.8,25-26.4c16.4-16,25.5-38,24.9-60.9
							c0.6-48.6-18.8-95.3-53.7-129.2c-3.9-3.9-8-7.6-12.6-12l6-9.4l21.4,18.2c14.3-17.1,13.2-31.1-4.5-51l-18.1,16.8l-13.4-21.1
							c-5.1,1.5-10.4,2.6-15.6,3.3c-5.3-0.1-10.5-0.7-15.7-1.7L1042.5,89.7"/>
						<path id="Trazado_759" d="M839.8,75.5l-17-16.1c-18.5,15.8-20.4,32.7-5.4,50.2l21.6-18.5l9,8.7c-6.7,5.5-11.7,8.9-15.9,13.1
							c-33.9,32.4-53.2,77.2-53.5,124.1c0.3,10.4,1.4,20.8,3.3,31.1c1,6.2,2,11.8-4.8,15.4c-22.6-34.2-9.6-102.8,31-162.9
							c-10.9-12.4-14.9-29.4-10.7-45.4c4-13.7,13.2-25.3,25.7-32.2l14.6,12.5l14.5-22.9c2.2,1.6,4.3,3.4,6.1,5.4
							c4.3,6.7,12.7,9.5,20.2,6.6c7.5-1.5,15.1-2.5,22.7-2.9c-0.9,5.5-1.3,9.6-2.3,13.6c-3,12.8-9.4,26.2,9.5,35.1l-26.3,13.7
							l10,13.4c-10.9,22.4-37.9,31.7-60.3,20.8c-1.4-0.7-2.8-1.5-4.2-2.3c1-8.9,6.7-8.1,13-6.2c13.3,3.8,27.7-0.2,37.1-10.4
							l-15.6-19.3l20.5-10.5l2.2-32.5l-32.5-1.4L839.8,75.5"/>
						<path id="Trazado_760" d="M833.2,400.2c-14.4-1-27.8-7.7-37.3-18.6c-22.6-23.4-26.7-59.1-9.9-87c3.1-5.2,6.5-10.2,9.9-15.2
							c16.7-21.6,18.2-51.3,3.9-74.6c-4.3-7.6-4.1-7.8,0.4-17.7c22.8,23,27.9,58.3,12.5,86.8c-4.5,8.2-9.4,16.2-14.9,23.8
							c-18.5,28-10.9,65.7,17.1,84.2c2.8,1.8,5.7,3.5,8.8,4.8C831,389.7,830.9,390.1,833.2,400.2"/>
						<path id="Trazado_761" d="M869.7,387.9c25.6-2.7,51.3,3.9,72.4,18.6c9,6.3,17.4,13.5,26.1,20.1c25.3,22.2,63.8,19.7,86-5.6
							c0.4-0.4,0.8-0.9,1.2-1.4c4.4-4.6,8-9.3,16.2-4.8c-1.3,3.2-2.9,6.4-4.7,9.3c-23.1,31-66.5,38.4-98.6,16.8
							c-6.4-4.3-12.5-9-18.3-14c-18.6-17.6-43.2-27.4-68.8-27.5C874.5,399.6,869,398.5,869.7,387.9"/>
						<path id="Trazado_762" d="M973.9,414c17.6-16,40.2-25.3,64-26.2c9.9-0.8,19.8-0.3,29.6,1.3c30.9,7.1,61.6-12.2,68.7-43.1
							c1.1-4.7,1.5-9.4,1.4-14.2c0.1-6.7-0.6-13.5,8.5-17.2c1.4,2.6,2.5,5.3,3.1,8.1c3.9,38.6-23.9,85.1-77.4,78.3
							c-8.2-1-16.5-1.3-24.7-1.5c-20.5-1-40.8,5-57.6,16.8C983.9,420.3,978.9,422.4,973.9,414"/>
						<path id="Trazado_763" d="M949.9,444.9c-35.3,18.5-78.8,4.9-97.3-30.4c-2-3.8-3.7-7.8-4.9-11.9c-1.1-3.6-1.9-7.4-2.8-11.2
							c-5.2-25.6-18.2-48.9-37.1-66.9c-5.4-5.2-8.5-10.2-0.5-16.3c23.4,18.9,40,44.8,47.5,73.9c0.9,3.2,1.7,6.4,2.3,9.6
							c6.1,33.1,37.9,55.1,71.1,49c2.2-0.4,4.3-0.9,6.4-1.5C941.2,437.4,946.1,436.6,949.9,444.9"/>
						<path id="Trazado_764" d="M974.3,93.6c-5.9,4.8-14.1,5.5-20.7,1.6c-8.8-4.8-12.6-15.4-9-24.8c3.9-10.8,10.1-20.7,18.2-28.9
							c8,8.4,14.1,18.4,18.1,29.2C984,79,981.3,88.3,974.3,93.6 M989.9,67.7c-5.9-16.3-15.1-31.2-27.1-43.8
							c-12.1,12.3-21.4,27.1-27.2,43.3c-5.5,14,0.2,29.9,13.4,37.1c9.8,5.8,22.2,4.8,31-2.4C990.5,94,994.5,80,989.9,67.7"/>
						<path id="Trazado_765" d="M962.7,123.9l25,26.9l32.8-6.6c-6.3,18.5-23.6,13.2-33.6,23.1l-24.1-25.6l-23.2,24.4
							c-11.5-6.8-27.3-4.7-36-22.3l33.9,7.1L962.7,123.9"/>
						<path id="Trazado_766" d="M1124.8,186.9c4.9,4.6,5.4,12.1,1.2,17.3c-13.1,19.8-14,45.3-2.2,66c3.1,5.8,3.1,10.3-2.5,14.2
							C1096.6,260.3,1097.8,218.8,1124.8,186.9"/>
					</g>
				</g>
			</g>
		</g>
	</g>
</g>
</svg>
