<?xml version="1.0" encoding="utf-8"?>
<!-- Generator: Adobe Illustrator 22.0.1, SVG Export Plug-In . SVG Version: 6.00 Build 0)  -->
<svg version="1.1" id="Capa_1" xmlns="http://www.w3.org/2000/svg" xmlns:xlink="http://www.w3.org/1999/xlink" x="0px" y="0px"
	 viewBox="0 0 3354 650" style="enable-background:new 0 0 3354 650;" xml:space="preserve">
<style type="text/css">
	.st0{opacity:0.2;}
	.st1{fill:#131617;}
</style>
<g id="Grupo_84" transform="translate(963 6506.666)">
	<g id="Grupo_83" transform="translate(0 -78.666)">
		<g id="Grupo_82" transform="translate(0 -0.182)" class="st0">
			<g id="Grupo_78">
				<path id="Trazado_801" class="st1" d="M2031.7,75.8h1132.7v15.5H2031.8L2031.7,75.8z"/>
				<path id="Trazado_802" class="st1" d="M1167.1,611.8h1132.6v-15.5H1167.1V611.8z"/>
			</g>
			<g id="Grupo_81">
				<g id="Grupo_80" transform="translate(0 0.182)">
					<g id="Grupo_79" transform="translate(0 -0.182)">
						<path id="Trazado_804" class="st1" d="M666.5,35.1H427.7c-149.5,0-241.1,36.8-295.7,97.1S41.5,297.2,21.5,414.4
							S34.9,603,116.3,603H412v-70.3c-125,0-196.4-21.2-215.4-89.3s4.5-187.5,55.8-254.4s109.4-85.9,165.2-85.9s72.5,25.7,72.5,74.8
							V448H604V177.8c0-49.1,16.7-74.8,72.5-74.8s113.8,19,165.2,85.9s74.8,186.4,55.8,254.4c-19,68.1-90.4,89.4-215.4,89.4v70.3
							h295.7c81.5,0,114.9-71.4,94.9-188.6s-55.8-222.1-110.5-282.3C907.5,71.9,816,35.1,666.5,35.1"/>
						<path id="Trazado_805" class="st1" d="M1948.7,116c0,30.4-6.7,46.1-18.8,46.1c-14.5,0-19.2-16.7-19.2-38.6
							c0-29.6,7.5-43.7,19.5-43.7C1943,79.7,1948.7,93.4,1948.7,116 M1881.6,123.2c-1.7,24.6,16.8,46,41.4,47.7
							c2.2,0.2,4.4,0.1,6.6,0c26.1,0.6,47.7-20.1,48.3-46.2c0-1.9,0-3.8-0.2-5.7c2.1-24.4-16-45.9-40.4-48c-2.5-0.2-5.1-0.2-7.6,0
							c-26.4-0.3-48,20.8-48.3,47.2C1881.4,119.8,1881.5,121.5,1881.6,123.2 M1842.8,57.7c33.9-20.4,35.7-22.7,35.7-28
							c0.1-4.8-3.6-8.7-8.4-8.8c-0.3,0-0.5,0-0.8,0c-5.9,0-7.8,1.4-37.3,36.9L1842.8,57.7z M1834.8,124.8c0,15.9-0.4,29.8-1.6,43.5
							c4.9-0.6,9.8-0.9,14.7-1c4.9,0,9.8,0.4,14.7,1c-1.2-13.7-1.6-27.7-1.6-43.5V117c0-15.9,0.4-29.8,1.6-43.5
							c-4.9,0.6-9.8,1-14.7,1c-4.9,0-9.8-0.4-14.7-1c1.2,13.7,1.6,27.7,1.6,43.5V124.8z M1723.5,152.1c0,25.7-0.6,45.7-1.6,67.8
							c4.9-0.7,9.8-1,14.7-1c4.9,0,9.8,0.3,14.7,1c-1.6-9.4-1.6-44.5-1.6-63.3h0.4c4.8,9.4,14.8,15,25.3,14.3
							c19.2,0,38.6-14.3,38.6-51.6c0-34.1-18.3-48.4-38.1-48.4c-12.5-0.3-23.8,7.6-27.8,19.5h-0.4c0-5.7,1-12.5,1.4-16.9
							c-4.5,0.4-9,1-13.5,1s-9.2-0.6-13.7-1c1,22.2,1.6,42.2,1.6,67.9L1723.5,152.1z M1785.1,119.9c0,25.7-7,38.1-18.2,38.1
							c-11.2,0-18.1-11.1-18.1-34.9c0-29.4,9-40,18.8-40C1778,83,1785.1,94,1785.1,119.9 M1705.3,120.9c0.2-2.2,0.3-4.3,0.2-6.5
							c0-27.2-14.5-43.5-40-43.5c-26.3,0-45.5,16.5-45.5,50.4c-2.5,24.8,15.6,47,40.4,49.5c2.4,0.2,4.8,0.3,7.2,0.1
							c10.7,0.6,21.2-2.5,29.8-8.8l4.3-11l-2.3-1.8c-6.7,5.8-15.3,8.9-24.1,8.8c-18.1,0-26.3-16.1-26.3-37.3H1705.3z M1649,112
							c0.4-15.3,4.2-32.4,15.7-32.4c10.2,0,14.1,12.7,14.5,32.4H1649z M1592.9,74.8c0-11.8,0.8-26.3,1.8-34.8l-1.9-1.4
							c-8.8,4.3-17.9,8.4-26.9,12.2c0.6,10,0.8,15.9,0.8,24.1l-13.7-0.6c0.4,1.7,0.6,3.5,0.6,5.3c0,1.7-0.2,3.3-0.6,4.9l13.7-0.2
							c0,16.5-1.4,41-1.4,56.1c0,19.8,8.6,30.4,24.9,30.4c7.4,0.1,14.8-1.7,21.4-5.1v-8c-2.7,1.6-5.9,2.3-9,2c-9,0-11-4.5-11-31.8
							c0-10.6,0.6-32,1.4-43.7l17.3,0.4c-0.4-1.6-0.6-3.3-0.6-4.9c0-1.8,0.2-3.6,0.6-5.3L1592.9,74.8z M1477.8,73.4
							c-5.1,0.4-9.6,1-14.3,1s-9.2-0.6-13.9-1c1.2,13.7,1.6,27.7,1.6,43.5v7.8c0,15.9-0.4,29.8-1.6,43.5c4.9-0.6,9.8-0.9,14.7-1
							c4.9,0,9.8,0.4,14.7,1c-1.2-13.7-1.6-27.7-1.6-43.5v-7.8c0-18.1,5.3-28.8,17.1-28.8c10.2,0,16.1,7.6,16.1,23.9
							c0.4,18.8-0.4,37.6-2.2,56.3c4.9-0.7,9.8-1,14.7-1c4.9,0,9.8,0.3,14.7,1c-0.4-10-1-20.2-1-28.4c0-10.2,0.8-19.6,0.8-32.9
							c0-25.1-11-36.1-30.6-36.1c-12.2,0.3-23.3,6.8-29.6,17.3h-0.4L1477.8,73.4z M1403.7,116c0,30.4-6.7,46.1-18.8,46.1
							c-14.5,0-19.2-16.7-19.2-38.6c0-29.6,7.5-43.7,19.5-43.7C1398.1,79.7,1403.8,93.4,1403.7,116 M1336.7,123.2
							c-1.7,24.6,16.8,46,41.4,47.7c2.2,0.2,4.4,0.1,6.6,0c26.1,0.6,47.7-20.1,48.3-46.2c0-1.9,0-3.8-0.2-5.7
							c2.1-24.4-16-45.9-40.4-48c-2.5-0.2-5.1-0.2-7.6,0c-26.4-0.3-48,20.8-48.3,47.2C1336.4,119.8,1336.5,121.5,1336.7,123.2
							 M1189.4,79.3c14.7,29.6,28.8,59.4,42.8,89c1.2-0.2,2.5-0.4,3.7-0.4c1.3,0,2.5,0.2,3.7,0.4c14.1-30.4,28.6-60.6,43.3-91h0.4
							c3.1,30.4,6.5,63.7,7.9,91c5.4-0.6,10.8-0.9,16.3-1c5.3,0,10.6,0.4,15.9,1c-4.9-27.7-11.8-90.2-16.9-135.3
							c-2.7,0.6-5.5,0.9-8.2,1c-2.8,0-5.7-0.4-8.4-1c-14.1,31.2-30.2,64.5-45.7,93.7c-14.3-27.7-31-62.6-45.3-93.7
							c-2.6,0.6-5.2,0.9-7.9,1c-2.7,0-5.4-0.4-8-1c-5.6,45.1-12,90.2-20.2,135.3c3-0.6,6.1-0.9,9.2-1c3.1,0,6.2,0.4,9.2,1
							c2-29.6,3.7-59.4,7.8-89L1189.4,79.3z"/>
						<path id="Trazado_806" class="st1" d="M3045.6,274c-10.1,0.8-19.1,1.9-28.5,1.9c-9.4,0-18.3-1.2-27.7-1.9
							c2.3,27.3,3.1,55,3.1,86.5v15.6c0,31.6-0.8,59.2-3.1,86.5c9.7-1.2,19.4-1.9,29.2-2c9.8,0.1,19.5,0.7,29.2,2
							c-2.3-27.3-3.1-55-3.1-86.5v-15.6c0-35.9,10.5-57.3,33.9-57.3c20.3,0,32,15.2,32,47.6c0.7,37.4-0.7,74.7-4.2,111.9
							c9.7-1.4,19.4-2.1,29.2-2c9.8-0.1,19.5,0.6,29.2,2c-0.8-19.9-1.9-40.2-1.9-56.5c0-20.3,1.6-38.9,1.6-65.5
							c0-49.9-21.8-71.7-60.8-71.7c-24.2,0.6-46.4,13.6-58.9,34.3h-0.8L3045.6,274z M2850.3,242.8c67.4-40.5,70.9-45.2,70.9-55.7
							c0.2-9.5-7.2-17.3-16.7-17.6c-0.5,0-1.1,0-1.6,0c-11.7,0-15.6,2.8-74.1,73.3H2850.3z M2898.2,358.5
							c0,60.4-13.2,91.6-37.4,91.6c-28.8,0-38.2-33.1-38.2-76.8c0-58.9,14.8-86.9,38.6-86.9C2886.9,286.4,2898.2,313.7,2898.2,358.5
							 M2764.9,373c0,69,49.1,94.7,95.5,94.7c56.1,0,95.5-39.7,95.5-103.3c0-58.5-35.5-95.5-95.5-95.5
							C2811.3,268.9,2764.9,303.2,2764.9,373 M2589.6,235c5.8-14.4,11.7-17.9,20.7-17.9c16.8,0,36.3,17.9,58.9,17.9
							c28.1,0,42.1-23.4,46-49.1h-16.8c-5.8,14.4-11.7,17.9-20.7,17.9c-9.6-1.1-18.9-4.1-27.3-9c-9.7-5.3-20.5-8.4-31.6-9
							c-28.1,0-42.1,23.4-46,49.1L2589.6,235z M2612.2,273.9c-10.1,0.8-19.1,1.9-28.5,1.9s-18.3-1.2-27.7-1.9
							c2.3,27.3,3.1,55,3.1,86.5V376c0,31.6-0.8,59.2-3.1,86.5c9.7-1.2,19.4-1.9,29.2-2c9.8,0.1,19.5,0.7,29.2,2
							c-2.3-27.3-3.1-55-3.1-86.5v-15.6c0-35.9,10.5-57.3,33.9-57.3c20.3,0,32,15.2,32,47.6c0.7,37.4-0.7,74.7-4.2,112
							c9.7-1.4,19.4-2.1,29.2-2c9.8-0.1,19.5,0.6,29.2,2c-0.8-19.9-1.9-40.2-1.9-56.5c0-20.3,1.6-38.9,1.6-65.5
							c0-49.9-21.8-71.7-60.8-71.7c-24.2,0.6-46.4,13.6-58.8,34.3h-0.8L2612.2,273.9z M2450.4,200.2c-0.1,16.9,13.5,30.7,30.4,30.8
							c0.1,0,0.3,0,0.4,0c16.9,0.1,30.7-13.5,30.8-30.4c0-0.1,0-0.3,0-0.4c0.1-16.9-13.5-30.7-30.4-30.8c-0.1,0-0.3,0-0.4,0
							c-16.9-0.1-30.7,13.5-30.8,30.4C2450.4,200,2450.4,200.1,2450.4,200.2 M2455.1,376c0,31.6-0.8,59.2-3.1,86.5
							c9.7-1.2,19.4-1.9,29.2-2c9.8,0.1,19.5,0.7,29.2,2c-2.3-27.3-3.1-55-3.1-86.5v-15.6c0-31.6,0.8-59.3,3.1-86.5
							c-9.7,1.2-19.4,1.9-29.2,1.9c-9.8-0.1-19.5-0.7-29.2-1.9c2.3,27.3,3.1,55,3.1,86.5V376z M2341.3,410.3
							c-15.2-45.6-29.2-91.2-43.3-136.4c-9.7,0.8-19.5,1.9-29.2,1.9s-19.9-1.2-30.8-1.9c14.8,38.9,47.2,126.7,67.4,188.7
							c7-1,14-1.7,21-2c7,0.3,14.1,0.9,21,2c20.8-64.3,45.4-127.3,73.7-188.7c-5.4,1-10.9,1.6-16.4,1.9c-5.4-0.3-10.7-0.9-16-1.9
							c-14.8,45.6-30,90.8-46.8,136.4H2341.3z M2159.3,402.2c0,25.3-11.7,38.6-28.8,38.6c-13.6,0-22.2-10.5-22.2-29.6
							c0-39.4,29.2-37.4,51.4-49.9C2159.6,370.2,2159.2,379.5,2159.3,402.2 M2071.9,319.5h2.8c12-13.3,28.9-21.1,46.8-21.4
							c18.8-1.8,35.5,12,37.3,30.8c0.1,1,0.1,2.1,0.2,3.1c0,14-3.9,17.1-47.6,27.7c-35.1,8.6-57.7,23-57.7,56.9
							c0,24.9,16.4,51.1,55.7,51.1c20.6-0.1,39.8-10.9,50.6-28.4c4.2,16.9,19.6,28.7,37,28.5c12.7-0.2,25.1-3.8,35.9-10.5v-9.4
							c-16,0-23-2.3-23-26.9c0-28.1,1.2-55.3,1.2-88.5c0-46-30-63.5-71.3-63.5c-26.7,0.6-52.4,10.2-72.9,27.3L2071.9,319.5z
							 M2004.9,246.2c5.1-17.2,7.8-26.5,12.5-38.6c-18.5-13.5-41.1-20.2-64-19.1c-46.4,0-87.7,29.6-87.7,83.4
							c0,88.5,116.2,72.9,116.2,131.8c0,21.8-15.2,39.7-45.6,39.7c-26,1.7-49.2-16.4-53.8-42.1h-7.4c-2.7,16.7-6.5,33.3-11.3,49.5
							c18.8,11.7,40.6,17.6,62.8,16.8c62,0,103.3-35.9,103.3-88.1c0-88.5-118.5-74.1-118.5-131.8c1.4-20.8,19.3-36.5,40.1-35.1
							c0.2,0,0.3,0,0.5,0c21.6-1.3,41.3,12.7,47.2,33.5L2004.9,246.2z M1557.8,462.7c7.8-0.4,26.1-2,83.4-2c46.8,0,62.4,0.4,85,2
							c-0.8-4.5-1.2-9.1-1.2-13.6c0-4.4,0.4-8.9,1.2-13.3c-33.3,3.6-66.7,5.1-100.2,4.7c31.6-50.7,67-100.6,103.3-150.9V274
							c-26.2,2.2-52.5,2.8-78.7,1.9c-30.4,0-55.3,0.4-80.6-1.9c0.9,4.4,1.4,8.8,1.6,13.2c-0.2,4.6-0.7,9.1-1.6,13.6
							c30.2-3.2,60.5-4.7,90.8-4.7c-33.5,50.7-67.8,100.6-102.9,150.5L1557.8,462.7z M1469.3,462.7c10.1-0.8,19.1-2,28.4-2
							c9.3,0,18.3,1.2,27.7,2c-2.3-27.3-3.1-55-3.1-86.5v-15.6c0-31.6,0.8-59.3,3.1-86.5c-9.7,1.2-19.4,1.9-29.2,1.9
							c-9.8-0.1-19.5-0.7-29.2-1.9c2.3,27.3,3.1,55,3.1,86.5v15.6c0,35.9-10.5,57.3-33.9,57.3c-20.3,0-32-15.2-32-47.6
							c-0.7-37.3,0.7-74.7,4.3-111.9c-9.7,1.4-19.4,2-29.2,1.9c-9.8,0.1-19.5-0.6-29.2-1.9c0.8,19.9,1.9,40.2,1.9,56.5
							c0,20.3-1.6,38.9-1.6,65.5c0,49.9,21.8,71.7,60.8,71.7c24.2-0.6,46.4-13.6,58.9-34.3h0.8L1469.3,462.7z M1169.2,354.6
							c0,43.7-0.8,73.7-3.1,108c27.5-2,55.1-2.7,82.6-2c35.9,0,54.2,1.6,68.2,2c-1.1-5.5-1.6-11.1-1.6-16.8c0-5.9,0.5-11.7,1.6-17.5
							c-29.6,3.4-59.4,5.1-89.3,5.1c-0.4-20.3-0.8-49.9-0.8-78.7v-53c0-43.7,0.8-73.7,3.1-108c-8.6,0.8-19.1,1.9-32,1.9
							c-12.9,0-23.4-1.2-32-1.9c2.3,34.3,3.1,64.3,3.1,108L1169.2,354.6z"/>
						<path id="Trazado_807" class="st1" d="M3087.3,615.9c11.9-0.3,23.9-0.8,35.8-0.8c12.5,0,24.7,0.5,37.2,0.8
							c-0.2-3.6-0.7-7.3-0.7-10.9c0-3.6,0.5-7.1,0.7-10.8c-15.6,1.2-31.4,1.2-46.9,1.4l-0.2-0.3c38.5-32.9,47.3-48.3,47.3-62.9
							c0-12.8-8.1-28.7-38.8-28.7c-15-1.6-29.2,7.1-34.5,21.2c4.3,3.5,8.6,6.8,12.9,10.9l1.7-0.5c-0.2-8.6,3.5-24.2,15.8-24.2
							c8.5,0,16.8,6,16.8,24.1c0,21.9-12.9,42.1-46.9,73.3L3087.3,615.9z M3048.4,560c0,41.7-4.6,50.3-14.4,50.3
							c-12.6,0-14.1-15.3-14.1-51.9c0-37.8,4.5-47.9,14.4-47.9C3044.3,510.5,3048.4,519.6,3048.4,560 M2994.5,559.9
							c0,35.2,12.1,57.9,39.6,57.9c26.9,0,39.6-22.4,39.6-60.4c0-35.5-14.4-53.7-38.5-53.7C3009.3,503.7,2994.5,524.2,2994.5,559.9
							 M2954.3,539.1c0,17.4-6.6,24.1-13.9,24.1c-8,0-14.1-6.5-14.1-25.7c0-16.4,5-26.4,13.9-26.4
							C2948.7,511.1,2954.3,518.4,2954.3,539.1 M2909.8,605.3c1.6,3.2,3,6.4,4.2,9.7c3.8,2,8.1,2.9,12.4,2.7
							c31.4,0,52.4-25.2,52.4-67.7c0-31-16.1-46.4-40.3-46.4c-19.3-1.5-36.2,13-37.6,32.4c-0.1,1.7-0.1,3.3,0,5
							c-1,16.5,11.5,30.6,27.9,31.7c1.2,0.1,2.4,0.1,3.6,0c8.4,0.9,16.7-2.6,21.9-9.3l0.3,0.3c-0.8,32.2-15.1,46.8-28,46.8
							c-5.8-0.1-11.4-2.3-15.6-6.3L2909.8,605.3z M2861.7,502.3c-15.8,8.3-32.3,15.4-49.1,21.4c3.1,2.7,5.8,5.8,8.1,9.1
							c6.1-2.7,15.9-8.1,19.3-9.5v46.8c0,18.4-1.4,37.3-1.8,45.8c4.3-0.3,8.8-0.8,13.1-0.8s8.6,0.5,12.9,0.8
							c-0.8-22.7-1-34.8-1-52.6v-10.1c0-16.7,0.7-36.3,1.7-49.6L2861.7,502.3z M2752.1,575.8c0.2-1.8,0.2-3.7,0.2-5.5
							c2.5-17.7-9.8-34.1-27.5-36.6c-2.1-0.3-4.2-0.4-6.3-0.3c-22.2,0-38.5,13.9-38.5,42.6c-2.1,21,13.2,39.8,34.2,41.9
							c2,0.2,4.1,0.2,6.1,0.1c9,0.5,17.9-2.1,25.2-7.5l3.6-9.3l-1.9-1.5c-5.7,4.9-12.9,7.5-20.4,7.5c-15.3,0-22.2-13.6-22.2-31.5
							L2752.1,575.8z M2704.5,568.3c0.3-12.9,3.5-27.4,13.3-27.4c8.6,0,11.9,10.8,12.3,27.4H2704.5z M2612.2,577.4
							c0-25.4,8.1-32.5,15.1-32.5c8.6,0,14.8,9,14.8,29.5c0,23.9-6.6,33.4-15.6,33.4C2619,607.8,2612.2,600,2612.2,577.4
							 M2664.3,547.8c0-21.7,0.5-38.6,1.4-57.4c-4.1,0.6-8.3,0.9-12.4,0.8c-4.2,0-8.3-0.2-12.4-0.8c0.8,18.8,1.4,35.7,1.4,55.4h-0.3
							c-4.7-7.7-13.1-12.4-22.1-12.3c-17.9,0-32,17.8-32,41.5c0,23.7,9.3,43.1,31.7,43.1c10.6,0.5,20.3-6,23.7-16.1l0.3,0.3
							c-0.2,4.6-0.7,9.1-1.4,13.6c3.7-0.6,7.4-0.9,11.1-0.8c4.2,0,8.3,0.2,12.4,0.8c-0.8-18.7-1.4-35.7-1.4-57.4L2664.3,547.8z
							 M2525.1,595c-0.3,5.4-1.2,10.7-2.5,15.9c6.8,4.5,14.7,7,22.9,7.1c15.8,1.8,30-9.5,31.8-25.3c0.1-0.9,0.2-1.9,0.2-2.8
							c0-29.4-39.1-22.4-39.1-38.5c0.4-5.8,5.4-10.1,11.2-9.7c0.2,0,0.4,0,0.6,0.1c8.1,0.2,14.9,6,16.4,13.9h4.7c0.6-5,2-9.9,4-14.6
							c-6.7-5.1-14.9-7.8-23.4-7.8c-14.7-1.3-27.7,9.6-28.9,24.3c-0.1,0.8-0.1,1.6-0.1,2.4c0,28.9,38.2,23.9,38.2,38.9
							c-0.7,5.9-6.1,10.2-12,9.5c0,0-0.1,0-0.1,0c-8.9,0.5-16.9-5.1-19.6-13.6L2525.1,595z M2512.4,575.7c0.2-1.8,0.2-3.7,0.2-5.5
							c2.5-17.7-9.8-34.1-27.5-36.6c-2.1-0.3-4.2-0.4-6.3-0.3c-22.2,0-38.5,13.9-38.5,42.6c-2.1,21,13.2,39.7,34.2,41.9
							c2,0.2,4.1,0.2,6.1,0.1c9,0.5,17.9-2.1,25.2-7.5l3.7-9.3l-2-1.5c-5.7,4.9-12.9,7.5-20.4,7.5c-15.3,0-22.2-13.6-22.2-31.5
							L2512.4,575.7z M2464.8,568.3c0.3-12.9,3.5-27.4,13.3-27.4c8.6,0,11.9,10.8,12.3,27.4H2464.8z M2372.6,577.4
							c0-25.4,8.1-32.5,15.1-32.5c8.6,0,14.8,9,14.8,29.5c0,23.9-6.6,33.4-15.6,33.4C2379.4,607.8,2372.6,600,2372.6,577.4
							 M2424.6,547.7c0-21.7,0.5-38.6,1.4-57.4c-4.1,0.6-8.3,0.9-12.4,0.8c-4.2,0-8.3-0.2-12.4-0.8c0.8,18.8,1.4,35.7,1.4,55.4h-0.3
							c-4.7-7.7-13-12.4-22-12.3c-17.9,0-32,17.8-32,41.5c0,23.7,9.3,43.1,31.7,43.1c10.6,0.5,20.3-6,23.7-16.1l0.3,0.3
							c-0.2,4.6-0.7,9.1-1.4,13.6c3.7-0.6,7.4-0.9,11.1-0.8c4.2,0,8.3,0.2,12.4,0.8c-0.8-18.7-1.4-35.7-1.4-57.4L2424.6,547.7z"/>
						<path id="Trazado_808" class="st1" d="M3270.9,318.7c-33.3,0-60.2-27-60.2-60.2c0,0,0,0,0,0c0-33.3,27-60.2,60.2-60.2
							c33.3,0,60.2,27,60.2,60.2c0,0,0,0,0,0C3331.2,291.7,3304.2,318.7,3270.9,318.7C3270.9,318.7,3270.9,318.7,3270.9,318.7
							 M3270.9,187.2c-39.3,0-71.2,31.9-71.3,71.3c0,39.4,31.9,71.3,71.3,71.3c39.4,0,71.3-31.9,71.3-71.3
							C3342.2,219.1,3310.3,187.2,3270.9,187.2L3270.9,187.2"/>
						<path id="Trazado_809" class="st1" d="M3305.4,240.8c0.6-0.2,1.3-0.3,2-0.3c2.8,0,4.4,1.6,4.4,6.2c0,6.3-5.1,28.9-12.4,28.9
							c-1.6,0-2.8-1.2-2.8-3.6c0.1-1.5,0.3-3,0.8-4.4L3305.4,240.8z M3298.5,228.1c-1,0-1.9,0.7-2.1,1.7l-2.8,9.1l-3.9,1.3
							c-2.5,0.9-3.5,1.2-3.5,2.4c0,0.9,0.3,1.3,1.2,1.3c0.6,0,3.4-0.9,5.1-1.3l-12.9,44.6c-1.2,4.2-2.9,5.6-6.7,5.8
							c-1.6,0.1-2.1,0.9-2.1,1.8c0,0.6,0.4,1.1,0.9,1.1c0.1,0,0.1,0,0.2,0c3.2,0,6.5-0.3,12.4-0.3c5,0,8.1,0.3,11,0.3
							c1.6,0,2.1-0.2,2.1-1.4c0-1.2-0.8-1.4-2-1.5c-2.4-0.2-4.4-1-4.4-3.3c0.7-4.6,1.9-9.1,3.7-13.4c2.2,1.4,4.9,2.2,7.5,2.1
							c15.4,0,21.8-19.2,21.8-28.4c0.8-6.4-3.8-12.2-10.2-13c-0.9-0.1-1.9-0.1-2.8,0c-0.8,0-1.6,0.1-2.4,0.2
							c-0.8,0.1-1.5,0.3-2.4,0.3c0.9-2.7,1.7-5.5,2.2-8.3c0-0.7-0.5-1-1.2-1L3298.5,228.1z M3267.7,240.8c1.6,0,1.9,1.2,1.9,2.4
							c0,5.8-10.3,26.7-15.3,26.7c-0.9,0-1.8-0.5-1.8-2.8C3252.5,261.3,3263.2,240.7,3267.7,240.8 M3273.8,237.4
							c-2.2,0-1.9,0.5-2.8,2.1c-1.1-0.8-2.5-1.3-3.9-1.2c-14.9,2.4-25.9,15.3-25.8,30.5c0,5.3,1.4,8.7,6.4,8.7
							c6.8,0,12.7-9.2,16.1-13.9l0.2,0.2c-1,3.1-1.6,6.4-1.8,9.7c0,2.6,0.7,4.8,3.8,4.8c8.8,0,16-13.9,16-15.8
							c0-0.6-0.3-0.8-0.8-0.8c-0.5,0-0.9,0.7-2.4,3.3c-1.5,2.6-3.3,4.9-4.5,4.9c-0.5,0-0.8-0.4-0.8-1.4c0.2-2,0.6-3.9,1.3-5.7
							l6.1-20.9c0.4-1.1,0.7-2.3,0.9-3.4c0-0.5-0.3-0.9-1.1-0.9L3273.8,237.4z M3237.1,221.1c-4.1,0.1-7.3,3.5-7.2,7.5
							c0,4,2.4,5.8,6.2,5.8c3.9-0.4,6.9-3.8,6.8-7.7C3242.9,222.9,3241,221.1,3237.1,221.1 M3216.7,273.1c-0.3,2.5,1.5,4.9,4,5.2
							c0.3,0,0.6,0,0.9,0c8.5,0,17.8-12.8,17.8-16.4c0-0.6-0.4-0.8-0.9-0.8c-1.1,0-1.1,1.3-3.6,4.8c-1.4,2.1-3.4,4.2-4.5,4.2
							c-0.5,0.1-1-0.3-1-0.8c0-0.1,0-0.2,0-0.3c0.6-3.5,1.8-7,3.3-10.2c2.5-5.6,4.3-11.5,5.4-17.5c0-2.8-2-4.4-5.5-4.4
							c-7.6,1.1-14,6.3-16.7,13.5c0,0.5,0.4,0.9,0.9,0.9c0,0,0,0,0,0c0.8,0,1.2-0.7,3.1-3.4s4-4.7,5-4.7c0.4,0,0.8,0.3,0.8,0.9
							C3222.1,253.6,3219.1,263.2,3216.7,273.1"/>
					</g>
				</g>
			</g>
		</g>
	</g>
</g>
</svg>
