<?xml version="1.0" encoding="utf-8"?>
<!-- Generator: Adobe Illustrator 22.0.1, SVG Export Plug-In . SVG Version: 6.00 Build 0)  -->
<svg version="1.1" id="Capa_1" xmlns="http://www.w3.org/2000/svg" xmlns:xlink="http://www.w3.org/1999/xlink" x="0px" y="0px"
	 viewBox="0 0 1000 1000" style="enable-background:new 0 0 1000 1000;" xml:space="preserve">
<style type="text/css">
	.st0{fill:#F15223;}
</style>
<g>
	<path class="st0" d="M989.5,210.3c-8.4-10.5-20-15.8-32.6-15.8h-710L223.8,76.7c-4.2-20-21-33.7-42.1-33.7L41.8,43
		C18.7,43-0.2,61.9-0.2,85.1s18.9,42.1,42.1,42.1H146l112.6,563.8c4.2,20,21,33.7,42.1,33.7h558.5c20,0,36.8-13.7,41-33.7l96.8-446
		C1001.1,233.4,998,220.8,989.5,210.3L989.5,210.3z M825.4,640.5H335.3l-71.5-360.8h640.6L825.4,640.5z"/>
	<path class="st0" d="M489.9,871.9c0,47.1-38.1,85.2-85.2,85.2c-47.1,0-85.2-38.1-85.2-85.2c0-47.1,38.1-85.2,85.2-85.2
		C451.8,786.7,489.9,824.8,489.9,871.9"/>
	<path class="st0" d="M836,871.9c0,47.1-38.1,85.2-85.2,85.2c-47.1,0-85.2-38.1-85.2-85.2c0-47.1,38.1-85.2,85.2-85.2
		C797.8,786.7,836,824.8,836,871.9"/>
</g>
</svg>
