<?xml version="1.0" encoding="utf-8"?>
<!-- Generator: Adobe Illustrator 22.0.1, SVG Export Plug-In . SVG Version: 6.00 Build 0)  -->
<svg version="1.1" id="Capa_1" xmlns="http://www.w3.org/2000/svg" xmlns:xlink="http://www.w3.org/1999/xlink" x="0px" y="0px"
	 viewBox="0 0 715.3 161" style="enable-background:new 0 0 715.3 161;" xml:space="preserve">
<style type="text/css">
	.st0{fill:#E5E4E3;}
</style>
<path class="st0" d="M610.7,121.7l1.8-2.2c1.2,1.1,2.6,1.7,4.2,1.7c1.2,0,2-0.5,2-1.3v0c0-0.8-0.5-1.2-2.8-1.8
	c-2.8-0.7-4.6-1.5-4.6-4.2v0c0-2.6,2-4.2,4.9-4.2c2,0,3.8,0.6,5.2,1.8l-1.6,2.3c-1.2-0.8-2.4-1.4-3.6-1.4c-1.2,0-1.8,0.6-1.8,1.2
	v0.1c0,0.9,0.6,1.2,3,1.8c2.8,0.7,4.4,1.7,4.4,4.2v0.1c0,2.8-2.1,4.3-5.1,4.3C614.5,123.9,612.4,123.2,610.7,121.7"/>
<path class="st0" d="M632.5,117.8l-1.9-4.5l-1.9,4.5H632.5z M629.3,109.6h2.8l6,14.1h-3.2l-1.3-3.1h-5.9l-1.3,3.1h-3.1L629.3,109.6z
	"/>
<g>
	<path class="st0" d="M639.6,116.8L639.6,116.8c0-4,3-7.3,7.3-7.3c2.6,0,4.2,0.9,5.5,2.2l-2,2.2c-1.1-1-2.1-1.6-3.6-1.6
		c-2.3,0-4,1.9-4,4.3v0c0,2.4,1.7,4.4,4,4.4c1.6,0,2.6-0.6,3.7-1.7l2,2c-1.5,1.5-3.1,2.5-5.8,2.5C642.7,124,639.6,120.8,639.6,116.8
		"/>
</g>
<polygon class="st0" points="655,109.7 658.3,109.7 661.9,115.6 665.6,109.7 668.9,109.7 668.9,123.7 665.9,123.7 665.9,114.6 
	661.9,120.6 661.9,120.6 658,114.7 658,123.7 655,123.7 "/>
<polygon class="st0" points="672.3,109.7 682.8,109.7 682.8,112.5 675.3,112.5 675.3,115.3 681.9,115.3 681.9,118 675.3,118 
	675.3,121 683,121 683,123.7 672.3,123.7 "/>
<polygon class="st0" points="689.5,116.6 684.8,109.7 688.4,109.7 691.3,114.3 694.3,109.7 697.8,109.7 693.1,116.6 698,123.7 
	694.4,123.7 691.3,118.9 688.1,123.7 684.6,123.7 "/>
<g>
	<path class="st0" d="M657.9,85.4c-0.4,0-0.7,0-1,0c-0.3,0-0.6,0-0.9,0c-0.1,0-0.2,0-0.2,0.1c-0.3,0.5-0.6,0.9-0.9,1.4
		c-0.1,0.1,0,0.1,0,0.2c0.4,0.6,0.7,1.1,1.1,1.7c0.1,0.2,0.3,0.3,0.5,0.5c0.4,0.3,0.7,0.6,1.1,1c0,0,0.1,0,0.1,0.1
		c-0.3,0.2-0.5,0.3-0.8,0.5c0,0-0.1,0-0.1,0c-0.7-0.3-1.4-0.6-2-0.9c-0.1-0.1-0.2-0.2-0.4-0.3c-0.8-0.7-1.4-1.4-1.8-2.4
		c-0.1-0.3-0.2-0.7-0.3-1c-0.1-0.4-0.2-0.8-0.2-1.2c-0.1-0.4-0.1-0.9-0.2-1.3c-0.1-0.4-0.1-0.9-0.1-1.3c0-0.2,0-0.4,0-0.6
		c0-0.7-0.1-1.4-0.1-2.1c0-0.8-0.1-1.6-0.1-2.3c-0.1-0.9-0.1-1.8-0.2-2.7c0-0.7-0.1-1.5-0.1-2.2c-0.1-1-0.1-2-0.2-2.9
		c0-0.4,0-0.9-0.1-1.3c0-1-0.1-2-0.1-3c0-0.7-0.1-1.3-0.1-2c-0.1-1.2-0.1-2.4-0.2-3.7c0-0.7,0-1.5,0-2.2c0-0.3,0.1-0.5,0.1-0.8
		c0-0.3,0.1-0.6,0.1-0.9c0-0.2,0.1-0.4,0.1-0.6c0,0,0.1-0.1,0.1-0.1c0.7-0.3,1.4-0.6,2-1c0.2-0.1,0.3-0.1,0.5-0.1
		c0.6-0.1,1.2-0.2,1.9-0.2c0.3,0,0.6-0.1,0.8,0.1c-0.2,0.3-0.4,0.6-0.7,1c-0.4,0.5-0.8,1-1.1,1.5c-0.5,0.7-0.9,1.6-1.1,2.5
		c-0.2,0.7-0.2,1.4-0.2,2.1c0.1,1.8,0.7,3.4,1.7,4.8c1.1,1.5,2.4,2.6,4.1,3.3c0.7,0.3,1.4,0.5,2.1,0.6c0.9,0.2,1.8,0.2,2.7,0.2
		c0.6,0,1.1-0.1,1.7-0.3c0.8-0.2,1.7-0.5,2.5-0.7c0.3-0.1,0.7-0.1,1,0c-0.2,0.3-0.3,0.7-0.5,1c-0.3,0.3-0.5,0.5-0.7,0.8
		c-0.2,0.2-0.2,0.5-0.3,0.8c-0.1,0.4-0.2,0.9-0.3,1.3c-0.1,0.4-0.2,0.8-0.4,1.2c-0.1,0.1-0.2,0.2-0.3,0.3c-0.7,0.4-1.5,0.8-2.2,1.3
		c-1.2,0.7-2.3,1.6-3.4,2.5c-0.3,0.2-0.6,0.4-0.8,0.7c-0.3,0.2-0.5,0.5-0.7,0.8c-0.3,0.4-0.7,0.8-1,1.2c-0.2,0.3-0.4,0.6-0.4,0.9
		c-0.1,0.5-0.2,0.9-0.2,1.4c0,0.5,0.1,1,0.2,1.5c0,0.3,0.1,0.6,0.1,0.8C657.9,85.1,657.9,85.2,657.9,85.4"/>
	<path class="st0" d="M632.3,70.8c-0.3,0-0.8,0.1-1.3,0.2c-0.3,0.1-0.6,0.1-0.8,0.3c-0.4,0.3-0.8,0.6-1.3,0.9
		c-0.2,0.1-0.4,0.3-0.5,0.5c-0.5,0.7-0.7,1.4-0.8,2.2c-0.1,0.6-0.1,1.2,0.1,1.8c0.4,1.1,1,2,2,2.7c0.6,0.4,1.2,0.6,1.8,0.7
		c0.7,0.1,1.3,0.1,2,0c0.5-0.1,1.1-0.3,1.5-0.5c0.9-0.4,1.5-1,2-1.9c0.3-0.5,0.4-1,0.5-1.6c0.1-0.6,0.1-1.2,0-1.8
		c-0.3-1.1-0.9-1.9-1.8-2.6C634.8,71.1,633.7,70.8,632.3,70.8 M630.4,83.5c-0.7,0-1.3,0-2,0c-0.3,0-0.6-0.1-0.9-0.1
		c-0.3,0-0.6-0.1-0.9-0.1c-0.7,0-1.2-0.3-1.6-0.8c-0.5-0.5-0.8-1.1-1-1.7c-0.2-0.5-0.4-1.1-0.5-1.6c-0.1-0.5-0.2-0.9-0.2-1.4
		c0-0.6-0.1-1.3-0.1-1.9c0-0.4,0.1-0.9,0.1-1.3c0.1-0.3,0.1-0.7,0.2-1c0.2-0.6,0.3-1.2,0.5-1.7c0.3-0.8,0.7-1.6,1.2-2.3
		c0.6-0.8,1.3-1.5,2.3-1.9c0.4-0.2,0.8-0.3,1.2-0.3c1.3-0.2,2.6-0.2,3.9-0.2c1.1,0,2.1,0,3.2,0c0.9,0,1.7,0.1,2.6,0.2
		c0.5,0.1,1.1,0.2,1.6,0.3c0.3,0.1,0.5,0.2,0.6,0.5c0.3,0.4,0.4,0.8,0.6,1.2c0.2,0.7,0.3,1.4,0.4,2.1c0.1,0.9,0.1,1.8,0.2,2.7
		c0,0.9,0.1,1.7,0.1,2.6c0,0.9,0.1,1.9,0,2.8c0,0.6-0.1,1.3-0.2,1.9c0,0.2-0.1,0.4-0.2,0.5c-0.1,0.3-0.3,0.5-0.7,0.6
		c-0.4,0.1-0.9,0.3-1.3,0.4c-0.4,0.1-0.8,0.1-1.2,0.2c-0.3,0.1-0.7,0.1-1.1,0.1c-0.3,0-0.7,0.1-1,0.1c-0.6,0.1-1.2,0.1-1.9,0.2
		c-0.5,0-1.1,0-1.6,0.1C631.9,83.5,631.1,83.5,630.4,83.5L630.4,83.5z"/>
	<path class="st0" d="M644.9,91.4c0,0.4,0,0.8,0,1.2c0,0.1,0,0.2-0.1,0.2c-0.9,0.5-1.8,1.1-2.8,1.6c-0.3,0.2-0.7,0.3-1.1,0.4
		c-0.6,0.2-1.2,0.3-1.8,0.5c-0.3,0.1-0.6,0.1-1,0.2c-0.4,0.1-0.8,0.2-1.2,0.2c-0.5,0.1-1,0.2-1.6,0.2c-0.7,0.1-1.5,0.1-2.2,0.1
		c-0.7,0-1.3,0-2-0.2c-0.4-0.1-0.8-0.2-1.1-0.4c-0.2-0.1-0.3-0.3-0.4-0.5c-0.3-0.4-0.6-0.9-0.9-1.3c-0.2-0.4-0.4-0.8-0.6-1.2
		c-0.3-0.7-0.5-1.4-0.7-2.1c-0.2-0.6-0.3-1.1-0.4-1.7c-0.1-0.3-0.1-0.6-0.1-0.9c0-0.4,0-0.7,0-1.1c0-0.1,0-0.2,0.1-0.2
		c0.1,0,0.2-0.1,0.3-0.2c0.2-0.1,0.4-0.2,0.6-0.2c0.7-0.1,1.4-0.1,2.1-0.2c0.2,0,0.4,0,0.6,0c0.7,0,1.3-0.1,2-0.1
		c0.7,0,1.4-0.1,2-0.1c0.8-0.1,1.6-0.1,2.4-0.2c0.6,0,1.1-0.1,1.7-0.1c0.9-0.1,1.7-0.1,2.6-0.2c0.3,0,0.4,0,0.6,0.2
		c0.3,0.4,0.7,0.7,1.1,1.1c0.2,0.2,0.3,0.5,0.4,0.7c0.4,1,0.8,2,1.2,3c0,0.1,0,0.1,0,0.2C644.9,90.6,644.9,91,644.9,91.4L644.9,91.4
		z"/>
	<path class="st0" d="M655.6,37.9c0,0.4,0,0.8-0.1,1.2c0,0.1-0.1,0.2-0.2,0.2c-0.7,0.3-1.5,0.5-2.3,0.6c-0.6,0.1-1.1,0.2-1.7,0.3
		c-0.6,0.1-1.2,0.2-1.8,0.3c-0.6,0.1-1.2,0.3-1.8,0.4c-0.4,0.1-0.7,0.1-1.1,0.2c-0.5,0.1-0.9,0.2-1.4,0.3c-0.4,0.1-0.7,0.1-1.1,0.2
		c-0.5,0.1-1,0.2-1.5,0.3c-0.6,0.1-1.2,0.2-1.8,0.4c-0.6,0.1-1.1,0.3-1.7,0.4c-0.5,0.1-0.9,0.2-1.4,0.3c-0.5,0.1-1.1,0.3-1.6,0.4
		c-0.5,0.1-1,0.2-1.6,0.4c-0.5,0.1-1,0.3-1.5,0.4c-0.4,0.1-0.8,0.2-1.2,0.3c-0.5,0.1-1,0.3-1.4,0.4c-0.6,0.2-1.2,0.3-1.8,0.5
		c-0.4,0.1-0.8,0.2-1.2,0.3c-0.5,0.1-1.1,0.2-1.6,0.3c-0.4,0-0.7,0.1-1.1,0.1c0,0-0.1,0-0.1-0.1c-0.3-0.6-0.5-1.3-0.8-1.9
		c-0.2-0.4-0.1-0.8,0-1.1c0.1-0.4,0.1-0.7,0.2-1.1c0-0.3,0.1-0.6,0.1-0.8c0-0.1,0.1-0.2,0.2-0.3c0.4-0.4,0.8-0.7,1.4-0.9
		c0.6-0.2,1.2-0.3,1.9-0.5c0.5-0.1,1-0.2,1.5-0.3c0.4-0.1,0.9-0.1,1.3-0.2c0.5-0.1,0.9-0.2,1.4-0.2c0.5-0.1,0.9-0.1,1.4-0.2
		c0.4-0.1,0.9-0.1,1.3-0.2c0.4-0.1,0.8-0.1,1.1-0.2c0.7-0.1,1.4-0.2,2.1-0.3c0.6-0.1,1.1-0.1,1.7-0.2c0.5-0.1,1-0.1,1.5-0.2
		c0.4-0.1,0.8-0.1,1.3-0.1c0.6-0.1,1.1-0.1,1.7-0.2c0.3,0,0.7-0.1,1-0.1c0.4,0,0.8-0.1,1.2-0.1c0.2,0,0.4,0,0.5-0.1
		c0.9-0.1,1.7-0.2,2.6-0.2c0.7-0.1,1.4-0.1,2-0.1c0.9,0,1.8-0.1,2.7,0c0.3,0,0.6,0.1,0.9,0.2c0,0,0.1,0.1,0.1,0.1
		c0.2,0.3,0.3,0.6,0.5,0.9C655.6,37.7,655.6,37.8,655.6,37.9C655.6,37.9,655.6,37.9,655.6,37.9"/>
	<path class="st0" d="M624.7,52.5c0.1-0.5,0.1-1,0.1-1.5c0-0.2,0-0.4,0.1-0.7c0-0.2,0-0.4,0.1-0.6c0,0,0.1-0.1,0.1-0.1
		c0.5-0.3,1-0.5,1.5-0.7c0.4-0.2,0.8-0.3,1.2-0.4c0.7-0.2,1.4-0.4,2.1-0.6c0.5-0.2,1.1-0.3,1.6-0.5c0.6-0.2,1.1-0.3,1.7-0.5
		c0.6-0.2,1.2-0.3,1.7-0.5c0.6-0.2,1.2-0.3,1.8-0.5c0.6-0.2,1.2-0.3,1.8-0.5c0.6-0.2,1.2-0.3,1.9-0.5c0.5-0.1,0.9-0.2,1.4-0.4
		c0.5-0.1,1-0.3,1.5-0.4c0.4-0.1,0.8-0.2,1.2-0.3c0.5-0.1,1-0.3,1.6-0.4c0.4-0.1,0.8-0.2,1.3-0.3c0.5-0.1,1-0.3,1.6-0.4
		c0.4-0.1,0.8-0.2,1.2-0.3c0.7-0.2,1.4-0.3,2-0.5c0.7-0.2,1.3-0.3,2-0.4c0.3,0,0.6-0.1,1-0.1c0.1,0,0.3,0,0.4,0
		c0.6,0.1,0.8,0.5,0.9,1c0.1,0.3,0,0.6,0,0.9c0,0.2,0,0.5-0.1,0.7c0,0.1-0.1,0.1-0.1,0.2c-0.9,0.4-1.9,0.8-2.9,1.1
		c-1.2,0.4-2.4,0.8-3.5,1.2c-1,0.3-2.1,0.6-3.1,1c-1,0.3-2,0.6-3,0.9c-1.2,0.4-2.4,0.8-3.6,1.2c-1.1,0.4-2.2,0.8-3.3,1.2
		c-1.2,0.4-2.3,0.9-3.4,1.3c-1,0.4-2.1,0.8-3.1,1.1c-0.8,0.3-1.6,0.6-2.5,0.8c-0.5,0.1-0.9,0.2-1.4,0.3c-0.2,0-0.3,0.1-0.5,0.1
		c0,0-0.1,0-0.1-0.1c-0.2-0.3-0.4-0.5-0.6-0.8c-0.1-0.1-0.1-0.3-0.2-0.5C624.8,53,624.8,52.7,624.7,52.5"/>
	<path class="st0" d="M669.1,73.4c0-0.2,0-0.4,0-0.5c0-0.4,0.1-0.7,0.1-1.1c0-0.1,0-0.2,0.1-0.2c0.2-0.4,0.5-0.8,0.7-1.2
		c0,0,0.1-0.1,0.1-0.1c0.5-0.1,1-0.1,1.6,0c0.1,0,0.3,0,0.4,0c0.1,0,0.1,0,0.2-0.1c0.2-0.1,0.3-0.3,0.5-0.4c0.1-0.1,0.1-0.1,0-0.2
		c-0.2-0.3-0.3-0.5-0.5-0.8c-0.1-0.3-0.3-0.6-0.4-1c-0.1-0.3-0.2-0.6-0.3-0.9c0-0.1,0-0.2,0-0.2c0.3-0.7,0.6-1.3,0.9-2
		c0.2-0.6,0.4-1.2,0.5-1.9c0.2-0.8,0.2-1.6,0.3-2.4c0.1-1.7-0.4-3.2-1.5-4.5c-0.4-0.4-0.8-0.8-1.2-1.2c-0.2-0.2-0.4-0.5-0.6-0.8
		c-0.1-0.2-0.3-0.4-0.4-0.6c0.3-0.1,0.5-0.2,0.8-0.3c0.2-0.1,0.3-0.1,0.5-0.2c0.1,0,0.1,0,0.2,0c0.8,0,1.5,0.1,2.3,0.1
		c0.8,0.1,1.6,0.2,2.4,0.2c0.3,0,0.6,0,0.9,0.1c0.1,0,0.2,0,0.2,0.1c0.5,0.5,1,0.9,1.5,1.4c0.1,0.1,0.2,0.4,0.3,0.5
		c0.2,0.5,0.3,0.9,0.5,1.4c0,0,0,0.1,0,0.2c-0.1,0.5-0.2,0.9-0.3,1.4c-0.1,0.6-0.3,1.2-0.5,1.8c-0.3,0.9-0.7,1.8-1,2.7
		c-0.1,0.4-0.2,0.8-0.2,1.2c0,0.5,0,1,0,1.6c0,0.4,0.2,0.7,0.3,1c0.4,0.6,0.9,1.1,1.4,1.6c0.6,0.5,1.1,1,1.5,1.6
		c0.1,0.1,0.1,0.2,0.1,0.3c0.1,0.5,0.1,1,0.2,1.4c0,0.1,0,0.2,0,0.3c0.1,0.3-0.1,0.6-0.2,0.9c-0.1,0.5-0.3,0.9-0.5,1.4
		c0,0.1-0.1,0.2-0.2,0.2c-0.3,0-0.6,0.1-0.9,0.1c-1,0.1-1.9,0.1-2.9,0.1c-0.8,0-1.7-0.1-2.5-0.1c-0.5,0-1-0.1-1.5-0.2
		c-0.6-0.1-1.2-0.2-1.7-0.3C669.8,73.6,669.5,73.5,669.1,73.4"/>
	<path class="st0" d="M663,56.3c-0.5,0-1.1,0.1-1.6,0.3c-0.3,0.1-0.5,0.2-0.7,0.4c-0.4,0.4-0.8,0.7-1.2,1.1
		c-0.1,0.1-0.3,0.2-0.4,0.4c-0.3,0.5-0.5,1-0.6,1.6c-0.1,0.5-0.1,1,0,1.5c0.2,0.9,0.6,1.6,1.3,2.2c0.9,0.9,2,1.4,3.3,1.5
		c0.5,0.1,0.9,0,1.4-0.1c0.7-0.1,1.4-0.5,1.9-0.9c0.8-0.7,1.4-1.5,1.6-2.5c0.1-0.6,0.1-1.2,0-1.8c-0.3-1-0.8-1.8-1.6-2.5
		C665.3,56.6,664.2,56.3,663,56.3 M655.3,60.7c0-1.2,0.2-2.3,0.7-3.2c0.6-1.2,1.4-2,2.5-2.7c0.7-0.4,1.5-0.8,2.4-1
		c0.7-0.2,1.4-0.3,2.1-0.3c0.6,0,1.2,0,1.8,0c1.9,0.2,3.6,0.9,4.9,2.3c0.5,0.6,1,1.3,1.2,2c0.2,0.5,0.3,1,0.5,1.6
		c0.1,0.5,0.2,1.1,0.1,1.6c-0.1,1.3-0.5,2.4-1.3,3.4c-0.7,1-1.7,1.7-2.7,2.3c-0.7,0.4-1.5,0.7-2.3,0.9c-0.8,0.2-1.6,0.3-2.4,0.3
		c-2-0.1-3.8-0.7-5.3-2.1c-0.9-0.8-1.5-1.7-1.9-2.9C655.4,62.1,655.2,61.4,655.3,60.7"/>
	<path class="st0" d="M629.7,60.2c0-0.3,0.1-0.8,0.2-1.4c0.1-0.5,0.2-0.9,0.3-1.4c0-0.1,0.1-0.2,0.1-0.2c0.6-0.5,1.3-1,1.9-1.5
		c0.2-0.2,0.5-0.2,0.8-0.4c1.1-0.5,2.2-1,3.3-1.4c0.7-0.3,1.4-0.6,2.2-0.7c0.2,0,0.4-0.1,0.6-0.1c0.2,0,0.5,0,0.7-0.1
		c0.3-0.1,0.5,0,0.7,0.2c0.1,0,0.1,0.1,0.1,0.2c0.1,0.4,0.2,0.8,0.2,1.3c0.1,0.7,0.1,1.5,0.1,2.2c0,0.8,0.1,1.6,0.1,2.4
		c0,0.6,0.1,1.2,0.1,1.8c0,0.3,0,0.5-0.1,0.8c-0.1,0.4-0.2,0.9-0.2,1.3c0,0.2-0.1,0.4-0.1,0.7c0,0.2-0.2,0.2-0.3,0.2
		c-0.4,0.1-0.9,0.2-1.3,0.2c-0.3,0.1-0.7,0.1-1,0.1c-0.5,0-0.9,0.1-1.4,0.1c-0.3,0-0.6,0-0.9,0.1c-0.9,0-1.9,0.1-2.8,0.1
		c-0.5,0-1-0.1-1.5-0.2c-0.2,0-0.5-0.1-0.7-0.1c-0.3,0-0.5-0.2-0.7-0.4c-0.2-0.3-0.3-0.7-0.4-1.1C629.8,62.3,629.8,61.4,629.7,60.2"
		/>
	<path class="st0" d="M680.2,80.9c-0.6-0.1-1.1-0.1-1.6-0.2c-0.3,0-0.6-0.1-0.9-0.1c-0.4-0.1-0.7-0.1-1.1-0.2
		c-0.3-0.1-0.7-0.1-1-0.2c-0.4-0.1-0.8-0.1-1.2-0.2c-0.3,0-0.6-0.1-1-0.1c-0.8,0-1.6,0-2.4,0c-0.8,0.1-1.7,0.2-2.4,0.7
		c-0.3,0.2-0.6,0.4-0.8,0.6c-1.1,0.9-2.1,1.8-3.2,2.8c-0.4,0.3-0.8,0.5-1.2,0.7c-0.2,0.1-0.4,0.2-0.6,0.3c-0.3,0.2-0.6,0.1-0.9,0.1
		c-0.7-0.1-1.2-0.4-1.5-1c-0.2-0.3-0.3-0.7-0.3-1c0-0.2,0.1-0.4,0.2-0.5c0.3-0.6,0.5-1.3,0.8-1.9c0,0,0-0.1,0.1-0.1
		c0.7-0.7,1.5-1.4,2.2-2c0.8-0.7,1.7-1.2,2.8-1.6c0.5-0.2,1.1-0.4,1.7-0.5c1.4-0.3,2.9-0.3,4.3-0.2c0.9,0,1.7,0.1,2.6,0.2
		c0.6,0.1,1.2,0.2,1.8,0.2c0.7,0.1,1.4,0.2,2.1,0.3c0.7,0.1,1.4,0.2,2,0.5c0.2,0.1,0.3,0.2,0.4,0.3c0.1,0,0.1,0.2,0.1,0.2
		c-0.2,0.7-0.3,1.3-0.5,2c-0.1,0.3-0.2,0.7-0.3,1C680.4,80.9,680.3,80.9,680.2,80.9"/>
	<path class="st0" d="M645.5,81.7c-0.1-0.4-0.2-0.7-0.3-1.1c-0.2-0.6-0.2-1.2-0.3-1.8c0-0.5-0.1-1-0.1-1.4c0-0.2,0-0.4,0-0.6
		c0-0.6-0.1-1.1-0.1-1.7c0-0.7-0.1-1.3-0.1-2c-0.1-0.8-0.1-1.6-0.1-2.4c0-0.4-0.1-0.9,0-1.3c0.1-0.7,0.1-1.3,0.3-2
		c0.1-0.6,0.4-1.1,0.7-1.5c0.2-0.3,0.4-0.5,0.5-0.8c0.3-0.6,0.8-0.9,1.2-1.3c0.2-0.2,0.4-0.4,0.7-0.6c0.2,0.5,0.4,1,0.5,1.5
		c0.1,0.2,0,0.4,0.1,0.6c0,0.5,0.1,0.9,0.1,1.4c0,0.5,0.1,1,0.1,1.6c0,0.4,0.1,0.9,0.1,1.3c0,0.6,0.1,1.2,0.2,1.8
		c0,0.3,0,0.6,0.1,0.9c0,0.9,0.1,1.9,0.1,2.8c0,0.8,0,1.5-0.3,2.3c-0.2,0.6-0.5,1.1-0.8,1.6c-0.4,0.6-0.9,1.2-1.3,1.8
		c-0.2,0.3-0.5,0.4-0.8,0.7C645.7,81.5,645.6,81.6,645.5,81.7"/>
	<path class="st0" d="M651.9,52.2c-0.2,0-0.4,0-0.6,0c-0.1,0-0.2,0-0.2-0.1c-0.2-0.6-0.4-1.1-0.6-1.7c0,0,0-0.1,0-0.1
		c0-0.4,0.1-0.8,0.1-1.2c0-0.3,0.1-0.7,0.1-1c0,0,0.1-0.1,0.1-0.1c0.8-0.4,1.7-0.7,2.5-0.9c0.6-0.1,1.1-0.3,1.7-0.4
		c0.5-0.1,1-0.2,1.5-0.2c0.9-0.1,1.9-0.1,2.8-0.2c0.2,0,0.4,0.1,0.6,0.1c0.3,0,0.3,0.3,0.4,0.5c0.1,0.4,0.2,0.9,0.2,1.3
		c0,0.3-0.1,0.6-0.1,0.9c-0.1,0.5-0.2,1-0.3,1.5c0,0.1-0.1,0.1-0.1,0.1c-0.6,0.2-1.2,0.4-1.8,0.5c-0.6,0.1-1.2,0.2-1.9,0.3
		c-0.6,0.1-1.2,0.2-1.8,0.3c-0.7,0.1-1.4,0.2-2.1,0.2C652.2,52.2,652,52.2,651.9,52.2L651.9,52.2z"/>
	<path class="st0" d="M644.4,63c-0.1-0.4-0.2-0.9-0.3-1.3c0-0.1,0-0.3-0.1-0.4c0-0.5-0.1-0.9-0.1-1.4c0-0.7-0.1-1.5-0.1-2.2
		c0-0.4,0-0.9-0.1-1.3c0-1.2-0.1-2.4-0.1-3.6c0-0.4,0.1-0.7,0.1-1.1c0-0.2,0-0.4,0.1-0.6c0-0.1,0-0.1,0.1-0.2c0.4-0.3,0.8-0.7,1.3-1
		c0.2-0.1,0.4-0.2,0.5-0.2c0.4-0.1,0.8-0.2,1.3-0.4c0.1,0,0.1,0,0.2,0.1c0.2,0.2,0.3,0.4,0.5,0.6c0.1,0.1,0.1,0.2,0.1,0.3
		c0.2,0.7,0.2,1.3,0.2,2c0,1.6,0,3.1,0,4.7c0,0.5-0.1,1-0.1,1.5c0,0.5-0.3,0.8-0.5,1.1c-0.4,0.6-0.9,1.2-1.4,1.9
		c-0.1,0.2-0.3,0.4-0.4,0.5C645.3,62.4,644.8,62.6,644.4,63"/>
	<path class="st0" d="M661.5,37.3c0.1,0,0.2,0,0.3,0c0.5,0,1,0,1.5,0.2c0.4,0.1,0.7,0.1,1.1,0.2c0,0,0.1,0.1,0.1,0.1
		c0.1,0.4,0.3,0.7,0.4,1.1c0.1,0.3,0.1,0.6,0.1,0.9c0,0.7,0.1,1.4,0.1,2.1c0,0.4-0.1,0.8-0.2,1.1c0,0.2-0.1,0.5-0.1,0.7
		c0,0.1,0,0.1-0.1,0.1c-0.3,0.2-0.7,0.3-1,0.5c-0.1,0.1-0.3,0.1-0.5,0.1c-0.4,0-0.9,0.1-1.3,0.1c-0.4,0-0.8,0-1.2-0.1
		c-0.3,0-0.6-0.1-0.9-0.2c-0.1,0-0.3-0.1-0.4-0.1c-0.3,0-0.4-0.2-0.6-0.5c-0.2-0.3-0.3-0.6-0.3-1c0-0.4-0.1-0.8-0.1-1.2
		c0-0.7,0.1-1.4,0.1-2.1c0-0.4,0.1-0.8,0.2-1.3c0-0.1,0.1-0.1,0.1-0.2c0.5-0.2,0.9-0.4,1.4-0.6c0,0,0.1,0,0.2,0
		C660.9,37.3,661.2,37.3,661.5,37.3"/>
	<path class="st0" d="M663.7,90.1c-0.7,0-1.3-0.1-1.9-0.2c-1.4-0.2-2.8-0.7-3.9-1.6c-0.3-0.2-0.6-0.5-0.8-0.8c0,0,0-0.1,0-0.1
		c0.1-0.2,0.2-0.3,0.3-0.5c0,0,0.1-0.1,0.1,0c0.6,0.2,1.3,0.3,1.9,0.5c0.3,0.1,0.6,0.1,0.9,0.2c0.3,0.1,0.6,0.2,1,0.2
		c0.3,0,0.7,0.1,1,0.1c0.3,0,0.7-0.1,1-0.1c0.6-0.1,1.2-0.3,1.7-0.6c1.1-0.5,1.9-1.2,2.7-2.1c0.3-0.4,0.6-0.8,0.9-1.1
		c0.4-0.4,0.8-0.7,1.1-1.1c0.2-0.2,0.5-0.3,0.8-0.3c0.4,0,0.6,0.1,0.9,0.4c0.2,0.3,0.5,0.5,0.7,0.7c0.1,0.1,0.1,0.1,0,0.2
		c-0.3,0.6-0.6,1.3-1,1.9c-0.2,0.3-0.4,0.5-0.6,0.8c-0.5,0.7-1.1,1.3-1.8,1.8c-0.8,0.6-1.6,1-2.5,1.2c-0.5,0.1-1,0.2-1.5,0.3
		C664.4,90.1,664,90.1,663.7,90.1"/>
	<path class="st0" d="M669.3,96.8c-0.3,0.3-0.7,0.5-1.1,0.6c-0.8,0.1-1.5,0.2-2.3,0.2c-0.8,0-1.6,0-2.4,0c-0.6,0-1.1-0.1-1.6-0.2
		c-0.5-0.1-0.9-0.1-1.4-0.2c-0.5-0.1-0.9-0.2-1.4-0.3c-0.4-0.1-0.8-0.2-1.3-0.3c-1.1-0.3-2.3-0.6-3.4-1.2c-0.3-0.1-0.5-0.3-0.8-0.5
		c-0.4-0.3-0.6-0.6-0.6-1.1c0-0.5-0.1-0.9-0.2-1.4c0-0.3-0.1-0.7-0.1-1c0,0,0-0.1,0-0.1c0.1-0.2,0.2-0.4,0.3-0.6
		c0.1-0.1,0.1-0.1,0.2,0c0.5,0.3,1,0.6,1.5,0.9c1.4,0.9,2.9,1.7,4.4,2.4c1,0.5,2.1,0.9,3.2,1.3c0.8,0.3,1.6,0.5,2.4,0.7
		c0.6,0.2,1.2,0.3,1.8,0.4c0.6,0.1,1.2,0.1,1.8,0.2C668.7,96.7,669,96.8,669.3,96.8"/>
	<path class="st0" d="M668.3,94.3c0.3-0.1,0.5-0.1,0.8-0.2c1.5-0.3,2.9-0.6,4.2-1.4c1.6-1,2.9-2.3,3.8-3.9c0.4-0.7,0.7-1.5,1-2.3
		c0.2-0.7,0.4-1.4,0.6-2.1c0-0.1,0.2-0.3,0.2-0.4c0.3-0.3,0.6-0.7,0.8-1c0,0,0,0,0.1-0.1c0.4,0.2,0.8,0.4,1.3,0.6
		c0.1,0,0.1,0.1,0.1,0.2c0,0.5,0,1,0,1.5c0,0.3,0.1,0.6,0,0.8c0,0.2,0,0.5-0.1,0.7c-0.2,0.9-0.6,1.8-1.1,2.6c-0.6,1-1.3,1.8-2.2,2.5
		c-1,0.8-2,1.5-3.1,2c-0.5,0.3-1.1,0.5-1.7,0.7c-0.6,0.2-1.2,0.3-1.8,0.4c-0.6,0.1-1.3,0.1-2,0.1c0,0-0.1,0-0.1,0
		C668.9,94.7,668.6,94.5,668.3,94.3"/>
	<path class="st0" d="M661.9,91.9c0.3-0.1,0.6-0.2,0.9-0.3c0.2,0,0.4,0,0.6,0c0.6,0,1.2,0,1.8,0c0.2,0,0.3,0,0.5,0
		c0.7-0.1,1.3-0.2,2-0.4c0.8-0.2,1.5-0.5,2.2-0.9c0.8-0.5,1.5-1.1,2.1-1.9c0.8-1,1.4-2.1,1.8-3.3c0.2-0.6,0.4-1.2,0.6-1.7
		c0.1-0.3,0.3-0.5,0.7-0.6c0.2,0,0.4,0,0.5,0.1c0.4,0.3,0.8,0.5,1.2,0.8c0.1,0.1,0.1,0.1,0.1,0.2c0,0.4,0,0.8-0.1,1.2
		c-0.1,0.5-0.3,0.9-0.5,1.4c-0.4,1-1,1.9-1.7,2.8c-0.7,0.9-1.6,1.5-2.5,2c-0.7,0.4-1.5,0.6-2.2,0.9c-0.6,0.2-1.2,0.3-1.8,0.4
		c-0.7,0.1-1.3,0.2-2,0.2c-0.6,0-1.1,0.1-1.7,0c-0.5,0-1.1-0.1-1.6-0.3c0,0-0.1,0-0.1,0C662.3,92.4,662.1,92.2,661.9,91.9"/>
	<path class="st0" d="M665.4,45.6c0.7,0,1.2,0,1.7,0.1c0.3,0,0.7,0.2,1,0.2c0.3,0,0.3,0.2,0.4,0.4c0.2,0.5,0.4,1.1,0.5,1.6
		c0,0.1,0,0.2,0,0.4c-0.1,0.4-0.1,0.7-0.2,1.1c-0.1,0.4-0.1,0.7-0.2,1.1c0,0.1-0.1,0.1-0.2,0.1c-0.4,0.1-0.8,0.2-1.3,0.2
		c-0.5,0.1-1,0.2-1.6,0.2c-0.3,0-0.6,0-0.9,0c-0.4,0-0.8-0.1-1.2-0.2c-0.1,0-0.2,0-0.4-0.1c0,0-0.1-0.1-0.1-0.1
		c-0.1-0.6-0.3-1.2-0.4-1.7c0-0.1,0-0.2,0-0.3c0.1-0.5,0.1-1,0.2-1.4c0-0.2,0-0.4,0.1-0.5c0-0.2,0.2-0.4,0.4-0.5
		c0.3-0.2,0.6-0.3,0.9-0.3C664.7,45.6,665.1,45.6,665.4,45.6"/>
	<path class="st0" d="M648.7,81.6c0.1,0.3,0.3,0.6,0.4,0.8c0.2,0.4,0.3,0.9,0.3,1.3c0.1,0.7,0.1,1.3,0.2,2c0,0.4,0.1,0.7,0.1,1.1
		c0,0.3,0.1,0.6,0.1,0.9c0.1,0.3,0.1,0.7,0.2,1c0.1,0.4,0.1,0.8,0.2,1.2c0.1,0.5,0.1,0.9,0.2,1.4c0,0.4,0,0.7,0,1.1
		c0,0.3,0,0.7-0.1,1.1c-0.4-0.4-0.8-0.7-1.1-1.1c-0.7-0.9-1.3-1.9-1.8-3c-0.2-0.5-0.4-1-0.6-1.5c0-0.1,0-0.2-0.1-0.3
		c0-0.4-0.1-0.8-0.1-1.2c0-0.4-0.1-0.7-0.1-1.1c0-0.1,0-0.2,0.1-0.3c0.3-0.6,0.6-1.2,0.9-1.8c0.2-0.3,0.4-0.6,0.6-0.9
		c0.2-0.3,0.4-0.5,0.6-0.8C648.7,81.7,648.7,81.7,648.7,81.6"/>
	<path class="st0" d="M669.8,44.1c-0.5,0-1-0.1-1.5-0.2c-0.3,0-0.4-0.2-0.5-0.4c0-0.1-0.1-0.2-0.1-0.3c-0.1-0.2-0.1-0.4-0.1-0.6
		c-0.1-0.5-0.1-1-0.1-1.4c0-0.4,0-0.7,0.1-1.1c0.2-0.4,0.3-0.9,0.4-1.3c0-0.1,0.1-0.1,0.1-0.2c0.8-0.1,1.5-0.1,2.3-0.2
		c0.2,0,0.4,0,0.5,0.1c0.3,0.1,0.6,0.3,1,0.4c0.1,0,0.1,0.1,0.2,0.2c0.3,0.7,0.4,1.4,0.5,2.1c0,0.3,0.1,0.7,0.2,1c0,0.2,0,0.4,0,0.6
		c0,0.2-0.1,0.5-0.1,0.7c0,0-0.1,0.1-0.1,0.1c-0.4,0.1-0.8,0.2-1.2,0.3c-0.2,0-0.4,0.1-0.6,0.1C670.3,44.1,670.1,44.1,669.8,44.1"/>
	<path class="st0" d="M673.3,51.2c-0.2,0-0.4,0-0.5,0c-0.5,0-0.9-0.1-1.4-0.2c0,0-0.1-0.1-0.1-0.1c-0.1-0.3-0.2-0.5-0.2-0.8
		c-0.1-0.3-0.1-0.7-0.1-1.1c-0.1-0.5-0.1-1-0.1-1.5c0,0,0-0.1,0-0.1c0.1-0.4,0.1-0.8,0.2-1.2c0,0,0.1-0.1,0.1-0.1
		c0.6-0.1,1.1-0.2,1.7-0.3c0.2,0,0.4-0.1,0.6,0c0.4,0.1,0.7,0.2,1.1,0.3c0,0,0.1,0.1,0.1,0.1c0.1,0.3,0.3,0.6,0.4,0.9
		c0.1,0.2,0.1,0.4,0.1,0.6c0.1,0.5,0.1,0.9,0.2,1.4c0.1,0.4,0.1,0.7,0,1.1c0,0.2-0.1,0.4-0.1,0.6c0,0.1,0,0.2-0.2,0.2
		c-0.1,0-0.3,0.1-0.4,0.1c-0.4,0.2-0.7,0.1-1.1,0.1C673.4,51.2,673.4,51.2,673.3,51.2z"/>
	<path class="st0" d="M678.5,46.2c0.2,0,0.4,0,0.6,0.1c0,0,0.1,0,0.1,0.1c0.2,0.4,0.5,0.7,0.7,1.1c0.2,0.5,0.3,1,0.4,1.5
		c0.1,0.4,0.1,0.8,0.2,1.2c0,0.2,0,0.5,0,0.7c0,0.2,0,0.5-0.1,0.7c0,0.1,0,0.2-0.2,0.2c-0.4,0-0.9,0.1-1.3,0.1c-0.2,0-0.3,0-0.5-0.1
		c-0.4-0.1-0.9-0.3-1.3-0.4c-0.1,0-0.1-0.1-0.2-0.2c-0.2-0.5-0.3-1.1-0.3-1.7c0-0.5,0-1.1,0-1.6c0-0.5,0.1-0.9,0.1-1.4
		c0,0,0-0.1,0.1-0.1C677.4,46.4,677.9,46.3,678.5,46.2C678.5,46.2,678.5,46.2,678.5,46.2C678.5,46.2,678.5,46.2,678.5,46.2"/>
	<path class="st0" d="M679,44.4c-0.4,0.1-0.7,0.2-1.1,0.2c-0.6,0-1.2,0-1.7-0.2c-0.2-0.1-0.5-0.3-0.7-0.4c-0.3-0.1-0.4-0.4-0.5-0.7
		c-0.2-0.7-0.4-1.3-0.5-2c-0.1-0.4-0.1-0.8-0.2-1.2c0-0.1,0-0.1,0.1-0.1c0.4-0.1,0.9-0.3,1.3-0.4c0.1,0,0.1,0,0.2,0
		c0.5,0.2,1,0.3,1.5,0.5c0.1,0,0.2,0.1,0.3,0.2c0.3,0.5,0.6,1.1,0.9,1.6c0.1,0.2,0.1,0.5,0.2,0.7c0.1,0.4,0.2,0.9,0.2,1.4
		C678.9,44.2,678.9,44.3,679,44.4"/>
	<path class="st0" d="M632.6,78c-1.1,0-2.1-0.7-2.4-1.8c-0.1-0.5-0.1-1.1,0.2-1.5c0.1-0.1,0.2-0.3,0.3-0.5c0.1-0.3,0.3-0.4,0.6-0.5
		c0.6-0.2,1.1-0.4,1.7-0.7c0.3-0.1,0.6,0,0.9,0.1c0.8,0.4,1.1,1,1.3,1.8c0.1,0.6-0.1,1.2-0.4,1.7c0,0.1-0.1,0.2-0.2,0.2
		c-0.4,0.3-0.8,0.6-1.1,0.8C633.2,78,632.9,78,632.6,78"/>
	<path class="st0" d="M663.2,63.3c-0.4,0-0.9-0.2-1.3-0.6c-0.5-0.5-0.9-1.1-1.1-1.8c-0.1-0.4-0.1-0.8,0.1-1.2c0-0.1,0.1-0.2,0.2-0.2
		c0.4-0.4,0.9-0.7,1.3-1.1c0,0,0.1-0.1,0.2-0.1c0.2,0,0.5,0,0.7-0.1c0.3-0.1,0.6,0.1,0.9,0.2c0.2,0.1,0.5,0.2,0.7,0.3
		c0.1,0,0.2,0.1,0.2,0.1c0.3,0.4,0.5,0.8,0.6,1.2c0.1,0.4,0.1,0.7,0.1,1.1c-0.1,0.6-0.4,1.1-0.8,1.5
		C664.5,63.1,663.9,63.3,663.2,63.3"/>
</g>
<rect x="583.9" y="31.1" class="st0" width="1.5" height="98.5"/>
<g>
	<path class="st0" d="M202.1,87.5c0.7,1.1,1.7,1.5,3,1.6c1.9,0,3-1.8,3-1.8L238.8,48c2.5-2.6,5-0.5,5-0.5c2.4,2.5,0.6,4.9,0.6,4.9
		l-6.9,8.8v0c-0.6,0.6-1,1.4-1,2.3c0,0.8,0.3,1.6,0.8,2.2v0l6.9,8.8l21.8-27.7l-8.7-11.1l-1.6-2.1c-1.4-2-4.6-2.5-4.6-2.5h-13
		c-3.5,0-5.3,2.4-5.3,2.4l-36.5,46.9L202.1,87.5z"/>
	<path class="st0" d="M200.5,63.5l-8.7-11.2c-1.8-2.9,0.8-4.9,0.8-4.9c3.3-1.9,5.2,1,5.2,1l7.2,9.3l8.6-11L203.7,34
		c-2.4-3.4-5.9-2.9-5.9-2.9h-11.8c-3.8,0-5.4,2.3-5.4,2.3l-10.4,13.2l21.8,27.8L200.5,63.5z"/>
	<path class="st0" d="M234.2,73.1c0,0-1-1.6-2.9-1.5c-2,0-2.8,1.4-2.8,1.4l-31,39.9c-2.5,2.8-5.2,0.5-5.2,0.5
		c-2.4-2.5-0.4-4.9-0.4-4.9l7-8.9l0,0c0.6-0.6,1-1.4,1-2.3c0-0.8-0.3-1.6-0.8-2.2l0,0l-6.9-8.8l-21.8,28l12.2,15.4l19.1,0l38.5-49.2
		L234.2,73.1z"/>
	<path class="st0" d="M235.8,97.1l8.8,11.3c2,2.8-0.5,4.9-0.5,4.9c-3.4,2.3-5.4-1.1-5.4-1.1l-7.4-9.4l-8.6,11l12.3,15.8l19,0
		l12.2-15.6l-21.8-27.9L235.8,97.1z"/>
	<path class="st0" d="M266,85.1c-2.6,0-4.6-2.1-4.6-4.7c0-2.6,2.1-4.7,4.6-4.7c2.6,0,4.6,2.1,4.6,4.7C270.7,83,268.6,85.1,266,85.1
		 M266,71.7c-4.9,0-8.8,3.9-8.8,8.7c0,4.8,4,8.7,8.8,8.7c4.9,0,8.8-3.9,8.8-8.7C274.9,75.6,270.9,71.7,266,71.7"/>
	<path class="st0" d="M218.1,17.7c2.6,0,4.6,2.1,4.6,4.7c0,2.6-2.1,4.7-4.6,4.7c-2.6,0-4.6-2.1-4.6-4.7
		C213.5,19.8,215.5,17.7,218.1,17.7 M218.1,31.1c4.9,0,8.8-3.9,8.8-8.7c0-4.8-4-8.7-8.8-8.7c-4.9,0-8.8,3.9-8.8,8.7
		C209.3,27.2,213.2,31.1,218.1,31.1"/>
	<path class="st0" d="M165.4,80.4c0-2.6,2.1-4.7,4.6-4.7c2.6,0,4.6,2.1,4.6,4.7c0,2.6-2.1,4.7-4.6,4.7
		C167.5,85.1,165.4,83,165.4,80.4 M178.9,80.4c0-4.8-4-8.7-8.8-8.7c-4.9,0-8.8,3.9-8.8,8.7c0,4.8,4,8.7,8.8,8.7
		C174.9,89.1,178.9,85.2,178.9,80.4"/>
	<path class="st0" d="M218.1,143c-2.6,0-4.6-2.1-4.6-4.7c0-2.6,2.1-4.7,4.6-4.7c2.6,0,4.6,2.1,4.6,4.7
		C222.8,140.9,220.7,143,218.1,143 M218.1,129.6c-4.9,0-8.8,3.9-8.8,8.7c0,4.8,4,8.7,8.8,8.7c4.9,0,8.8-3.9,8.8-8.7
		C226.9,133.5,223,129.6,218.1,129.6"/>
	<path class="st0" d="M125.9,22.4H24.5V90c0,37.1,50.7,48.3,50.7,48.3h0c0,0,50.7-11.2,50.7-48.3V22.4z M123.5,24.8V90
		c0,7.9-2.5,15.2-7.4,21.7c-4,5.3-9.6,10.1-16.6,14.2c-10.8,6.4-21.8,9.3-24.2,9.9c-2.5-0.6-13.3-3.5-24.1-9.8
		c-7.1-4.2-12.7-8.9-16.7-14.2c-4.9-6.5-7.4-13.8-7.4-21.7V24.8H123.5z"/>
	<path class="st0" d="M87.5,44v-6.2h-6.4v5.8h-2.5v-5.8H72v5.8h-2.5v-5.8H63V44l3.2,5.4c0.1,0.2,0.2,0.4,0.2,0.6l0,28.5h3.1l0-10.2
		c0-2.4,2.7-4.6,5.8-4.6c3,0,5.8,2.2,5.8,4.6l0,10.2h3.2l0-10.8c0,0,0-0.1,0-0.1v-5.3c0,0,0-0.1,0-0.1l0-3.9c0,0,0,0,0,0v-1.7l0-6.5
		c0-0.2,0.1-0.4,0.2-0.6L87.5,44z"/>
	<path class="st0" d="M63.9,79.2l0-9.4l-1.1,0.7c-0.4,0.3-0.9,0.2-1.3,0L60,69.5c0,0,0,0.1,0,0.1l0,3.6c0,0.4-0.2,0.7-0.5,1
		c0.1,0,0.3,0.1,0.4,0.2c1.7,1.3,1.8,3.2,1.4,4.8H63.9z"/>
	<path class="st0" d="M75.2,66.2c-1.9,0-3.3,1.4-3.3,2.1l0,10.2h6.5l0-10.2C78.4,67.6,77.1,66.2,75.2,66.2"/>
	<path class="st0" d="M37.1,79.2c-0.4-0.8-0.6-1.7-0.8-2.9c-0.3-2-0.2-3.8-0.2-3.9c0-0.5,0.4-1,0.9-1.1l2.7-0.8l-3.1-2.2
		c-0.3-0.2-0.5-0.6-0.5-1v-3.5c0-0.5,0.3-0.9,0.7-1.1l1.2-0.6v-1.2l-1.1-0.4c-0.5-0.2-0.8-0.6-0.8-1.2l0-4.2c0-0.7,0.6-1.2,1.2-1.2
		l3.9,0c-0.1-1-0.1-2.4,0.2-3.6c0.3-1.6,1.2-3.3,1.6-4l-0.2-1.4c0-0.4,0.1-0.7,0.3-1c0.2-0.3,0.6-0.4,0.9-0.4h2.1
		c0.2,0,0.5,0.1,0.7,0.2l5.1,3.2h2.3c0.3,0,0.7,0.1,0.9,0.4c0.2,0.2,0.4,0.6,0.3,0.9l-0.2,4c0,0.3-0.2,0.6-0.4,0.9l1.6,0
		c0.3,0,0.7,0.1,0.9,0.4l0.7,0.7l0.5-0.4l0.9-1.9c0.2-0.4,0.6-0.7,1.1-0.7h3.3v-0.7L60.7,45c-0.1-0.2-0.2-0.4-0.2-0.6v-7.8
		c0-0.7,0.6-1.2,1.2-1.2h7.7H72h6.6h2.5h7.6c0.7,0,1.2,0.6,1.2,1.2v7.8c0,0.2-0.1,0.4-0.2,0.6l-3.2,5.4v0.7h3.3
		c0.5,0,0.9,0.3,1.1,0.7l0.9,1.9l0.5,0.4l0.7-0.7c0.2-0.2,0.6-0.4,0.9-0.4l1.6,0c-0.2-0.2-0.4-0.5-0.4-0.9l-0.2-4
		c0-0.3,0.1-0.7,0.3-0.9c0.2-0.2,0.6-0.4,0.9-0.4h2.3l5.1-3.2c0.2-0.1,0.4-0.2,0.7-0.2h2.1c0.4,0,0.7,0.2,0.9,0.4
		c0.2,0.3,0.3,0.6,0.3,1l-0.2,1.4c0.4,0.8,1.3,2.4,1.6,4c0.2,1.2,0.2,2.5,0.2,3.6l3.9,0c0.7,0,1.2,0.6,1.2,1.2l0,4.2
		c0,0.5-0.3,1-0.8,1.2l-1.1,0.4v1.2l1.2,0.6c0.4,0.2,0.7,0.6,0.7,1.1v3.5c0,0.4-0.2,0.8-0.5,1l-3.1,2.2l2.7,0.8
		c0.5,0.2,0.9,0.6,0.9,1.1c0,0.1,0.1,1.9-0.2,3.9c-0.2,1.1-0.4,2.1-0.8,2.9h4.5c0,0,0,0,0.1,0V31H32.6v48.2H37.1z"/>
	<path class="st0" d="M90.5,74.4c0.1-0.1,0.3-0.2,0.4-0.2c-0.3-0.2-0.5-0.6-0.5-1l0-3.6c0,0,0-0.1,0-0.1L89,70.4
		c-0.4,0.3-0.9,0.3-1.3,0l-1.1-0.6l0,9.4h2.5C88.7,77.7,88.9,75.8,90.5,74.4"/>
	<path class="st0" d="M107.1,105c-0.7,0-1.2-0.6-1.2-1.2v-8.2c0-0.6-0.4-1.4-0.9-1.9c-0.5-0.5-1.3-1-2.6-1c-1.9,0-3.1,1.5-3.2,3v8.1
		c0,0.3-0.1,0.6-0.4,0.9c-0.2,0.2-0.6,0.4-0.9,0.4h-7.4c-0.7,0-1.2-0.6-1.2-1.2v-8.2c0-0.6-0.4-1.4-0.9-1.9c-0.5-0.5-1.3-1-2.6-1
		c-0.8,0-1.6,0.3-2.2,0.9l6.1,31.1c8.6-3.8,18.7-10,24.2-19.6H107.1z"/>
	<path class="st0" d="M87.3,125.4l-8.6-43.7h-7l-8.6,43.7c0,0.1,0,0.1,0,0.2c5.9,2.4,10.8,3.7,12.1,4.1c1.4-0.4,6.2-1.7,12.1-4.1
		C87.3,125.6,87.3,125.5,87.3,125.4"/>
	<path class="st0" d="M66.9,93.5c-0.6-0.5-1.3-0.8-2.1-0.8c0,0,0,0-0.1,0c-1.2,0-2,0.5-2.5,1c-0.6,0.6-0.9,1.3-0.9,1.9v8.2
		c0,0.7-0.6,1.2-1.2,1.2h-7.4c-0.3,0-0.6-0.1-0.9-0.4c-0.2-0.2-0.4-0.6-0.4-0.9v-8.1c-0.2-1.5-1.3-2.9-3.2-3c0,0,0,0-0.1,0
		c-1.2,0-2,0.5-2.5,1c-0.6,0.6-0.9,1.3-0.9,1.9v8.2c0,0.7-0.6,1.2-1.2,1.2h-6.8c5.5,9.6,15.6,15.8,24.2,19.6L66.9,93.5z"/>
	<path class="st0" d="M117.8,81.7H81.2l1.8,9.2c0.8-0.4,1.7-0.7,2.6-0.7c1.6,0,3.2,0.6,4.4,1.7c1,1,1.7,2.4,1.7,3.7v6.9l4.9,0v-6.9
		c0,0,0-0.1,0-0.1c0.3-3,2.7-5.2,5.7-5.3c1.7,0,3.2,0.6,4.4,1.7c1,1,1.7,2.4,1.7,3.7v6.9l6.8,0c1.7-3.7,2.7-8,2.7-12.7L117.8,81.7
		C117.9,81.7,117.8,81.7,117.8,81.7"/>
	<path class="st0" d="M42.1,102.5v-6.9c0-1.3,0.6-2.7,1.7-3.7c1.2-1.1,2.7-1.7,4.4-1.7c3,0,5.4,2.3,5.7,5.3c0,0,0,0.1,0,0.1v6.9h4.9
		v-6.9c0-1.3,0.6-2.7,1.7-3.7c1.2-1.1,2.7-1.7,4.4-1.7c0.9,0,1.8,0.2,2.6,0.7l1.8-9.1H32.6v8.1c0,4.7,1,9,2.7,12.7H42.1z"/>
	<path class="st0" d="M45.1,76.6h2c0.2,0.3,0.2,0.5,0.3,0.8c0,0.2,0,0.3,0,0.5c0,0.4-0.1,0.9-0.2,1.2h-7.1c-1-0.7-1.5-3.5-1.6-5.8
		l3.1-1c0.5-0.2,0.9-0.6,0.9-1.2v-1.2c0-0.4-0.2-0.8-0.5-1l-3.4-2.4v-2.1l1.2-0.6c0.4-0.2,0.7-0.6,0.7-1.1v-2.8c0-0.5-0.3-1-0.8-1.2
		l-1.1-0.4l0-2.1l3.3,0l1.6,2.5l0,3.6l-1.1,3.4c-0.1,0.4-0.1,0.8,0.2,1.1c0.2,0.3,0.6,0.5,1,0.5h0.9c0.6,0,1.1-0.4,1.2-1
		c0.1-0.6,0.4-2.1,0.7-2.9c0.2-0.6,1.1-1.8,1.7-2.4c0.4-0.5,0.4-1.2,0-1.6l-4.3-4.9c-0.1-0.7-0.2-2.5,0-3.7c0.3-1.4,1.2-3.1,1.6-3.6
		c0.2-0.2,0.2-0.5,0.2-0.8L45.4,46h0.3l5.1,3.2c0.2,0.1,0.4,0.2,0.7,0.2h1.4l-0.1,1.9l-1.6,0.6c-0.5,0.2-0.8,0.7-0.8,1.2l0,1.3
		c0,0.7,0.6,1.2,1.2,1.2l4.3,0l1.1,1.2c0.4,0.5,1.2,0.5,1.7,0.1c0,0,1.9-1.5,2-1.7l0.7-1.5h2.5v2.9l0,1.6c0,0-4.6,1.6-4.9,1.7
		c-0.3,0.1-0.5,1.6-0.4,1.9c0.1,0.3,0,0.5,0.5,0.8c0,0,1.3,1,1.7,1.2l1.3-1.3l1.8,0.1l0,4.2l-1.7,1l-5.2-3.6
		c-0.5-0.4-1.3-0.3-1.7,0.3l-0.8,1c-0.4,0.5-0.3,1.2,0.1,1.7l3,2.8l0,2.3l-3,1.3c-0.4,0.2-0.7,0.6-0.7,1.1v0.5
		c0,0.7,0.6,1.2,1.2,1.2h3.6c0.6,0.8,0.4,1.9,0.1,2.6h-8.3c-0.3-0.3-0.4-0.8-0.5-1.4c0-0.2,0-0.3,0-0.5c0-0.8,0.1-1.6,0.2-2.1
		l1.9-2.5c0.2-0.2,0.2-0.4,0.3-0.7l0.1-1.2c0-0.4-0.2-0.8-0.5-1.1c-0.3-0.2-0.8-0.3-1.2-0.1l-3.1,1.3c-0.4,0.2-0.7,0.5-0.8,1
		l-0.2,1.2l-1.8,0.5c-0.5,0.2-0.9,0.6-0.9,1.2v0.5C43.8,76.1,44.4,76.6,45.1,76.6"/>
	<path class="st0" d="M105.3,76.6h-2c-0.2,0.3-0.2,0.5-0.3,0.8c0,0.2,0,0.3,0,0.5c0,0.4,0.1,0.9,0.2,1.2h7.1c1-0.7,1.5-3.5,1.6-5.8
		l-3.1-1c-0.5-0.2-0.9-0.6-0.9-1.2v-1.2c0-0.4,0.2-0.8,0.5-1l3.4-2.4v-2.1l-1.2-0.6c-0.4-0.2-0.7-0.6-0.7-1.1v-2.8
		c0-0.5,0.3-1,0.8-1.2l1.1-0.4l0-2.1l-3.3,0l-1.6,2.5l0,3.6l1.1,3.4c0.1,0.4,0.1,0.8-0.2,1.1c-0.2,0.3-0.6,0.5-1,0.5h-0.9
		c-0.6,0-1.1-0.4-1.2-1c-0.1-0.6-0.4-2.1-0.7-2.9c-0.2-0.6-1.1-1.8-1.7-2.4c-0.4-0.5-0.4-1.2,0-1.6l4.3-4.9c0.1-0.7,0.2-2.5,0-3.7
		c-0.3-1.4-1.2-3.1-1.6-3.6c-0.2-0.2-0.2-0.5-0.2-0.8L105,46h-0.3l-5.1,3.2c-0.2,0.1-0.4,0.2-0.7,0.2h-1.4l0.1,1.9l1.6,0.6
		c0.5,0.2,0.8,0.7,0.8,1.2l0,1.3c0,0.7-0.6,1.2-1.2,1.2l-4.3,0l-1.1,1.2c-0.4,0.5-1.2,0.5-1.7,0.1c0,0-1.9-1.5-2-1.7l-0.7-1.5h-2.5
		v2.9l0,1.6c0,0,4.6,1.6,4.9,1.7c0.3,0.1,0.5,1.6,0.4,1.9c-0.1,0.3,0,0.5-0.5,0.8c0,0-1.3,1-1.7,1.2l-1.3-1.3l-1.8,0.1l0,4.2l1.7,1
		l5.2-3.6c0.5-0.4,1.3-0.3,1.7,0.3l0.8,1c0.4,0.5,0.3,1.2-0.1,1.7l-3,2.8l0,2.3l3,1.3c0.4,0.2,0.7,0.6,0.7,1.1v0.5
		c0,0.7-0.6,1.2-1.2,1.2h-3.6c-0.6,0.8-0.4,1.9-0.1,2.6h8.3c0.3-0.3,0.4-0.8,0.5-1.4c0-0.2,0-0.3,0-0.5c0-0.8-0.1-1.6-0.2-2.1
		l-1.9-2.5c-0.2-0.2-0.2-0.4-0.3-0.7l-0.1-1.2c0-0.4,0.2-0.8,0.5-1.1c0.3-0.2,0.8-0.3,1.2-0.1l3.1,1.3c0.4,0.2,0.7,0.5,0.8,1
		l0.2,1.2l1.8,0.5c0.5,0.2,0.9,0.6,0.9,1.2v0.5C106.6,76.1,106,76.6,105.3,76.6"/>
	<path class="st0" d="M301.6,65.6L301.6,65.6c0-4.8,3.5-9,8.7-9c2.9,0,4.7,0.8,6.4,2.3l-1.3,1.5c-1.3-1.2-2.8-2-5.3-2
		c-3.8,0-6.6,3.2-6.6,7.1v0c0,4.1,2.6,7.2,6.8,7.2c2,0,3.8-0.8,5-1.7v-4.3h-5.3v-1.8h7.1v6.9c-1.6,1.4-4,2.6-6.9,2.6
		C304.9,74.5,301.6,70.5,301.6,65.6"/>
	<path class="st0" d="M339.3,65.6L339.3,65.6c0-4-2.9-7.2-6.8-7.2c-4,0-6.8,3.2-6.8,7.1v0c0,3.9,2.9,7.1,6.8,7.1
		C336.5,72.7,339.3,69.5,339.3,65.6 M323.7,65.6L323.7,65.6c0-4.8,3.6-9,8.8-9c5.3,0,8.8,4.1,8.8,8.9v0c0,4.8-3.6,8.9-8.8,8.9
		C327.2,74.5,323.7,70.4,323.7,65.6"/>
	<path class="st0" d="M355.7,66.3h-5.5v6.1h5.8c2.6,0,4.2-1.2,4.2-3.1v0C360.3,67.4,358.7,66.3,355.7,66.3 M359.3,61.5
		c0-1.7-1.4-2.8-3.8-2.8h-5.3v6h5.1C357.7,64.6,359.3,63.5,359.3,61.5L359.3,61.5z M348.3,56.9h7.4c2,0,3.5,0.6,4.5,1.5
		c0.7,0.7,1.1,1.7,1.1,2.8v0c0,2.2-1.4,3.4-2.7,4c2,0.6,3.7,1.8,3.7,4.2v0c0,3-2.5,4.7-6.3,4.7h-7.7V56.9z"/>
</g>
<rect x="369.2" y="56.9" class="st0" width="2" height="17.3"/>
<polygon class="st0" points="379.1,56.9 391.6,56.9 391.6,58.7 381,58.7 381,64.6 390.5,64.6 390.5,66.4 381,66.4 381,72.4 
	391.7,72.4 391.7,74.2 379.1,74.2 "/>
<g>
	<path class="st0" d="M405.4,65.7c2.6,0,4.4-1.3,4.4-3.6v0c0-2.1-1.6-3.4-4.4-3.4h-5.3v7H405.4z M398.2,56.9h7.4
		c2.1,0,3.8,0.6,4.9,1.7c0.8,0.8,1.3,2.1,1.3,3.4v0c0,2.9-2,4.5-4.7,5l5.3,7.1h-2.4l-5-6.7h-4.9v6.7h-1.9V56.9z"/>
</g>
<polygon class="st0" points="418.9,56.9 420.7,56.9 431.6,70.8 431.6,56.9 433.5,56.9 433.5,74.2 432,74.2 420.8,60 420.8,74.2 
	418.9,74.2 "/>
<g>
	<path class="st0" d="M456.1,65.6L456.1,65.6c0-4-2.9-7.2-6.8-7.2c-4,0-6.8,3.2-6.8,7.1v0c0,3.9,2.9,7.1,6.8,7.1
		C453.3,72.7,456.1,69.5,456.1,65.6 M440.5,65.6L440.5,65.6c0-4.8,3.6-9,8.8-9c5.3,0,8.8,4.1,8.8,8.9v0c0,4.8-3.6,8.9-8.8,8.9
		C444,74.5,440.5,70.4,440.5,65.6"/>
	<path class="st0" d="M476.1,58.7v13.7h4.1c4.4,0,7.2-3,7.2-6.8v0c0-3.8-2.8-6.8-7.2-6.8H476.1z M474.1,56.9h6
		c5.4,0,9.2,3.7,9.2,8.6v0c0,4.9-3.8,8.6-9.2,8.6h-6V56.9z"/>
</g>
<polygon class="st0" points="495.5,56.9 508,56.9 508,58.7 497.5,58.7 497.5,64.6 506.9,64.6 506.9,66.4 497.5,66.4 497.5,72.4 
	508.1,72.4 508.1,74.2 495.5,74.2 "/>
<polygon class="st0" points="523.7,56.9 525.6,56.9 525.6,72.4 535.3,72.4 535.3,74.2 523.7,74.2 "/>
<path class="st0" d="M552.1,67.8l-3.9-8.8l-4,8.8H552.1z M547.3,56.8h1.8l7.9,17.4h-2.1l-2-4.6h-9.4l-2,4.6h-2L547.3,56.8z"/>
<g>
	<path class="st0" d="M301.2,95.2L301.2,95.2c0-5,3.7-9,9-9c3.3,0,5.2,1.1,6.8,2.7l-2.4,2.8c-1.3-1.2-2.7-2-4.4-2
		c-2.9,0-5,2.4-5,5.4v0c0,3,2,5.4,5,5.4c2,0,3.2-0.8,4.5-2l2.4,2.4c-1.8,1.9-3.8,3.1-7.1,3.1C305,104.1,301.2,100.2,301.2,95.2"/>
</g>
<rect x="320.3" y="86.5" class="st0" width="3.8" height="17.3"/>
<g>
	<path class="st0" d="M328.5,96.4v-9.9h3.8v9.8c0,2.8,1.4,4.3,3.7,4.3c2.3,0,3.7-1.4,3.7-4.1v-9.9h3.8v9.8c0,5.2-2.9,7.8-7.6,7.8
		C331.3,104.1,328.5,101.5,328.5,96.4"/>
	<path class="st0" d="M354.6,100.4c3.1,0,5.2-2.1,5.2-5.2v0c0-3.1-2.1-5.2-5.2-5.2h-2.9v10.4H354.6z M347.9,86.5h6.7
		c5.4,0,9.2,3.7,9.2,8.6v0c0,4.9-3.8,8.6-9.2,8.6h-6.7V86.5z"/>
</g>
<path class="st0" d="M376.2,96.6l-2.3-5.6l-2.3,5.6H376.2z M372.2,86.4h3.5l7.4,17.4h-4l-1.6-3.9h-7.3l-1.6,3.9h-3.9L372.2,86.4z"/>
<g>
	<path class="st0" d="M392.6,100.4c3.1,0,5.2-2.1,5.2-5.2v0c0-3.1-2.1-5.2-5.2-5.2h-2.9v10.4H392.6z M385.9,86.5h6.7
		c5.4,0,9.2,3.7,9.2,8.6v0c0,4.9-3.8,8.6-9.2,8.6h-6.7V86.5z"/>
	<path class="st0" d="M419.6,100.4c3.1,0,5.2-2.1,5.2-5.2v0c0-3.1-2.1-5.2-5.2-5.2h-2.9v10.4H419.6z M412.9,86.5h6.7
		c5.4,0,9.2,3.7,9.2,8.6v0c0,4.9-3.8,8.6-9.2,8.6h-6.7V86.5z"/>
</g>
<polygon class="st0" points="432.4,86.5 445.4,86.5 445.4,89.9 436.2,89.9 436.2,93.4 444.3,93.4 444.3,96.8 436.2,96.8 
	436.2,100.4 445.6,100.4 445.6,103.8 432.4,103.8 "/>
<polygon class="st0" points="456.6,86.5 460.7,86.5 465.3,93.8 469.8,86.5 473.9,86.5 473.9,103.8 470.1,103.8 470.1,92.5 
	465.3,99.9 465.2,99.9 460.3,92.6 460.3,103.8 456.6,103.8 "/>
<path class="st0" d="M485.7,80.8l3.2,1.4l-3.2,3h-2.9L485.7,80.8z M478.4,86.5h13v3.4h-9.3v3.5h8.1v3.4h-8.1v3.6h9.4v3.4h-13.2V86.5
	z"/>
<polygon class="st0" points="500.1,95 494.3,86.5 498.7,86.5 502.4,92.1 506,86.5 510.3,86.5 504.6,95 510.6,103.8 506.1,103.8 
	502.3,97.9 498.4,103.8 494,103.8 "/>
<rect x="513.5" y="86.5" class="st0" width="3.8" height="17.3"/>
<g>
	<path class="st0" d="M521,95.2L521,95.2c0-5,3.7-9,9-9c3.3,0,5.2,1.1,6.8,2.7l-2.4,2.8c-1.3-1.2-2.7-2-4.4-2c-2.9,0-5,2.4-5,5.4v0
		c0,3,2,5.4,5,5.4c2,0,3.2-0.8,4.5-2l2.4,2.4c-1.8,1.9-3.8,3.1-7.1,3.1C524.8,104.1,521,100.2,521,95.2"/>
	<path class="st0" d="M553.1,95.2L553.1,95.2c0-3-2.2-5.5-5.2-5.5c-3.1,0-5.2,2.4-5.2,5.4v0c0,3,2.2,5.4,5.2,5.4
		C551,100.6,553.1,98.2,553.1,95.2 M538.7,95.2L538.7,95.2c0-5,3.9-9,9.2-9c5.3,0,9.2,4,9.2,8.9v0c0,4.9-3.9,8.9-9.2,8.9
		C542.6,104.1,538.7,100.1,538.7,95.2"/>
</g>
</svg>
