<?xml version="1.0" encoding="utf-8"?>
<!-- Generator: Adobe Illustrator 22.0.1, SVG Export Plug-In . SVG Version: 6.00 Build 0)  -->
<svg version="1.1" id="Capa_1" xmlns="http://www.w3.org/2000/svg" xmlns:xlink="http://www.w3.org/1999/xlink" x="0px" y="0px"
	 viewBox="0 0 1000 1000" style="enable-background:new 0 0 1000 1000;" xml:space="preserve">
<style type="text/css">
	.st0{fill:none;}
	.st1{fill:#F15223;}
</style>
<g id="Grupo_43" transform="translate(5.621 9.971)">
	<g id="Elipse_20" transform="translate(690.379 728.029)">
		<g>
			<ellipse class="st0" cx="-196" cy="-388.3" rx="342.2" ry="349.2"/>
		</g>
		<g>
			<path class="st1" d="M-196-39.2c-188.7,0-342.2-156.6-342.2-349.2S-384.7-737.5-196-737.5s342.2,156.6,342.2,349.2
				S-7.3-39.2-196-39.2z M-196-709.6c-173.3,0-314.2,144.1-314.2,321.2S-369.3-67.1-196-67.1s314.2-144.1,314.2-321.2
				S-22.7-709.6-196-709.6z"/>
		</g>
	</g>
	<path class="st1" d="M573.9,892.8c4.6-6.2,3.4-14.9-2.8-19.5c-6.2-4.6-14.9-3.4-19.5,2.8l-43.2,57.6V303.4h-27.9v630.2L437.2,876
		c-4.6-6.2-13.4-7.4-19.5-2.8c-6.2,4.6-7.4,13.4-2.8,19.5l68.1,90.9c0,0.1,0.1,0.1,0.1,0.2l0.1,0.1c0,0,0.1,0.1,0.1,0.1
		c0.3,0.4,0.6,0.7,0.9,1c0.1,0.1,0.3,0.3,0.4,0.4c0.2,0.2,0.4,0.4,0.6,0.6c0.2,0.2,0.4,0.4,0.7,0.5c0.1,0,0.1,0.1,0.2,0.1
		c0.1,0.1,0.3,0.2,0.4,0.3c0.2,0.2,0.4,0.3,0.7,0.4c0.3,0.2,0.7,0.4,1,0.6c0.2,0.1,0.3,0.2,0.5,0.2c0.3,0.1,0.6,0.3,0.9,0.4
		c0.1,0,0.3,0.1,0.4,0.1c0.4,0.2,0.9,0.3,1.4,0.4c0.1,0,0.1,0,0.2,0c0.4,0.1,0.9,0.2,1.3,0.2c0.1,0,0.2,0,0.3,0
		c0.5,0,0.9,0.1,1.4,0.1c0,0,0,0,0,0s0,0,0,0c0.5,0,0.9,0,1.4-0.1c0.1,0,0.2,0,0.3,0c0.4-0.1,0.9-0.1,1.3-0.2c0.1,0,0.1,0,0.2,0
		c0.5-0.1,0.9-0.2,1.4-0.4c0.1,0,0.3-0.1,0.4-0.1c0.3-0.1,0.6-0.2,0.9-0.4c0.2-0.1,0.3-0.2,0.5-0.2c0.3-0.2,0.7-0.4,1-0.6
		c0.2-0.1,0.4-0.3,0.7-0.4c0.1-0.1,0.3-0.2,0.4-0.3c0.1,0,0.1-0.1,0.2-0.1c0.2-0.2,0.4-0.4,0.7-0.5c0.2-0.2,0.4-0.4,0.6-0.6
		c0.1-0.1,0.3-0.3,0.4-0.4c0.3-0.3,0.6-0.7,0.9-1c0,0,0.1-0.1,0.1-0.1l0.1-0.1c0-0.1,0.1-0.1,0.1-0.2L573.9,892.8z"/>
</g>
</svg>
