<?xml version="1.0" encoding="utf-8"?>
<!-- Generator: Adobe Illustrator 22.0.1, SVG Export Plug-In . SVG Version: 6.00 Build 0)  -->
<svg version="1.1" id="Capa_1" xmlns="http://www.w3.org/2000/svg" xmlns:xlink="http://www.w3.org/1999/xlink" x="0px" y="0px"
	 viewBox="0 0 1000 1000" style="enable-background:new 0 0 1000 1000;" xml:space="preserve">
<style type="text/css">
	.st0{fill:#F2F2F2;}
	.st1{fill:#F15223;}
	.st2{fill:none;}
</style>
<g>
	<g id="Button">
		<path class="st0" d="M500,0.1L500,0.1c276.1,0,500,223.9,500,500l0,0c0,276.1-223.9,500-500,500l0,0c-276.1,0-500-223.9-500-500
			l0,0C0,223.9,223.9,0.1,500,0.1z"/>
	</g>
	<g id="Light_Icon" transform="translate(247.333 211.334)">
		<g id="vuesax_linear_call-calling">
			<g id="call-calling">
				<g id="call-calling-2" transform="translate(0.444 1.778)">
					<g id="Vector">
						<path class="st1" d="M326.7,491.9c-0.3,0-0.5,0-0.8,0c-21.2-0.4-41.6-5-60.8-13.6c-21.7-9.4-42.4-21.3-61.6-35.5
							c-20.6-15.1-40.1-31.8-58.1-49.6c-18-18.2-34.6-37.7-49.5-58c-13.9-19-25.7-39.6-35.2-61.2c-8.5-19.3-13-39.7-13.4-60.8
							c-0.1-13,2.3-25.5,7-37.5c5-12.4,12.8-23.8,22.6-32.8c10.6-11.5,26.4-18.6,42.9-19.1c7.8,0.2,12.9,1.3,18.8,4.1
							c6.2,2.8,11.7,7.4,15.7,13.2l40.2,56.7c3.1,4.2,5.9,9,8,14.1c2,4.4,3.1,9.3,3.3,14.4c-0.1,6.7-1.9,12.9-5.3,18.2
							c-3,5-6.8,9.9-11.3,14.2l-12.9,13.5l1.5,3.9c3.4,5.3,8.4,12.2,14.1,18.7c7.7,9,15.9,18,24.8,27.1c8.8,9,17.9,17.3,26.9,24.9
							c6.5,5.7,13.4,10.7,20.8,14.9l0.4,0l2.3,0.7l12.7-13c4.1-4.4,9.2-8.3,14.7-11.4c8.7-5.6,21.9-6.4,32.2-1.9
							c5,2.1,9.7,4.8,14,7.8l57.4,40.8c5.5,3.6,10.1,9,13,15.3c2.4,5.9,3.6,11.7,3.7,17.8v0.1c0,8-1.9,16.1-5.3,23.3
							c-3.5,7.4-8.1,14.3-13.6,20.3c-8.6,9.9-19.8,17.9-32.1,23.1C351.9,489.3,339.4,491.9,326.7,491.9z M120.3,144.6
							c0,0-0.1,0-0.1,0c-10.7,0.3-21.1,5-28.5,13c-8.1,7.6-14.1,16.3-18,25.8c-3.7,9.4-5.6,19.4-5.5,29.6
							c0.3,18.2,4.2,35.9,11.6,52.6c8.8,20.2,19.9,39.5,32.9,57.3c14.3,19.6,30.2,38.3,47.4,55.6c17.2,17.1,35.9,33.1,55.7,47.5
							c17.9,13.2,37.3,24.4,57.7,33.2c16.7,7.5,34.4,11.5,52.7,11.8c9.9-0.4,20.1-1.9,29.7-5.8c9.3-3.9,17.9-10.1,24.6-17.7
							c4.2-4.6,7.6-9.7,10.3-15.3c2.2-4.5,3.3-9.6,3.4-14.5c0-3.2-0.7-6.5-2-9.6c-1.1-2.4-3.1-4.7-5.7-6.4l-57.7-41
							c-3.1-2.2-6.6-4.1-10.2-5.7c-4.3-1.9-9.2-2-13.2,0.6c-4.2,2.4-7.6,5.1-10.6,8.1L281.2,377c-3.7,3.9-9.2,6.6-14.8,5.9
							c-1.9,0.3-4.7-0.3-7.4-1.3l-2.7-1.1c-10.8-5.9-18.9-11.7-26.3-18.2c-10.4-8.9-19.7-17.4-28.2-26.1
							c-9.2-9.4-17.7-18.7-25.6-27.9c-6.5-7.3-12.3-15.4-17.2-23.7l-2.4-6c-0.6-2.2-0.9-4.5-0.9-6.7c-0.2-5.2,2-10.5,5.9-14.3
							l13-13.5c3.4-3.3,6.1-6.7,8.3-10.4c1.5-2.3,2.2-4.7,2.2-7.2c-0.1-1.9-0.6-4.1-1.5-6.2c-1.6-3.8-3.6-7.2-5.8-10.2l-40.5-57
							c-1.9-2.8-4.5-4.9-7.4-6.3C126.7,145.3,123.5,144.6,120.3,144.6z"/>
					</g>
					<g id="Vector-2">
						<path class="st1" d="M344.2,266.1c-5.1,0-9.5-3.7-10.3-8.9c-1.9-12.7-8-24.6-17.2-33.5c-9.1-10.9-21.2-17.3-34.2-18.5
							c-5.7-0.5-9.9-5.6-9.4-11.3s5.2-10.1,11.3-9.4c18.4,1.7,35.7,10.8,47.5,25.1c11.7,11.2,20,27.3,22.6,44.5
							c0.9,5.7-3.1,11-8.7,11.8C345.2,266.1,344.7,266.1,344.2,266.1z"/>
					</g>
					<g id="Vector-3">
						<path class="st1" d="M405,266.1L405,266.1c-5.7,0-10.4-4.7-10.4-10.4c0-29.6-11.5-57.5-32.5-78.5c-21-21-48.8-32.6-78.5-32.6
							c-5.7,0-10.5-4.7-10.5-10.4s4.6-10.4,10.3-10.4c35.4,0,68.5,13.8,93.4,38.7s38.6,58,38.5,93.2
							C415.3,261.5,410.7,266.1,405,266.1z"/>
					</g>
				</g>
				<g id="Vector-4">
					<path class="st2" d="M44.3,80.4H461v416.7H44.3V80.4z"/>
				</g>
			</g>
		</g>
	</g>
</g>
</svg>
