<?xml version="1.0" encoding="utf-8"?>
<!-- Generator: Adobe Illustrator 22.0.1, SVG Export Plug-In . SVG Version: 6.00 Build 0)  -->
<svg version="1.1" id="Capa_1" xmlns="http://www.w3.org/2000/svg" xmlns:xlink="http://www.w3.org/1999/xlink" x="0px" y="0px"
	 viewBox="0 0 1000 1000" style="enable-background:new 0 0 1000 1000;" xml:space="preserve">
<style type="text/css">
	.st0{fill:#FFFFFF;}
</style>
<g>
	<circle class="st0" cx="947.4" cy="597.4" r="10.8"/>
	
		<ellipse transform="matrix(0.8507 -0.5257 0.5257 0.8507 -140.2927 529.3986)" class="st0" cx="861.6" cy="511.6" rx="10.8" ry="10.8"/>
	
		<ellipse transform="matrix(0.8507 -0.5257 0.5257 0.8507 -108.0136 471.5026)" class="st0" cx="775.9" cy="425.9" rx="10.8" ry="10.8"/>
	<circle class="st0" cx="690.1" cy="340.1" r="42.7"/>
	<circle class="st0" cx="604.3" cy="254.3" r="42.7"/>
	
		<ellipse transform="matrix(0.3827 -0.9239 0.9239 0.3827 164.3859 583.1783)" class="st0" cx="518.6" cy="168.6" rx="42.7" ry="42.7"/>
	
		<ellipse transform="matrix(0.3902 -0.9207 0.9207 0.3902 187.6841 449.0178)" class="st0" cx="432.8" cy="82.8" rx="42.7" ry="42.7"/>
	
		<ellipse transform="matrix(0.8507 -0.5257 0.5257 0.8507 -230.4676 555.0128)" class="st0" cx="861.6" cy="683.1" rx="10.8" ry="10.8"/>
	<circle class="st0" cx="775.9" cy="597.4" r="10.8"/>
	<circle class="st0" cx="690.1" cy="511.6" r="10.8"/>
	<path class="st0" d="M574.1,456.1c-16.7-16.7-16.7-43.7,0-60.4c16.7-16.7,43.7-16.7,60.4,0c16.7,16.7,16.7,43.7,0,60.4
		C617.9,472.7,590.8,472.7,574.1,456.1z"/>
	<path class="st0" d="M488.4,370.3c-16.7-16.7-16.7-43.7,0-60.4c16.7-16.7,43.7-16.7,60.4,0c16.7,16.7,16.7,43.7,0,60.4
		C532.1,387,505.1,387,488.4,370.3z"/>
	<path class="st0" d="M402.6,284.5c-16.7-16.7-16.7-43.7,0-60.4c16.7-16.7,43.7-16.7,60.4,0c16.7,16.7,16.7,43.7,0,60.4
		C446.3,301.2,419.3,301.2,402.6,284.5z"/>
	<path class="st0" d="M316.9,198.8c-16.7-16.7-16.7-43.7,0-60.4c16.7-16.7,43.7-16.7,60.4,0c16.7,16.7,16.7,43.7,0,60.4
		C360.6,215.5,333.5,215.5,316.9,198.8z"/>
	
		<ellipse transform="matrix(0.8507 -0.5257 0.5257 0.8507 -288.3629 522.734)" class="st0" cx="775.9" cy="768.9" rx="10.8" ry="10.8"/>
	<circle class="st0" cx="690.1" cy="683.1" r="10.8"/>
	<circle class="st0" cx="604.3" cy="597.4" r="10.8"/>
	<circle class="st0" cx="518.6" cy="511.6" r="42.7"/>
	<circle class="st0" cx="432.8" cy="425.9" r="42.7"/>
	
		<ellipse transform="matrix(0.3827 -0.9239 0.9239 0.3827 -99.964 530.5956)" class="st0" cx="347.1" cy="340.1" rx="42.7" ry="42.7"/>
	
		<ellipse transform="matrix(0.3902 -0.9207 0.9207 0.3902 -74.8361 395.686)" class="st0" cx="261.3" cy="254.3" rx="42.7" ry="42.7"/>
	<circle class="st0" cx="690.1" cy="854.7" r="10.8"/>
	
		<ellipse transform="matrix(0.8507 -0.5257 0.5257 0.8507 -313.9804 432.5613)" class="st0" cx="604.3" cy="768.9" rx="10.8" ry="10.8"/>
	
		<ellipse transform="matrix(0.8507 -0.5257 0.5257 0.8507 -281.7013 374.6653)" class="st0" cx="518.6" cy="683.1" rx="10.8" ry="10.8"/>
	<circle class="st0" cx="432.8" cy="597.4" r="42.7"/>
	<circle class="st0" cx="347.1" cy="511.6" r="42.7"/>
	
		<ellipse transform="matrix(0.3827 -0.9239 0.9239 0.3827 -232.1393 504.3043)" class="st0" cx="261.3" cy="425.9" rx="42.7" ry="42.7"/>
	
		<ellipse transform="matrix(0.3902 -0.9207 0.9207 0.3902 -206.0964 369.02)" class="st0" cx="175.5" cy="340.1" rx="42.7" ry="42.7"/>
	
		<ellipse transform="matrix(0.8507 -0.5257 0.5257 0.8507 -404.1544 458.1758)" class="st0" cx="604.3" cy="940.4" rx="10.8" ry="10.8"/>
	<circle class="st0" cx="518.6" cy="854.7" r="10.8"/>
	<circle class="st0" cx="432.8" cy="768.9" r="10.8"/>
	<circle class="st0" cx="347.1" cy="683.1" r="42.7"/>
	<circle class="st0" cx="261.3" cy="597.4" r="42.7"/>
	
		<ellipse transform="matrix(0.3827 -0.9239 0.9239 0.3827 -364.3146 478.0129)" class="st0" cx="175.5" cy="511.6" rx="42.7" ry="42.7"/>
	
		<ellipse transform="matrix(0.3902 -0.9207 0.9207 0.3902 -337.3569 342.3541)" class="st0" cx="89.8" cy="425.9" rx="42.7" ry="42.7"/>
</g>
</svg>
