<?xml version="1.0" encoding="utf-8"?>
<!-- Generator: Adobe Illustrator 22.0.1, SVG Export Plug-In . SVG Version: 6.00 Build 0)  -->
<svg version="1.1" id="Capa_1" xmlns="http://www.w3.org/2000/svg" xmlns:xlink="http://www.w3.org/1999/xlink" x="0px" y="0px"
	 viewBox="0 0 1000 1000" style="enable-background:new 0 0 1000 1000;" xml:space="preserve">
<style type="text/css">
	.st0{fill:#F2F2F2;}
	.st1{fill:#F15223;}
	.st2{fill:none;}
</style>
<g>
	<g id="Button-3">
		<path class="st0" d="M500,0L500,0c276.1,0,500,223.9,500,500l0,0c0,276.1-223.9,500-500,500l0,0C223.9,1000,0,776.1,0,500l0,0
			C0,223.9,223.9,0,500,0z"/>
	</g>
	<g id="Light_Icon-3" transform="translate(247.333 323.334)">
		<g id="vuesax_linear_location" transform="translate(0 0)">
			<g id="location">
				<g id="Vector-8">
					<path class="st1" d="M252.7,211.9c-35.6,0-64.5-29-64.5-64.5s28.9-64.5,64.5-64.5c0,0,0,0,0.1,0c17.2,0,33.4,6.7,45.6,18.9
						c12.2,12.2,18.9,28.4,18.9,45.6v0C317.2,182.9,288.3,211.9,252.7,211.9z M252.7,103.6C252.7,103.6,252.7,103.6,252.7,103.6
						c-24.2,0-43.8,19.7-43.8,43.8c0,24.1,19.7,43.8,43.8,43.8s43.8-19.7,43.8-43.8c0-11.7-4.6-22.7-12.8-30.9
						C275.3,108.1,264.4,103.6,252.7,103.6z"/>
				</g>
				<g id="Vector-9">
					<path class="st1" d="M252.5,360.8c-25.1,0-50.2-9.4-69.8-28.3C132.2,283.6,76.2,206,97,113.5v0C116,30,188.8-7.3,252.6-7.3
						c0,0,0.1,0,0.1,0c63.8,0,136.7,37.4,155.6,120.9c20.9,92.5-35.2,170.1-85.9,218.8C302.8,351.3,277.7,360.8,252.5,360.8z
						 M117.3,118.1c-18.7,83.1,33.1,154.3,79.9,199.4c31.1,30,79.7,30,110.8,0c46.9-45.1,98.9-116.2,80.1-199.3
						C370.5,40.9,304.2,13.5,252.7,13.5c0,0-0.1,0-0.1,0C201.2,13.5,134.9,40.8,117.3,118.1L117.3,118.1z"/>
				</g>
				<g id="Vector-10">
					<path class="st2" d="M461,385H44.3V-31.6H461V385z"/>
				</g>
			</g>
		</g>
	</g>
</g>
</svg>
