<?xml version="1.0" encoding="utf-8"?>
<!-- Generator: Adobe Illustrator 22.0.1, SVG Export Plug-In . SVG Version: 6.00 Build 0)  -->
<svg version="1.1" id="Capa_1" xmlns="http://www.w3.org/2000/svg" xmlns:xlink="http://www.w3.org/1999/xlink" x="0px" y="0px"
	 viewBox="0 0 1000 1000" style="enable-background:new 0 0 1000 1000;" xml:space="preserve">
<style type="text/css">
	.st0{fill:#F2F2F2;}
	.st1{fill:none;}
	.st2{fill:#F15223;}
</style>
<g id="Light_Mini_Button-3" transform="translate(1077.413 327.207)">
	<g id="Light_Mini_Button-4">
		<path class="st0" d="M-577.4-327.2L-577.4-327.2c276.1,0,500,223.9,500,500l0,0c0,276.1-223.9,500-500,500l0,0
			c-276.1,0-500-223.9-500-500l0,0C-1077.4-103.3-853.6-327.2-577.4-327.2z"/>
	</g>
	<g id="Light_Social_Icons-2" transform="translate(7.754 7.754)">
		<g id="vuesax_linear_whatsapp">
			<g id="whatsapp">
				<g id="BG_1-2">
					<path class="st1" d="M-793.5-43.3h416.7v416.7h-416.7V-43.3z"/>
				</g>
				<g id="Vector-14">
					<path class="st2" d="M-585.5,349.1c-31.1,0-61.8-8-89.6-23.5l-80.8,23.1c-3.7,1-7.5,0-10.1-2.6c-2.7-2.6-3.7-6.5-2.8-10.1
						l21.6-82.8c-14.1-27.1-21.7-57.4-21.9-88c0-33.1,8.9-65.6,25.7-94c25.1-42.3,65.1-72.3,112.7-84.4c47.6-12.2,97.1-5.1,139.4,20
						c42.3,25.1,72.3,65.1,84.4,112.7c12.2,47.6,5.1,97.2-20,139.4s-65.1,72.3-112.7,84.4C-554.8,347.2-570.2,349.1-585.5,349.1z
						 M-673.7,303.9c1.8,0,3.7,0.5,5.3,1.5c37.5,22.2,81.4,28.5,123.6,17.7c42.2-10.8,77.7-37.4,99.9-74.9
						c22.2-37.5,28.5-81.4,17.7-123.6c-10.8-42.2-37.4-77.7-74.9-99.9C-539.5,2.3-583.6-3.9-625.6,6.9
						c-42.2,10.8-77.7,37.4-99.9,74.9c-15,25.2-22.8,54-22.8,83.2c0.2,28.5,7.6,56.8,21.3,81.8c1.3,2.3,1.6,5,1,7.6l-18,69.1
						l67.5-19.3C-675.6,304-674.7,303.9-673.7,303.9z"/>
				</g>
				<g id="Vector-15">
					<path class="st2" d="M-542.2,253.6c-0.1,0-0.2,0-0.3,0c-10.5-0.3-20.5-2.5-29.7-6.8c-10-4.3-19.8-9.9-28.8-16.6
						c-9.4-6.8-18.4-14.5-26.9-22.9c-8.1-8.2-15.8-17.2-22.8-26.7c-6.5-8.9-12-18.5-16.5-28.5c-4.2-9.3-6.4-19.2-6.5-29.6
						c0-6.6,1.2-13,3.6-19.1c2.7-6.5,6.6-12.2,11.6-16.7c5.3-6,13.9-10,23-10.2c0,0,0,0,0,0c4.1,0,7.8,0.8,11.1,2.4
						c3.7,1.7,7,4.5,9.3,8l18,25.3c1.7,2.3,3.2,4.9,4.3,7.5c1.2,2.6,1.8,5.6,1.9,8.6c-0.1,4.2-1.2,8-3.2,11.3
						c-1.7,2.7-3.7,5.3-6,7.5l-2.8,2.9c1.2,1.5,2.7,3.5,4.3,5.3c3.5,3.9,7.1,7.9,10.9,11.9c3.7,3.9,7.8,7.5,11.7,10.7
						c1.9,1.7,3.7,3.1,5.7,4.4l2.9-2.8c2.1-2.2,4.8-4.3,7.9-6c2.9-1.9,6.6-3.3,10.9-2.9c0,0,0,0,0,0c2.8,0,5.7,0.6,8.6,1.8
						c2.7,1.2,5.1,2.5,7.4,4.1l26,18.5c3.3,2.2,6.1,5.4,7.8,9.2c1.5,3.6,2.2,7,2.2,10.4v0.1c-0.1,4.4-1.1,8.7-2.9,12.8
						c-1.9,4-4.3,7.5-7.1,10.6c-4.4,5-10,9.1-16.5,11.8C-529.3,252.3-535.6,253.6-542.2,253.6z M-635.2,86.9l0.3,10.4
						c-3.4,0.1-6.6,1.6-8.8,4c-3.5,3.3-5.7,6.4-7.1,9.9c-1.4,3.4-2.1,7.2-2,11c0.1,7.4,1.7,14.6,4.7,21.4c3.9,8.7,8.6,17,14.2,24.6
						c6.4,8.8,13.4,17,20.8,24.4c7.6,7.5,15.8,14.5,24.4,20.8c7.8,5.7,16.2,10.5,24.9,14.3c6.8,3.1,14.2,4.8,21.6,5
						c3.6,0,7.4-0.7,11.1-2.2c3.4-1.4,6.5-3.6,8.9-6.4c1.5-1.7,2.8-3.6,3.7-5.6c0.6-1.2,0.9-2.6,0.9-4c0-0.7-0.1-1.4-0.4-2.1
						l-26.6-18.9c-1-0.7-2.3-1.4-3.6-2c-2.4,0.8-3.5,1.7-4.4,2.6l-6.2,6.1c-2.7,2.8-6.7,4.1-10.8,4.3l-8.2-2.3
						c-4.2-2.4-8.2-5.2-11.8-8.4c-4.2-3.5-8.7-7.6-13-12c-4.2-4.3-8-8.6-11.7-12.7c-3.2-3.6-6-7.5-8.4-11.6l-1.5-3.6
						c-0.6-2.2-0.8-3.6-0.8-5.1c-0.1-3.7,1.5-7.6,4.3-10.5l5.8-6c1.3-1.2,2.2-2.4,2.9-3.6c-0.6-2.1-1.2-3.2-2-4.2l-18.3-25.7
						L-635.2,86.9z M-573.3,185.3c-0.1,0.1-0.2,0.1-0.3,0.3L-573.3,185.3z M-605.6,152.8l-0.1,0.1
						C-605.7,152.9-605.6,152.8-605.6,152.8z"/>
				</g>
				<g id="Vector-16">
					<path class="st1" d="M-793.5-43.3h416.7v416.7h-416.7V-43.3z"/>
				</g>
			</g>
		</g>
	</g>
</g>
</svg>
